G04 #@! TF.GenerationSoftware,KiCad,Pcbnew,(5.1.4)-1*
G04 #@! TF.CreationDate,2019-12-21T12:13:18-06:00*
G04 #@! TF.ProjectId,loRaWan1262_jlc,6c6f5261-5761-46e3-9132-36325f6a6c63,rev?*
G04 #@! TF.SameCoordinates,Original*
G04 #@! TF.FileFunction,Legend,Bot*
G04 #@! TF.FilePolarity,Positive*
%FSLAX46Y46*%
G04 Gerber Fmt 4.6, Leading zero omitted, Abs format (unit mm)*
G04 Created by KiCad (PCBNEW (5.1.4)-1) date 2019-12-21 12:13:18*
%MOMM*%
%LPD*%
G04 APERTURE LIST*
%ADD10C,0.254000*%
%ADD11C,0.127000*%
%ADD12C,0.150000*%
%ADD13C,0.300000*%
%ADD14C,0.010000*%
G04 APERTURE END LIST*
D10*
X176735619Y-83130571D02*
X176251809Y-82791904D01*
X176735619Y-82550000D02*
X175719619Y-82550000D01*
X175719619Y-82937047D01*
X175768000Y-83033809D01*
X175816380Y-83082190D01*
X175913142Y-83130571D01*
X176058285Y-83130571D01*
X176155047Y-83082190D01*
X176203428Y-83033809D01*
X176251809Y-82937047D01*
X176251809Y-82550000D01*
X176203428Y-83566000D02*
X176203428Y-83904666D01*
X176735619Y-84049809D02*
X176735619Y-83566000D01*
X175719619Y-83566000D01*
X175719619Y-84049809D01*
X175719619Y-84340095D02*
X176735619Y-84678761D01*
X175719619Y-85017428D01*
X176203428Y-86468857D02*
X176251809Y-86614000D01*
X176300190Y-86662380D01*
X176396952Y-86710761D01*
X176542095Y-86710761D01*
X176638857Y-86662380D01*
X176687238Y-86614000D01*
X176735619Y-86517238D01*
X176735619Y-86130190D01*
X175719619Y-86130190D01*
X175719619Y-86468857D01*
X175768000Y-86565619D01*
X175816380Y-86614000D01*
X175913142Y-86662380D01*
X176009904Y-86662380D01*
X176106666Y-86614000D01*
X176155047Y-86565619D01*
X176203428Y-86468857D01*
X176203428Y-86130190D01*
X175719619Y-87339714D02*
X175719619Y-87436476D01*
X175768000Y-87533238D01*
X175816380Y-87581619D01*
X175913142Y-87630000D01*
X176106666Y-87678380D01*
X176348571Y-87678380D01*
X176542095Y-87630000D01*
X176638857Y-87581619D01*
X176687238Y-87533238D01*
X176735619Y-87436476D01*
X176735619Y-87339714D01*
X176687238Y-87242952D01*
X176638857Y-87194571D01*
X176542095Y-87146190D01*
X176348571Y-87097809D01*
X176106666Y-87097809D01*
X175913142Y-87146190D01*
X175816380Y-87194571D01*
X175768000Y-87242952D01*
X175719619Y-87339714D01*
D11*
X128838476Y-84787619D02*
X128838476Y-83771619D01*
X128620761Y-84787619D02*
X128620761Y-84255428D01*
X128644952Y-84158666D01*
X128693333Y-84110285D01*
X128765904Y-84110285D01*
X128814285Y-84158666D01*
X128838476Y-84207047D01*
X128451428Y-84110285D02*
X128257904Y-84110285D01*
X128378857Y-83771619D02*
X128378857Y-84642476D01*
X128354666Y-84739238D01*
X128306285Y-84787619D01*
X128257904Y-84787619D01*
X128161142Y-84110285D02*
X127967619Y-84110285D01*
X128088571Y-83771619D02*
X128088571Y-84642476D01*
X128064380Y-84739238D01*
X128016000Y-84787619D01*
X127967619Y-84787619D01*
X127798285Y-84110285D02*
X127798285Y-85126285D01*
X127798285Y-84158666D02*
X127749904Y-84110285D01*
X127653142Y-84110285D01*
X127604761Y-84158666D01*
X127580571Y-84207047D01*
X127556380Y-84303809D01*
X127556380Y-84594095D01*
X127580571Y-84690857D01*
X127604761Y-84739238D01*
X127653142Y-84787619D01*
X127749904Y-84787619D01*
X127798285Y-84739238D01*
X127362857Y-84739238D02*
X127314476Y-84787619D01*
X127217714Y-84787619D01*
X127169333Y-84739238D01*
X127145142Y-84642476D01*
X127145142Y-84594095D01*
X127169333Y-84497333D01*
X127217714Y-84448952D01*
X127290285Y-84448952D01*
X127338666Y-84400571D01*
X127362857Y-84303809D01*
X127362857Y-84255428D01*
X127338666Y-84158666D01*
X127290285Y-84110285D01*
X127217714Y-84110285D01*
X127169333Y-84158666D01*
X126927428Y-84690857D02*
X126903238Y-84739238D01*
X126927428Y-84787619D01*
X126951619Y-84739238D01*
X126927428Y-84690857D01*
X126927428Y-84787619D01*
X126927428Y-84158666D02*
X126903238Y-84207047D01*
X126927428Y-84255428D01*
X126951619Y-84207047D01*
X126927428Y-84158666D01*
X126927428Y-84255428D01*
X126322666Y-83723238D02*
X126758095Y-85029523D01*
X125790476Y-83723238D02*
X126225904Y-85029523D01*
X125669523Y-84110285D02*
X125572761Y-84787619D01*
X125476000Y-84303809D01*
X125379238Y-84787619D01*
X125282476Y-84110285D01*
X125137333Y-84110285D02*
X125040571Y-84787619D01*
X124943809Y-84303809D01*
X124847047Y-84787619D01*
X124750285Y-84110285D01*
X124605142Y-84110285D02*
X124508380Y-84787619D01*
X124411619Y-84303809D01*
X124314857Y-84787619D01*
X124218095Y-84110285D01*
X124024571Y-84690857D02*
X124000380Y-84739238D01*
X124024571Y-84787619D01*
X124048761Y-84739238D01*
X124024571Y-84690857D01*
X124024571Y-84787619D01*
X123564952Y-84787619D02*
X123564952Y-84255428D01*
X123589142Y-84158666D01*
X123637523Y-84110285D01*
X123734285Y-84110285D01*
X123782666Y-84158666D01*
X123564952Y-84739238D02*
X123613333Y-84787619D01*
X123734285Y-84787619D01*
X123782666Y-84739238D01*
X123806857Y-84642476D01*
X123806857Y-84545714D01*
X123782666Y-84448952D01*
X123734285Y-84400571D01*
X123613333Y-84400571D01*
X123564952Y-84352190D01*
X123105333Y-84787619D02*
X123105333Y-83771619D01*
X123105333Y-84739238D02*
X123153714Y-84787619D01*
X123250476Y-84787619D01*
X123298857Y-84739238D01*
X123323047Y-84690857D01*
X123347238Y-84594095D01*
X123347238Y-84303809D01*
X123323047Y-84207047D01*
X123298857Y-84158666D01*
X123250476Y-84110285D01*
X123153714Y-84110285D01*
X123105333Y-84158666D01*
X122645714Y-84787619D02*
X122645714Y-84255428D01*
X122669904Y-84158666D01*
X122718285Y-84110285D01*
X122815047Y-84110285D01*
X122863428Y-84158666D01*
X122645714Y-84739238D02*
X122694095Y-84787619D01*
X122815047Y-84787619D01*
X122863428Y-84739238D01*
X122887619Y-84642476D01*
X122887619Y-84545714D01*
X122863428Y-84448952D01*
X122815047Y-84400571D01*
X122694095Y-84400571D01*
X122645714Y-84352190D01*
X122476380Y-84110285D02*
X122282857Y-84110285D01*
X122403809Y-84787619D02*
X122403809Y-83916761D01*
X122379619Y-83820000D01*
X122331238Y-83771619D01*
X122282857Y-83771619D01*
X122113523Y-84787619D02*
X122113523Y-84110285D01*
X122113523Y-84303809D02*
X122089333Y-84207047D01*
X122065142Y-84158666D01*
X122016761Y-84110285D01*
X121968380Y-84110285D01*
X121581333Y-84110285D02*
X121581333Y-84787619D01*
X121799047Y-84110285D02*
X121799047Y-84642476D01*
X121774857Y-84739238D01*
X121726476Y-84787619D01*
X121653904Y-84787619D01*
X121605523Y-84739238D01*
X121581333Y-84690857D01*
X121339428Y-84787619D02*
X121339428Y-84110285D01*
X121339428Y-83771619D02*
X121363619Y-83820000D01*
X121339428Y-83868380D01*
X121315238Y-83820000D01*
X121339428Y-83771619D01*
X121339428Y-83868380D01*
X121170095Y-84110285D02*
X120976571Y-84110285D01*
X121097523Y-83771619D02*
X121097523Y-84642476D01*
X121073333Y-84739238D01*
X121024952Y-84787619D01*
X120976571Y-84787619D01*
X120807238Y-84690857D02*
X120783047Y-84739238D01*
X120807238Y-84787619D01*
X120831428Y-84739238D01*
X120807238Y-84690857D01*
X120807238Y-84787619D01*
X120347619Y-84739238D02*
X120396000Y-84787619D01*
X120492761Y-84787619D01*
X120541142Y-84739238D01*
X120565333Y-84690857D01*
X120589523Y-84594095D01*
X120589523Y-84303809D01*
X120565333Y-84207047D01*
X120541142Y-84158666D01*
X120492761Y-84110285D01*
X120396000Y-84110285D01*
X120347619Y-84158666D01*
X120057333Y-84787619D02*
X120105714Y-84739238D01*
X120129904Y-84690857D01*
X120154095Y-84594095D01*
X120154095Y-84303809D01*
X120129904Y-84207047D01*
X120105714Y-84158666D01*
X120057333Y-84110285D01*
X119984761Y-84110285D01*
X119936380Y-84158666D01*
X119912190Y-84207047D01*
X119888000Y-84303809D01*
X119888000Y-84594095D01*
X119912190Y-84690857D01*
X119936380Y-84739238D01*
X119984761Y-84787619D01*
X120057333Y-84787619D01*
X119670285Y-84787619D02*
X119670285Y-84110285D01*
X119670285Y-84207047D02*
X119646095Y-84158666D01*
X119597714Y-84110285D01*
X119525142Y-84110285D01*
X119476761Y-84158666D01*
X119452571Y-84255428D01*
X119452571Y-84787619D01*
X119452571Y-84255428D02*
X119428380Y-84158666D01*
X119380000Y-84110285D01*
X119307428Y-84110285D01*
X119259047Y-84158666D01*
X119234857Y-84255428D01*
X119234857Y-84787619D01*
X118630095Y-83723238D02*
X119065523Y-85029523D01*
X118533333Y-84110285D02*
X118339809Y-84110285D01*
X118460761Y-84787619D02*
X118460761Y-83916761D01*
X118436571Y-83820000D01*
X118388190Y-83771619D01*
X118339809Y-83771619D01*
X117976952Y-84739238D02*
X118025333Y-84787619D01*
X118122095Y-84787619D01*
X118170476Y-84739238D01*
X118194666Y-84642476D01*
X118194666Y-84255428D01*
X118170476Y-84158666D01*
X118122095Y-84110285D01*
X118025333Y-84110285D01*
X117976952Y-84158666D01*
X117952761Y-84255428D01*
X117952761Y-84352190D01*
X118194666Y-84448952D01*
X117517333Y-84787619D02*
X117517333Y-84255428D01*
X117541523Y-84158666D01*
X117589904Y-84110285D01*
X117686666Y-84110285D01*
X117735047Y-84158666D01*
X117517333Y-84739238D02*
X117565714Y-84787619D01*
X117686666Y-84787619D01*
X117735047Y-84739238D01*
X117759238Y-84642476D01*
X117759238Y-84545714D01*
X117735047Y-84448952D01*
X117686666Y-84400571D01*
X117565714Y-84400571D01*
X117517333Y-84352190D01*
X117348000Y-84110285D02*
X117154476Y-84110285D01*
X117275428Y-83771619D02*
X117275428Y-84642476D01*
X117251238Y-84739238D01*
X117202857Y-84787619D01*
X117154476Y-84787619D01*
X116985142Y-84787619D02*
X116985142Y-83771619D01*
X116767428Y-84787619D02*
X116767428Y-84255428D01*
X116791619Y-84158666D01*
X116840000Y-84110285D01*
X116912571Y-84110285D01*
X116960952Y-84158666D01*
X116985142Y-84207047D01*
X116332000Y-84739238D02*
X116380380Y-84787619D01*
X116477142Y-84787619D01*
X116525523Y-84739238D01*
X116549714Y-84642476D01*
X116549714Y-84255428D01*
X116525523Y-84158666D01*
X116477142Y-84110285D01*
X116380380Y-84110285D01*
X116332000Y-84158666D01*
X116307809Y-84255428D01*
X116307809Y-84352190D01*
X116549714Y-84448952D01*
X116090095Y-84787619D02*
X116090095Y-84110285D01*
X116090095Y-84303809D02*
X116065904Y-84207047D01*
X116041714Y-84158666D01*
X115993333Y-84110285D01*
X115944952Y-84110285D01*
D10*
X127798285Y-88470619D02*
X128282095Y-88470619D01*
X128282095Y-87454619D01*
X127314476Y-88470619D02*
X127411238Y-88422238D01*
X127459619Y-88373857D01*
X127508000Y-88277095D01*
X127508000Y-87986809D01*
X127459619Y-87890047D01*
X127411238Y-87841666D01*
X127314476Y-87793285D01*
X127169333Y-87793285D01*
X127072571Y-87841666D01*
X127024190Y-87890047D01*
X126975809Y-87986809D01*
X126975809Y-88277095D01*
X127024190Y-88373857D01*
X127072571Y-88422238D01*
X127169333Y-88470619D01*
X127314476Y-88470619D01*
X125959809Y-88470619D02*
X126298476Y-87986809D01*
X126540380Y-88470619D02*
X126540380Y-87454619D01*
X126153333Y-87454619D01*
X126056571Y-87503000D01*
X126008190Y-87551380D01*
X125959809Y-87648142D01*
X125959809Y-87793285D01*
X126008190Y-87890047D01*
X126056571Y-87938428D01*
X126153333Y-87986809D01*
X126540380Y-87986809D01*
X125088952Y-88470619D02*
X125088952Y-87938428D01*
X125137333Y-87841666D01*
X125234095Y-87793285D01*
X125427619Y-87793285D01*
X125524380Y-87841666D01*
X125088952Y-88422238D02*
X125185714Y-88470619D01*
X125427619Y-88470619D01*
X125524380Y-88422238D01*
X125572761Y-88325476D01*
X125572761Y-88228714D01*
X125524380Y-88131952D01*
X125427619Y-88083571D01*
X125185714Y-88083571D01*
X125088952Y-88035190D01*
X124701904Y-87454619D02*
X124460000Y-88470619D01*
X124266476Y-87744904D01*
X124072952Y-88470619D01*
X123831047Y-87454619D01*
X123492380Y-88180333D02*
X123008571Y-88180333D01*
X123589142Y-88470619D02*
X123250476Y-87454619D01*
X122911809Y-88470619D01*
X122573142Y-88470619D02*
X122573142Y-87454619D01*
X121992571Y-88470619D01*
X121992571Y-87454619D01*
X120396000Y-87938428D02*
X120734666Y-87938428D01*
X120734666Y-88470619D02*
X120734666Y-87454619D01*
X120250857Y-87454619D01*
X119476761Y-88422238D02*
X119573523Y-88470619D01*
X119767047Y-88470619D01*
X119863809Y-88422238D01*
X119912190Y-88325476D01*
X119912190Y-87938428D01*
X119863809Y-87841666D01*
X119767047Y-87793285D01*
X119573523Y-87793285D01*
X119476761Y-87841666D01*
X119428380Y-87938428D01*
X119428380Y-88035190D01*
X119912190Y-88131952D01*
X118557523Y-88470619D02*
X118557523Y-87938428D01*
X118605904Y-87841666D01*
X118702666Y-87793285D01*
X118896190Y-87793285D01*
X118992952Y-87841666D01*
X118557523Y-88422238D02*
X118654285Y-88470619D01*
X118896190Y-88470619D01*
X118992952Y-88422238D01*
X119041333Y-88325476D01*
X119041333Y-88228714D01*
X118992952Y-88131952D01*
X118896190Y-88083571D01*
X118654285Y-88083571D01*
X118557523Y-88035190D01*
X118218857Y-87793285D02*
X117831809Y-87793285D01*
X118073714Y-87454619D02*
X118073714Y-88325476D01*
X118025333Y-88422238D01*
X117928571Y-88470619D01*
X117831809Y-88470619D01*
X117493142Y-88470619D02*
X117493142Y-87454619D01*
X117057714Y-88470619D02*
X117057714Y-87938428D01*
X117106095Y-87841666D01*
X117202857Y-87793285D01*
X117348000Y-87793285D01*
X117444761Y-87841666D01*
X117493142Y-87890047D01*
X116186857Y-88422238D02*
X116283619Y-88470619D01*
X116477142Y-88470619D01*
X116573904Y-88422238D01*
X116622285Y-88325476D01*
X116622285Y-87938428D01*
X116573904Y-87841666D01*
X116477142Y-87793285D01*
X116283619Y-87793285D01*
X116186857Y-87841666D01*
X116138476Y-87938428D01*
X116138476Y-88035190D01*
X116622285Y-88131952D01*
X115703047Y-88470619D02*
X115703047Y-87793285D01*
X115703047Y-87986809D02*
X115654666Y-87890047D01*
X115606285Y-87841666D01*
X115509523Y-87793285D01*
X115412761Y-87793285D01*
X128088571Y-90200238D02*
X127991809Y-90248619D01*
X127798285Y-90248619D01*
X127701523Y-90200238D01*
X127653142Y-90103476D01*
X127653142Y-90055095D01*
X127701523Y-89958333D01*
X127798285Y-89909952D01*
X127943428Y-89909952D01*
X128040190Y-89861571D01*
X128088571Y-89764809D01*
X128088571Y-89716428D01*
X128040190Y-89619666D01*
X127943428Y-89571285D01*
X127798285Y-89571285D01*
X127701523Y-89619666D01*
X127314476Y-89571285D02*
X127072571Y-90248619D01*
X126830666Y-89571285D01*
X126008190Y-90200238D02*
X126104952Y-90248619D01*
X126298476Y-90248619D01*
X126395238Y-90200238D01*
X126443619Y-90151857D01*
X126492000Y-90055095D01*
X126492000Y-89764809D01*
X126443619Y-89668047D01*
X126395238Y-89619666D01*
X126298476Y-89571285D01*
X126104952Y-89571285D01*
X126008190Y-89619666D01*
X125137333Y-89571285D02*
X125137333Y-90393761D01*
X125185714Y-90490523D01*
X125234095Y-90538904D01*
X125330857Y-90587285D01*
X125476000Y-90587285D01*
X125572761Y-90538904D01*
X125137333Y-90200238D02*
X125234095Y-90248619D01*
X125427619Y-90248619D01*
X125524380Y-90200238D01*
X125572761Y-90151857D01*
X125621142Y-90055095D01*
X125621142Y-89764809D01*
X125572761Y-89668047D01*
X125524380Y-89619666D01*
X125427619Y-89571285D01*
X125234095Y-89571285D01*
X125137333Y-89619666D01*
X124218095Y-89571285D02*
X124218095Y-90248619D01*
X124653523Y-89571285D02*
X124653523Y-90103476D01*
X124605142Y-90200238D01*
X124508380Y-90248619D01*
X124363238Y-90248619D01*
X124266476Y-90200238D01*
X124218095Y-90151857D01*
X123831047Y-89571285D02*
X123589142Y-90248619D01*
X123347238Y-89571285D02*
X123589142Y-90248619D01*
X123685904Y-90490523D01*
X123734285Y-90538904D01*
X123831047Y-90587285D01*
X121653904Y-90248619D02*
X122234476Y-90248619D01*
X121944190Y-90248619D02*
X121944190Y-89232619D01*
X122040952Y-89377761D01*
X122137714Y-89474523D01*
X122234476Y-89522904D01*
X120686285Y-90248619D02*
X121266857Y-90248619D01*
X120976571Y-90248619D02*
X120976571Y-89232619D01*
X121073333Y-89377761D01*
X121170095Y-89474523D01*
X121266857Y-89522904D01*
X119525142Y-89184238D02*
X120396000Y-90490523D01*
X119234857Y-89329380D02*
X119186476Y-89281000D01*
X119089714Y-89232619D01*
X118847809Y-89232619D01*
X118751047Y-89281000D01*
X118702666Y-89329380D01*
X118654285Y-89426142D01*
X118654285Y-89522904D01*
X118702666Y-89668047D01*
X119283238Y-90248619D01*
X118654285Y-90248619D01*
X118025333Y-89232619D02*
X117928571Y-89232619D01*
X117831809Y-89281000D01*
X117783428Y-89329380D01*
X117735047Y-89426142D01*
X117686666Y-89619666D01*
X117686666Y-89861571D01*
X117735047Y-90055095D01*
X117783428Y-90151857D01*
X117831809Y-90200238D01*
X117928571Y-90248619D01*
X118025333Y-90248619D01*
X118122095Y-90200238D01*
X118170476Y-90151857D01*
X118218857Y-90055095D01*
X118267238Y-89861571D01*
X118267238Y-89619666D01*
X118218857Y-89426142D01*
X118170476Y-89329380D01*
X118122095Y-89281000D01*
X118025333Y-89232619D01*
X116719047Y-90248619D02*
X117299619Y-90248619D01*
X117009333Y-90248619D02*
X117009333Y-89232619D01*
X117106095Y-89377761D01*
X117202857Y-89474523D01*
X117299619Y-89522904D01*
X116235238Y-90248619D02*
X116041714Y-90248619D01*
X115944952Y-90200238D01*
X115896571Y-90151857D01*
X115799809Y-90006714D01*
X115751428Y-89813190D01*
X115751428Y-89426142D01*
X115799809Y-89329380D01*
X115848190Y-89281000D01*
X115944952Y-89232619D01*
X116138476Y-89232619D01*
X116235238Y-89281000D01*
X116283619Y-89329380D01*
X116332000Y-89426142D01*
X116332000Y-89668047D01*
X116283619Y-89764809D01*
X116235238Y-89813190D01*
X116138476Y-89861571D01*
X115944952Y-89861571D01*
X115848190Y-89813190D01*
X115799809Y-89764809D01*
X115751428Y-89668047D01*
D12*
X169465047Y-89114380D02*
X169465047Y-89828666D01*
X169512666Y-89971523D01*
X169607904Y-90066761D01*
X169750761Y-90114380D01*
X169846000Y-90114380D01*
X168512666Y-90114380D02*
X168988857Y-90114380D01*
X168988857Y-89114380D01*
X167607904Y-90019142D02*
X167655523Y-90066761D01*
X167798380Y-90114380D01*
X167893619Y-90114380D01*
X168036476Y-90066761D01*
X168131714Y-89971523D01*
X168179333Y-89876285D01*
X168226952Y-89685809D01*
X168226952Y-89542952D01*
X168179333Y-89352476D01*
X168131714Y-89257238D01*
X168036476Y-89162000D01*
X167893619Y-89114380D01*
X167798380Y-89114380D01*
X167655523Y-89162000D01*
X167607904Y-89209619D01*
X166893619Y-89114380D02*
X166893619Y-89828666D01*
X166941238Y-89971523D01*
X167036476Y-90066761D01*
X167179333Y-90114380D01*
X167274571Y-90114380D01*
X165941238Y-90114380D02*
X166417428Y-90114380D01*
X166417428Y-89114380D01*
X165036476Y-90019142D02*
X165084095Y-90066761D01*
X165226952Y-90114380D01*
X165322190Y-90114380D01*
X165465047Y-90066761D01*
X165560285Y-89971523D01*
X165607904Y-89876285D01*
X165655523Y-89685809D01*
X165655523Y-89542952D01*
X165607904Y-89352476D01*
X165560285Y-89257238D01*
X165465047Y-89162000D01*
X165322190Y-89114380D01*
X165226952Y-89114380D01*
X165084095Y-89162000D01*
X165036476Y-89209619D01*
X164322190Y-89114380D02*
X164322190Y-89828666D01*
X164369809Y-89971523D01*
X164465047Y-90066761D01*
X164607904Y-90114380D01*
X164703142Y-90114380D01*
X163369809Y-90114380D02*
X163846000Y-90114380D01*
X163846000Y-89114380D01*
X162465047Y-90019142D02*
X162512666Y-90066761D01*
X162655523Y-90114380D01*
X162750761Y-90114380D01*
X162893619Y-90066761D01*
X162988857Y-89971523D01*
X163036476Y-89876285D01*
X163084095Y-89685809D01*
X163084095Y-89542952D01*
X163036476Y-89352476D01*
X162988857Y-89257238D01*
X162893619Y-89162000D01*
X162750761Y-89114380D01*
X162655523Y-89114380D01*
X162512666Y-89162000D01*
X162465047Y-89209619D01*
X161750761Y-89114380D02*
X161750761Y-89828666D01*
X161798380Y-89971523D01*
X161893619Y-90066761D01*
X162036476Y-90114380D01*
X162131714Y-90114380D01*
X160798380Y-90114380D02*
X161274571Y-90114380D01*
X161274571Y-89114380D01*
X159893619Y-90019142D02*
X159941238Y-90066761D01*
X160084095Y-90114380D01*
X160179333Y-90114380D01*
X160322190Y-90066761D01*
X160417428Y-89971523D01*
X160465047Y-89876285D01*
X160512666Y-89685809D01*
X160512666Y-89542952D01*
X160465047Y-89352476D01*
X160417428Y-89257238D01*
X160322190Y-89162000D01*
X160179333Y-89114380D01*
X160084095Y-89114380D01*
X159941238Y-89162000D01*
X159893619Y-89209619D01*
D10*
X162658576Y-99519619D02*
X162658576Y-98503619D01*
X162078004Y-99519619D01*
X162078004Y-98503619D01*
X161013623Y-99422857D02*
X161062004Y-99471238D01*
X161207147Y-99519619D01*
X161303909Y-99519619D01*
X161449052Y-99471238D01*
X161545814Y-99374476D01*
X161594195Y-99277714D01*
X161642576Y-99084190D01*
X161642576Y-98939047D01*
X161594195Y-98745523D01*
X161545814Y-98648761D01*
X161449052Y-98552000D01*
X161303909Y-98503619D01*
X161207147Y-98503619D01*
X161062004Y-98552000D01*
X161013623Y-98600380D01*
X154891619Y-91631709D02*
X154891619Y-92212280D01*
X155907619Y-91921995D02*
X154891619Y-91921995D01*
X154891619Y-92454185D02*
X155907619Y-93131519D01*
X154891619Y-93131519D02*
X155907619Y-92454185D01*
X156294666Y-94582947D02*
X156246285Y-94534566D01*
X156101142Y-94437804D01*
X156004380Y-94389423D01*
X155859238Y-94341042D01*
X155617333Y-94292661D01*
X155423809Y-94292661D01*
X155181904Y-94341042D01*
X155036761Y-94389423D01*
X154940000Y-94437804D01*
X154794857Y-94534566D01*
X154746476Y-94582947D01*
X155907619Y-94969995D02*
X154891619Y-94969995D01*
X154891619Y-95357042D01*
X154940000Y-95453804D01*
X154988380Y-95502185D01*
X155085142Y-95550566D01*
X155230285Y-95550566D01*
X155327047Y-95502185D01*
X155375428Y-95453804D01*
X155423809Y-95357042D01*
X155423809Y-94969995D01*
X155617333Y-95937614D02*
X155617333Y-96421423D01*
X155907619Y-95840852D02*
X154891619Y-96179519D01*
X155907619Y-96518185D01*
X154988380Y-96808471D02*
X154940000Y-96856852D01*
X154891619Y-96953614D01*
X154891619Y-97195519D01*
X154940000Y-97292280D01*
X154988380Y-97340661D01*
X155085142Y-97389042D01*
X155181904Y-97389042D01*
X155327047Y-97340661D01*
X155907619Y-96760090D01*
X155907619Y-97389042D01*
X156294666Y-97727709D02*
X156246285Y-97776090D01*
X156101142Y-97872852D01*
X156004380Y-97921233D01*
X155859238Y-97969614D01*
X155617333Y-98017995D01*
X155423809Y-98017995D01*
X155181904Y-97969614D01*
X155036761Y-97921233D01*
X154940000Y-97872852D01*
X154794857Y-97776090D01*
X154746476Y-97727709D01*
X154129619Y-92115519D02*
X153645809Y-91776852D01*
X154129619Y-91534947D02*
X153113619Y-91534947D01*
X153113619Y-91921995D01*
X153162000Y-92018757D01*
X153210380Y-92067138D01*
X153307142Y-92115519D01*
X153452285Y-92115519D01*
X153549047Y-92067138D01*
X153597428Y-92018757D01*
X153645809Y-91921995D01*
X153645809Y-91534947D01*
X153113619Y-92454185D02*
X154129619Y-93131519D01*
X153113619Y-93131519D02*
X154129619Y-92454185D01*
X154516666Y-94582947D02*
X154468285Y-94534566D01*
X154323142Y-94437804D01*
X154226380Y-94389423D01*
X154081238Y-94341042D01*
X153839333Y-94292661D01*
X153645809Y-94292661D01*
X153403904Y-94341042D01*
X153258761Y-94389423D01*
X153162000Y-94437804D01*
X153016857Y-94534566D01*
X152968476Y-94582947D01*
X154129619Y-94969995D02*
X153113619Y-94969995D01*
X153113619Y-95357042D01*
X153162000Y-95453804D01*
X153210380Y-95502185D01*
X153307142Y-95550566D01*
X153452285Y-95550566D01*
X153549047Y-95502185D01*
X153597428Y-95453804D01*
X153645809Y-95357042D01*
X153645809Y-94969995D01*
X153839333Y-95937614D02*
X153839333Y-96421423D01*
X154129619Y-95840852D02*
X153113619Y-96179519D01*
X154129619Y-96518185D01*
X153113619Y-96760090D02*
X153113619Y-97389042D01*
X153500666Y-97050376D01*
X153500666Y-97195519D01*
X153549047Y-97292280D01*
X153597428Y-97340661D01*
X153694190Y-97389042D01*
X153936095Y-97389042D01*
X154032857Y-97340661D01*
X154081238Y-97292280D01*
X154129619Y-97195519D01*
X154129619Y-96905233D01*
X154081238Y-96808471D01*
X154032857Y-96760090D01*
X154516666Y-97727709D02*
X154468285Y-97776090D01*
X154323142Y-97872852D01*
X154226380Y-97921233D01*
X154081238Y-97969614D01*
X153839333Y-98017995D01*
X153645809Y-98017995D01*
X153403904Y-97969614D01*
X153258761Y-97921233D01*
X153162000Y-97872852D01*
X153016857Y-97776090D01*
X152968476Y-97727709D01*
X151589619Y-88728852D02*
X150573619Y-88728852D01*
X151299333Y-89067519D01*
X150573619Y-89406185D01*
X151589619Y-89406185D01*
X151589619Y-89889995D02*
X150573619Y-89889995D01*
X151541238Y-90325423D02*
X151589619Y-90470566D01*
X151589619Y-90712471D01*
X151541238Y-90809233D01*
X151492857Y-90857614D01*
X151396095Y-90905995D01*
X151299333Y-90905995D01*
X151202571Y-90857614D01*
X151154190Y-90809233D01*
X151105809Y-90712471D01*
X151057428Y-90518947D01*
X151009047Y-90422185D01*
X150960666Y-90373804D01*
X150863904Y-90325423D01*
X150767142Y-90325423D01*
X150670380Y-90373804D01*
X150622000Y-90422185D01*
X150573619Y-90518947D01*
X150573619Y-90760852D01*
X150622000Y-90905995D01*
X150573619Y-91534947D02*
X150573619Y-91728471D01*
X150622000Y-91825233D01*
X150718761Y-91921995D01*
X150912285Y-91970376D01*
X151250952Y-91970376D01*
X151444476Y-91921995D01*
X151541238Y-91825233D01*
X151589619Y-91728471D01*
X151589619Y-91534947D01*
X151541238Y-91438185D01*
X151444476Y-91341423D01*
X151250952Y-91293042D01*
X150912285Y-91293042D01*
X150718761Y-91341423D01*
X150622000Y-91438185D01*
X150573619Y-91534947D01*
X151976666Y-93470185D02*
X151928285Y-93421804D01*
X151783142Y-93325042D01*
X151686380Y-93276661D01*
X151541238Y-93228280D01*
X151299333Y-93179900D01*
X151105809Y-93179900D01*
X150863904Y-93228280D01*
X150718761Y-93276661D01*
X150622000Y-93325042D01*
X150476857Y-93421804D01*
X150428476Y-93470185D01*
X151589619Y-93857233D02*
X150573619Y-93857233D01*
X150573619Y-94244280D01*
X150622000Y-94341042D01*
X150670380Y-94389423D01*
X150767142Y-94437804D01*
X150912285Y-94437804D01*
X151009047Y-94389423D01*
X151057428Y-94341042D01*
X151105809Y-94244280D01*
X151105809Y-93857233D01*
X151057428Y-95211900D02*
X151105809Y-95357042D01*
X151154190Y-95405423D01*
X151250952Y-95453804D01*
X151396095Y-95453804D01*
X151492857Y-95405423D01*
X151541238Y-95357042D01*
X151589619Y-95260280D01*
X151589619Y-94873233D01*
X150573619Y-94873233D01*
X150573619Y-95211900D01*
X150622000Y-95308661D01*
X150670380Y-95357042D01*
X150767142Y-95405423D01*
X150863904Y-95405423D01*
X150960666Y-95357042D01*
X151009047Y-95308661D01*
X151057428Y-95211900D01*
X151057428Y-94873233D01*
X151589619Y-96421423D02*
X151589619Y-95840852D01*
X151589619Y-96131138D02*
X150573619Y-96131138D01*
X150718761Y-96034376D01*
X150815523Y-95937614D01*
X150863904Y-95840852D01*
X150912285Y-97292280D02*
X151589619Y-97292280D01*
X150525238Y-97050376D02*
X151250952Y-96808471D01*
X151250952Y-97437423D01*
X151976666Y-97727709D02*
X151928285Y-97776090D01*
X151783142Y-97872852D01*
X151686380Y-97921233D01*
X151541238Y-97969614D01*
X151299333Y-98017995D01*
X151105809Y-98017995D01*
X150863904Y-97969614D01*
X150718761Y-97921233D01*
X150622000Y-97872852D01*
X150476857Y-97776090D01*
X150428476Y-97727709D01*
X149049619Y-88728852D02*
X148033619Y-88728852D01*
X148759333Y-89067519D01*
X148033619Y-89406185D01*
X149049619Y-89406185D01*
X148033619Y-90083519D02*
X148033619Y-90277042D01*
X148082000Y-90373804D01*
X148178761Y-90470566D01*
X148372285Y-90518947D01*
X148710952Y-90518947D01*
X148904476Y-90470566D01*
X149001238Y-90373804D01*
X149049619Y-90277042D01*
X149049619Y-90083519D01*
X149001238Y-89986757D01*
X148904476Y-89889995D01*
X148710952Y-89841614D01*
X148372285Y-89841614D01*
X148178761Y-89889995D01*
X148082000Y-89986757D01*
X148033619Y-90083519D01*
X149001238Y-90905995D02*
X149049619Y-91051138D01*
X149049619Y-91293042D01*
X149001238Y-91389804D01*
X148952857Y-91438185D01*
X148856095Y-91486566D01*
X148759333Y-91486566D01*
X148662571Y-91438185D01*
X148614190Y-91389804D01*
X148565809Y-91293042D01*
X148517428Y-91099519D01*
X148469047Y-91002757D01*
X148420666Y-90954376D01*
X148323904Y-90905995D01*
X148227142Y-90905995D01*
X148130380Y-90954376D01*
X148082000Y-91002757D01*
X148033619Y-91099519D01*
X148033619Y-91341423D01*
X148082000Y-91486566D01*
X149049619Y-91921995D02*
X148033619Y-91921995D01*
X149436666Y-93470185D02*
X149388285Y-93421804D01*
X149243142Y-93325042D01*
X149146380Y-93276661D01*
X149001238Y-93228280D01*
X148759333Y-93179900D01*
X148565809Y-93179900D01*
X148323904Y-93228280D01*
X148178761Y-93276661D01*
X148082000Y-93325042D01*
X147936857Y-93421804D01*
X147888476Y-93470185D01*
X149049619Y-93857233D02*
X148033619Y-93857233D01*
X148033619Y-94244280D01*
X148082000Y-94341042D01*
X148130380Y-94389423D01*
X148227142Y-94437804D01*
X148372285Y-94437804D01*
X148469047Y-94389423D01*
X148517428Y-94341042D01*
X148565809Y-94244280D01*
X148565809Y-93857233D01*
X148517428Y-95211900D02*
X148565809Y-95357042D01*
X148614190Y-95405423D01*
X148710952Y-95453804D01*
X148856095Y-95453804D01*
X148952857Y-95405423D01*
X149001238Y-95357042D01*
X149049619Y-95260280D01*
X149049619Y-94873233D01*
X148033619Y-94873233D01*
X148033619Y-95211900D01*
X148082000Y-95308661D01*
X148130380Y-95357042D01*
X148227142Y-95405423D01*
X148323904Y-95405423D01*
X148420666Y-95357042D01*
X148469047Y-95308661D01*
X148517428Y-95211900D01*
X148517428Y-94873233D01*
X149049619Y-96421423D02*
X149049619Y-95840852D01*
X149049619Y-96131138D02*
X148033619Y-96131138D01*
X148178761Y-96034376D01*
X148275523Y-95937614D01*
X148323904Y-95840852D01*
X148033619Y-97340661D02*
X148033619Y-96856852D01*
X148517428Y-96808471D01*
X148469047Y-96856852D01*
X148420666Y-96953614D01*
X148420666Y-97195519D01*
X148469047Y-97292280D01*
X148517428Y-97340661D01*
X148614190Y-97389042D01*
X148856095Y-97389042D01*
X148952857Y-97340661D01*
X149001238Y-97292280D01*
X149049619Y-97195519D01*
X149049619Y-96953614D01*
X149001238Y-96856852D01*
X148952857Y-96808471D01*
X149436666Y-97727709D02*
X149388285Y-97776090D01*
X149243142Y-97872852D01*
X149146380Y-97921233D01*
X149001238Y-97969614D01*
X148759333Y-98017995D01*
X148565809Y-98017995D01*
X148323904Y-97969614D01*
X148178761Y-97921233D01*
X148082000Y-97872852D01*
X147936857Y-97776090D01*
X147888476Y-97727709D01*
X146461238Y-89357804D02*
X146509619Y-89502947D01*
X146509619Y-89744852D01*
X146461238Y-89841614D01*
X146412857Y-89889995D01*
X146316095Y-89938376D01*
X146219333Y-89938376D01*
X146122571Y-89889995D01*
X146074190Y-89841614D01*
X146025809Y-89744852D01*
X145977428Y-89551328D01*
X145929047Y-89454566D01*
X145880666Y-89406185D01*
X145783904Y-89357804D01*
X145687142Y-89357804D01*
X145590380Y-89406185D01*
X145542000Y-89454566D01*
X145493619Y-89551328D01*
X145493619Y-89793233D01*
X145542000Y-89938376D01*
X146412857Y-90954376D02*
X146461238Y-90905995D01*
X146509619Y-90760852D01*
X146509619Y-90664090D01*
X146461238Y-90518947D01*
X146364476Y-90422185D01*
X146267714Y-90373804D01*
X146074190Y-90325423D01*
X145929047Y-90325423D01*
X145735523Y-90373804D01*
X145638761Y-90422185D01*
X145542000Y-90518947D01*
X145493619Y-90664090D01*
X145493619Y-90760852D01*
X145542000Y-90905995D01*
X145590380Y-90954376D01*
X146509619Y-91389804D02*
X145493619Y-91389804D01*
X146509619Y-91970376D02*
X145929047Y-91534947D01*
X145493619Y-91970376D02*
X146074190Y-91389804D01*
X146896666Y-93470185D02*
X146848285Y-93421804D01*
X146703142Y-93325042D01*
X146606380Y-93276661D01*
X146461238Y-93228280D01*
X146219333Y-93179900D01*
X146025809Y-93179900D01*
X145783904Y-93228280D01*
X145638761Y-93276661D01*
X145542000Y-93325042D01*
X145396857Y-93421804D01*
X145348476Y-93470185D01*
X146509619Y-93857233D02*
X145493619Y-93857233D01*
X145493619Y-94244280D01*
X145542000Y-94341042D01*
X145590380Y-94389423D01*
X145687142Y-94437804D01*
X145832285Y-94437804D01*
X145929047Y-94389423D01*
X145977428Y-94341042D01*
X146025809Y-94244280D01*
X146025809Y-93857233D01*
X145977428Y-95211900D02*
X146025809Y-95357042D01*
X146074190Y-95405423D01*
X146170952Y-95453804D01*
X146316095Y-95453804D01*
X146412857Y-95405423D01*
X146461238Y-95357042D01*
X146509619Y-95260280D01*
X146509619Y-94873233D01*
X145493619Y-94873233D01*
X145493619Y-95211900D01*
X145542000Y-95308661D01*
X145590380Y-95357042D01*
X145687142Y-95405423D01*
X145783904Y-95405423D01*
X145880666Y-95357042D01*
X145929047Y-95308661D01*
X145977428Y-95211900D01*
X145977428Y-94873233D01*
X146509619Y-96421423D02*
X146509619Y-95840852D01*
X146509619Y-96131138D02*
X145493619Y-96131138D01*
X145638761Y-96034376D01*
X145735523Y-95937614D01*
X145783904Y-95840852D01*
X145493619Y-96760090D02*
X145493619Y-97389042D01*
X145880666Y-97050376D01*
X145880666Y-97195519D01*
X145929047Y-97292280D01*
X145977428Y-97340661D01*
X146074190Y-97389042D01*
X146316095Y-97389042D01*
X146412857Y-97340661D01*
X146461238Y-97292280D01*
X146509619Y-97195519D01*
X146509619Y-96905233D01*
X146461238Y-96808471D01*
X146412857Y-96760090D01*
X146896666Y-97727709D02*
X146848285Y-97776090D01*
X146703142Y-97872852D01*
X146606380Y-97921233D01*
X146461238Y-97969614D01*
X146219333Y-98017995D01*
X146025809Y-98017995D01*
X145783904Y-97969614D01*
X145638761Y-97921233D01*
X145542000Y-97872852D01*
X145396857Y-97776090D01*
X145348476Y-97727709D01*
X143969619Y-96421423D02*
X142953619Y-96421423D01*
X143969619Y-97001995D01*
X142953619Y-97001995D01*
X143872857Y-98066376D02*
X143921238Y-98017995D01*
X143969619Y-97872852D01*
X143969619Y-97776090D01*
X143921238Y-97630947D01*
X143824476Y-97534185D01*
X143727714Y-97485804D01*
X143534190Y-97437423D01*
X143389047Y-97437423D01*
X143195523Y-97485804D01*
X143098761Y-97534185D01*
X143002000Y-97630947D01*
X142953619Y-97776090D01*
X142953619Y-97872852D01*
X143002000Y-98017995D01*
X143050380Y-98066376D01*
X141429619Y-96421423D02*
X140413619Y-96421423D01*
X141429619Y-97001995D01*
X140413619Y-97001995D01*
X141332857Y-98066376D02*
X141381238Y-98017995D01*
X141429619Y-97872852D01*
X141429619Y-97776090D01*
X141381238Y-97630947D01*
X141284476Y-97534185D01*
X141187714Y-97485804D01*
X140994190Y-97437423D01*
X140849047Y-97437423D01*
X140655523Y-97485804D01*
X140558761Y-97534185D01*
X140462000Y-97630947D01*
X140413619Y-97776090D01*
X140413619Y-97872852D01*
X140462000Y-98017995D01*
X140510380Y-98066376D01*
X138889619Y-96421423D02*
X137873619Y-96421423D01*
X138889619Y-97001995D01*
X137873619Y-97001995D01*
X138792857Y-98066376D02*
X138841238Y-98017995D01*
X138889619Y-97872852D01*
X138889619Y-97776090D01*
X138841238Y-97630947D01*
X138744476Y-97534185D01*
X138647714Y-97485804D01*
X138454190Y-97437423D01*
X138309047Y-97437423D01*
X138115523Y-97485804D01*
X138018761Y-97534185D01*
X137922000Y-97630947D01*
X137873619Y-97776090D01*
X137873619Y-97872852D01*
X137922000Y-98017995D01*
X137970380Y-98066376D01*
X136059333Y-91631709D02*
X136059333Y-92115519D01*
X136349619Y-91534947D02*
X135333619Y-91873614D01*
X136349619Y-92212280D01*
X135430380Y-92502566D02*
X135382000Y-92550947D01*
X135333619Y-92647709D01*
X135333619Y-92889614D01*
X135382000Y-92986376D01*
X135430380Y-93034757D01*
X135527142Y-93083138D01*
X135623904Y-93083138D01*
X135769047Y-93034757D01*
X136349619Y-92454185D01*
X136349619Y-93083138D01*
X136736666Y-94582947D02*
X136688285Y-94534566D01*
X136543142Y-94437804D01*
X136446380Y-94389423D01*
X136301238Y-94341042D01*
X136059333Y-94292661D01*
X135865809Y-94292661D01*
X135623904Y-94341042D01*
X135478761Y-94389423D01*
X135382000Y-94437804D01*
X135236857Y-94534566D01*
X135188476Y-94582947D01*
X136349619Y-94969995D02*
X135333619Y-94969995D01*
X135333619Y-95357042D01*
X135382000Y-95453804D01*
X135430380Y-95502185D01*
X135527142Y-95550566D01*
X135672285Y-95550566D01*
X135769047Y-95502185D01*
X135817428Y-95453804D01*
X135865809Y-95357042D01*
X135865809Y-94969995D01*
X136059333Y-95937614D02*
X136059333Y-96421423D01*
X136349619Y-95840852D02*
X135333619Y-96179519D01*
X136349619Y-96518185D01*
X135333619Y-96760090D02*
X135333619Y-97437423D01*
X136349619Y-97001995D01*
X136736666Y-97727709D02*
X136688285Y-97776090D01*
X136543142Y-97872852D01*
X136446380Y-97921233D01*
X136301238Y-97969614D01*
X136059333Y-98017995D01*
X135865809Y-98017995D01*
X135623904Y-97969614D01*
X135478761Y-97921233D01*
X135382000Y-97872852D01*
X135236857Y-97776090D01*
X135188476Y-97727709D01*
X133519333Y-91631709D02*
X133519333Y-92115519D01*
X133809619Y-91534947D02*
X132793619Y-91873614D01*
X133809619Y-92212280D01*
X133809619Y-93083138D02*
X133809619Y-92502566D01*
X133809619Y-92792852D02*
X132793619Y-92792852D01*
X132938761Y-92696090D01*
X133035523Y-92599328D01*
X133083904Y-92502566D01*
X134196666Y-94582947D02*
X134148285Y-94534566D01*
X134003142Y-94437804D01*
X133906380Y-94389423D01*
X133761238Y-94341042D01*
X133519333Y-94292661D01*
X133325809Y-94292661D01*
X133083904Y-94341042D01*
X132938761Y-94389423D01*
X132842000Y-94437804D01*
X132696857Y-94534566D01*
X132648476Y-94582947D01*
X133809619Y-94969995D02*
X132793619Y-94969995D01*
X132793619Y-95357042D01*
X132842000Y-95453804D01*
X132890380Y-95502185D01*
X132987142Y-95550566D01*
X133132285Y-95550566D01*
X133229047Y-95502185D01*
X133277428Y-95453804D01*
X133325809Y-95357042D01*
X133325809Y-94969995D01*
X133519333Y-95937614D02*
X133519333Y-96421423D01*
X133809619Y-95840852D02*
X132793619Y-96179519D01*
X133809619Y-96518185D01*
X133809619Y-97389042D02*
X133809619Y-96808471D01*
X133809619Y-97098757D02*
X132793619Y-97098757D01*
X132938761Y-97001995D01*
X133035523Y-96905233D01*
X133083904Y-96808471D01*
X134196666Y-97727709D02*
X134148285Y-97776090D01*
X134003142Y-97872852D01*
X133906380Y-97921233D01*
X133761238Y-97969614D01*
X133519333Y-98017995D01*
X133325809Y-98017995D01*
X133083904Y-97969614D01*
X132938761Y-97921233D01*
X132842000Y-97872852D01*
X132696857Y-97776090D01*
X132648476Y-97727709D01*
X130979333Y-91631709D02*
X130979333Y-92115519D01*
X131269619Y-91534947D02*
X130253619Y-91873614D01*
X131269619Y-92212280D01*
X130253619Y-92744471D02*
X130253619Y-92841233D01*
X130302000Y-92937995D01*
X130350380Y-92986376D01*
X130447142Y-93034757D01*
X130640666Y-93083138D01*
X130882571Y-93083138D01*
X131076095Y-93034757D01*
X131172857Y-92986376D01*
X131221238Y-92937995D01*
X131269619Y-92841233D01*
X131269619Y-92744471D01*
X131221238Y-92647709D01*
X131172857Y-92599328D01*
X131076095Y-92550947D01*
X130882571Y-92502566D01*
X130640666Y-92502566D01*
X130447142Y-92550947D01*
X130350380Y-92599328D01*
X130302000Y-92647709D01*
X130253619Y-92744471D01*
X131656666Y-94582947D02*
X131608285Y-94534566D01*
X131463142Y-94437804D01*
X131366380Y-94389423D01*
X131221238Y-94341042D01*
X130979333Y-94292661D01*
X130785809Y-94292661D01*
X130543904Y-94341042D01*
X130398761Y-94389423D01*
X130302000Y-94437804D01*
X130156857Y-94534566D01*
X130108476Y-94582947D01*
X131269619Y-94969995D02*
X130253619Y-94969995D01*
X130253619Y-95357042D01*
X130302000Y-95453804D01*
X130350380Y-95502185D01*
X130447142Y-95550566D01*
X130592285Y-95550566D01*
X130689047Y-95502185D01*
X130737428Y-95453804D01*
X130785809Y-95357042D01*
X130785809Y-94969995D01*
X130979333Y-95937614D02*
X130979333Y-96421423D01*
X131269619Y-95840852D02*
X130253619Y-96179519D01*
X131269619Y-96518185D01*
X130592285Y-97292280D02*
X131269619Y-97292280D01*
X130205238Y-97050376D02*
X130930952Y-96808471D01*
X130930952Y-97437423D01*
X131656666Y-97727709D02*
X131608285Y-97776090D01*
X131463142Y-97872852D01*
X131366380Y-97921233D01*
X131221238Y-97969614D01*
X130979333Y-98017995D01*
X130785809Y-98017995D01*
X130543904Y-97969614D01*
X130398761Y-97921233D01*
X130302000Y-97872852D01*
X130156857Y-97776090D01*
X130108476Y-97727709D01*
X127762000Y-95937614D02*
X127713619Y-95840852D01*
X127713619Y-95695709D01*
X127762000Y-95550566D01*
X127858761Y-95453804D01*
X127955523Y-95405423D01*
X128149047Y-95357042D01*
X128294190Y-95357042D01*
X128487714Y-95405423D01*
X128584476Y-95453804D01*
X128681238Y-95550566D01*
X128729619Y-95695709D01*
X128729619Y-95792471D01*
X128681238Y-95937614D01*
X128632857Y-95985995D01*
X128294190Y-95985995D01*
X128294190Y-95792471D01*
X128729619Y-96421423D02*
X127713619Y-96421423D01*
X128729619Y-97001995D01*
X127713619Y-97001995D01*
X128729619Y-97485804D02*
X127713619Y-97485804D01*
X127713619Y-97727709D01*
X127762000Y-97872852D01*
X127858761Y-97969614D01*
X127955523Y-98017995D01*
X128149047Y-98066376D01*
X128294190Y-98066376D01*
X128487714Y-98017995D01*
X128584476Y-97969614D01*
X128681238Y-97872852D01*
X128729619Y-97727709D01*
X128729619Y-97485804D01*
X126189619Y-96421423D02*
X125173619Y-96421423D01*
X126189619Y-97001995D01*
X125173619Y-97001995D01*
X126092857Y-98066376D02*
X126141238Y-98017995D01*
X126189619Y-97872852D01*
X126189619Y-97776090D01*
X126141238Y-97630947D01*
X126044476Y-97534185D01*
X125947714Y-97485804D01*
X125754190Y-97437423D01*
X125609047Y-97437423D01*
X125415523Y-97485804D01*
X125318761Y-97534185D01*
X125222000Y-97630947D01*
X125173619Y-97776090D01*
X125173619Y-97872852D01*
X125222000Y-98017995D01*
X125270380Y-98066376D01*
X122633619Y-95598947D02*
X122633619Y-96227900D01*
X123020666Y-95889233D01*
X123020666Y-96034376D01*
X123069047Y-96131138D01*
X123117428Y-96179519D01*
X123214190Y-96227900D01*
X123456095Y-96227900D01*
X123552857Y-96179519D01*
X123601238Y-96131138D01*
X123649619Y-96034376D01*
X123649619Y-95744090D01*
X123601238Y-95647328D01*
X123552857Y-95598947D01*
X122633619Y-96518185D02*
X123649619Y-96856852D01*
X122633619Y-97195519D01*
X122633619Y-97437423D02*
X122633619Y-98066376D01*
X123020666Y-97727709D01*
X123020666Y-97872852D01*
X123069047Y-97969614D01*
X123117428Y-98017995D01*
X123214190Y-98066376D01*
X123456095Y-98066376D01*
X123552857Y-98017995D01*
X123601238Y-97969614D01*
X123649619Y-97872852D01*
X123649619Y-97582566D01*
X123601238Y-97485804D01*
X123552857Y-97437423D01*
X121109619Y-96324661D02*
X120625809Y-95985995D01*
X121109619Y-95744090D02*
X120093619Y-95744090D01*
X120093619Y-96131138D01*
X120142000Y-96227900D01*
X120190380Y-96276280D01*
X120287142Y-96324661D01*
X120432285Y-96324661D01*
X120529047Y-96276280D01*
X120577428Y-96227900D01*
X120625809Y-96131138D01*
X120625809Y-95744090D01*
X121061238Y-96711709D02*
X121109619Y-96856852D01*
X121109619Y-97098757D01*
X121061238Y-97195519D01*
X121012857Y-97243900D01*
X120916095Y-97292280D01*
X120819333Y-97292280D01*
X120722571Y-97243900D01*
X120674190Y-97195519D01*
X120625809Y-97098757D01*
X120577428Y-96905233D01*
X120529047Y-96808471D01*
X120480666Y-96760090D01*
X120383904Y-96711709D01*
X120287142Y-96711709D01*
X120190380Y-96760090D01*
X120142000Y-96808471D01*
X120093619Y-96905233D01*
X120093619Y-97147138D01*
X120142000Y-97292280D01*
X120093619Y-97582566D02*
X120093619Y-98163138D01*
X121109619Y-97872852D02*
X120093619Y-97872852D01*
X169186376Y-79405238D02*
X169041233Y-79453619D01*
X168799328Y-79453619D01*
X168702566Y-79405238D01*
X168654185Y-79356857D01*
X168605804Y-79260095D01*
X168605804Y-79163333D01*
X168654185Y-79066571D01*
X168702566Y-79018190D01*
X168799328Y-78969809D01*
X168992852Y-78921428D01*
X169089614Y-78873047D01*
X169137995Y-78824666D01*
X169186376Y-78727904D01*
X169186376Y-78631142D01*
X169137995Y-78534380D01*
X169089614Y-78486000D01*
X168992852Y-78437619D01*
X168750947Y-78437619D01*
X168605804Y-78486000D01*
X168170376Y-79453619D02*
X168170376Y-78437619D01*
X167928471Y-78437619D01*
X167783328Y-78486000D01*
X167686566Y-78582761D01*
X167638185Y-78679523D01*
X167589804Y-78873047D01*
X167589804Y-79018190D01*
X167638185Y-79211714D01*
X167686566Y-79308476D01*
X167783328Y-79405238D01*
X167928471Y-79453619D01*
X168170376Y-79453619D01*
X167202757Y-79163333D02*
X166718947Y-79163333D01*
X167299519Y-79453619D02*
X166960852Y-78437619D01*
X166622185Y-79453619D01*
X165219138Y-79840666D02*
X165267519Y-79792285D01*
X165364280Y-79647142D01*
X165412661Y-79550380D01*
X165461042Y-79405238D01*
X165509423Y-79163333D01*
X165509423Y-78969809D01*
X165461042Y-78727904D01*
X165412661Y-78582761D01*
X165364280Y-78486000D01*
X165267519Y-78340857D01*
X165219138Y-78292476D01*
X164832090Y-79453619D02*
X164832090Y-78437619D01*
X164445042Y-78437619D01*
X164348280Y-78486000D01*
X164299900Y-78534380D01*
X164251519Y-78631142D01*
X164251519Y-78776285D01*
X164299900Y-78873047D01*
X164348280Y-78921428D01*
X164445042Y-78969809D01*
X164832090Y-78969809D01*
X163477423Y-78921428D02*
X163332280Y-78969809D01*
X163283900Y-79018190D01*
X163235519Y-79114952D01*
X163235519Y-79260095D01*
X163283900Y-79356857D01*
X163332280Y-79405238D01*
X163429042Y-79453619D01*
X163816090Y-79453619D01*
X163816090Y-78437619D01*
X163477423Y-78437619D01*
X163380661Y-78486000D01*
X163332280Y-78534380D01*
X163283900Y-78631142D01*
X163283900Y-78727904D01*
X163332280Y-78824666D01*
X163380661Y-78873047D01*
X163477423Y-78921428D01*
X163816090Y-78921428D01*
X162267900Y-79453619D02*
X162848471Y-79453619D01*
X162558185Y-79453619D02*
X162558185Y-78437619D01*
X162654947Y-78582761D01*
X162751709Y-78679523D01*
X162848471Y-78727904D01*
X161300280Y-79453619D02*
X161880852Y-79453619D01*
X161590566Y-79453619D02*
X161590566Y-78437619D01*
X161687328Y-78582761D01*
X161784090Y-78679523D01*
X161880852Y-78727904D01*
X160961614Y-79840666D02*
X160913233Y-79792285D01*
X160816471Y-79647142D01*
X160768090Y-79550380D01*
X160719709Y-79405238D01*
X160671328Y-79163333D01*
X160671328Y-78969809D01*
X160719709Y-78727904D01*
X160768090Y-78582761D01*
X160816471Y-78486000D01*
X160913233Y-78340857D01*
X160961614Y-78292476D01*
X155859238Y-80368623D02*
X155907619Y-80513766D01*
X155907619Y-80755671D01*
X155859238Y-80852433D01*
X155810857Y-80900814D01*
X155714095Y-80949195D01*
X155617333Y-80949195D01*
X155520571Y-80900814D01*
X155472190Y-80852433D01*
X155423809Y-80755671D01*
X155375428Y-80562147D01*
X155327047Y-80465385D01*
X155278666Y-80417004D01*
X155181904Y-80368623D01*
X155085142Y-80368623D01*
X154988380Y-80417004D01*
X154940000Y-80465385D01*
X154891619Y-80562147D01*
X154891619Y-80804052D01*
X154940000Y-80949195D01*
X155810857Y-81965195D02*
X155859238Y-81916814D01*
X155907619Y-81771671D01*
X155907619Y-81674909D01*
X155859238Y-81529766D01*
X155762476Y-81433004D01*
X155665714Y-81384623D01*
X155472190Y-81336242D01*
X155327047Y-81336242D01*
X155133523Y-81384623D01*
X155036761Y-81433004D01*
X154940000Y-81529766D01*
X154891619Y-81674909D01*
X154891619Y-81771671D01*
X154940000Y-81916814D01*
X154988380Y-81965195D01*
X155907619Y-82884433D02*
X155907619Y-82400623D01*
X154891619Y-82400623D01*
X156294666Y-84287480D02*
X156246285Y-84239100D01*
X156101142Y-84142338D01*
X156004380Y-84093957D01*
X155859238Y-84045576D01*
X155617333Y-83997195D01*
X155423809Y-83997195D01*
X155181904Y-84045576D01*
X155036761Y-84093957D01*
X154940000Y-84142338D01*
X154794857Y-84239100D01*
X154746476Y-84287480D01*
X155907619Y-84674528D02*
X154891619Y-84674528D01*
X154891619Y-85061576D01*
X154940000Y-85158338D01*
X154988380Y-85206719D01*
X155085142Y-85255100D01*
X155230285Y-85255100D01*
X155327047Y-85206719D01*
X155375428Y-85158338D01*
X155423809Y-85061576D01*
X155423809Y-84674528D01*
X155375428Y-86029195D02*
X155423809Y-86174338D01*
X155472190Y-86222719D01*
X155568952Y-86271100D01*
X155714095Y-86271100D01*
X155810857Y-86222719D01*
X155859238Y-86174338D01*
X155907619Y-86077576D01*
X155907619Y-85690528D01*
X154891619Y-85690528D01*
X154891619Y-86029195D01*
X154940000Y-86125957D01*
X154988380Y-86174338D01*
X155085142Y-86222719D01*
X155181904Y-86222719D01*
X155278666Y-86174338D01*
X155327047Y-86125957D01*
X155375428Y-86029195D01*
X155375428Y-85690528D01*
X155907619Y-87238719D02*
X155907619Y-86658147D01*
X155907619Y-86948433D02*
X154891619Y-86948433D01*
X155036761Y-86851671D01*
X155133523Y-86754909D01*
X155181904Y-86658147D01*
X154891619Y-87867671D02*
X154891619Y-87964433D01*
X154940000Y-88061195D01*
X154988380Y-88109576D01*
X155085142Y-88157957D01*
X155278666Y-88206338D01*
X155520571Y-88206338D01*
X155714095Y-88157957D01*
X155810857Y-88109576D01*
X155859238Y-88061195D01*
X155907619Y-87964433D01*
X155907619Y-87867671D01*
X155859238Y-87770909D01*
X155810857Y-87722528D01*
X155714095Y-87674147D01*
X155520571Y-87625766D01*
X155278666Y-87625766D01*
X155085142Y-87674147D01*
X154988380Y-87722528D01*
X154940000Y-87770909D01*
X154891619Y-87867671D01*
X156294666Y-88545004D02*
X156246285Y-88593385D01*
X156101142Y-88690147D01*
X156004380Y-88738528D01*
X155859238Y-88786909D01*
X155617333Y-88835290D01*
X155423809Y-88835290D01*
X155181904Y-88786909D01*
X155036761Y-88738528D01*
X154940000Y-88690147D01*
X154794857Y-88593385D01*
X154746476Y-88545004D01*
X154129619Y-80417004D02*
X153113619Y-80417004D01*
X153113619Y-80658909D01*
X153162000Y-80804052D01*
X153258761Y-80900814D01*
X153355523Y-80949195D01*
X153549047Y-80997576D01*
X153694190Y-80997576D01*
X153887714Y-80949195D01*
X153984476Y-80900814D01*
X154081238Y-80804052D01*
X154129619Y-80658909D01*
X154129619Y-80417004D01*
X153113619Y-81916814D02*
X153113619Y-81433004D01*
X153597428Y-81384623D01*
X153549047Y-81433004D01*
X153500666Y-81529766D01*
X153500666Y-81771671D01*
X153549047Y-81868433D01*
X153597428Y-81916814D01*
X153694190Y-81965195D01*
X153936095Y-81965195D01*
X154032857Y-81916814D01*
X154081238Y-81868433D01*
X154129619Y-81771671D01*
X154129619Y-81529766D01*
X154081238Y-81433004D01*
X154032857Y-81384623D01*
X154516666Y-83465004D02*
X154468285Y-83416623D01*
X154323142Y-83319861D01*
X154226380Y-83271480D01*
X154081238Y-83223100D01*
X153839333Y-83174719D01*
X153645809Y-83174719D01*
X153403904Y-83223100D01*
X153258761Y-83271480D01*
X153162000Y-83319861D01*
X153016857Y-83416623D01*
X152968476Y-83465004D01*
X154129619Y-83852052D02*
X153113619Y-83852052D01*
X153113619Y-84239100D01*
X153162000Y-84335861D01*
X153210380Y-84384242D01*
X153307142Y-84432623D01*
X153452285Y-84432623D01*
X153549047Y-84384242D01*
X153597428Y-84335861D01*
X153645809Y-84239100D01*
X153645809Y-83852052D01*
X153597428Y-85206719D02*
X153645809Y-85351861D01*
X153694190Y-85400242D01*
X153790952Y-85448623D01*
X153936095Y-85448623D01*
X154032857Y-85400242D01*
X154081238Y-85351861D01*
X154129619Y-85255100D01*
X154129619Y-84868052D01*
X153113619Y-84868052D01*
X153113619Y-85206719D01*
X153162000Y-85303480D01*
X153210380Y-85351861D01*
X153307142Y-85400242D01*
X153403904Y-85400242D01*
X153500666Y-85351861D01*
X153549047Y-85303480D01*
X153597428Y-85206719D01*
X153597428Y-84868052D01*
X153113619Y-86077576D02*
X153113619Y-86174338D01*
X153162000Y-86271100D01*
X153210380Y-86319480D01*
X153307142Y-86367861D01*
X153500666Y-86416242D01*
X153742571Y-86416242D01*
X153936095Y-86367861D01*
X154032857Y-86319480D01*
X154081238Y-86271100D01*
X154129619Y-86174338D01*
X154129619Y-86077576D01*
X154081238Y-85980814D01*
X154032857Y-85932433D01*
X153936095Y-85884052D01*
X153742571Y-85835671D01*
X153500666Y-85835671D01*
X153307142Y-85884052D01*
X153210380Y-85932433D01*
X153162000Y-85980814D01*
X153113619Y-86077576D01*
X154516666Y-86754909D02*
X154468285Y-86803290D01*
X154323142Y-86900052D01*
X154226380Y-86948433D01*
X154081238Y-86996814D01*
X153839333Y-87045195D01*
X153645809Y-87045195D01*
X153403904Y-86996814D01*
X153258761Y-86948433D01*
X153162000Y-86900052D01*
X153016857Y-86803290D01*
X152968476Y-86754909D01*
X151589619Y-80417004D02*
X150573619Y-80417004D01*
X150573619Y-80658909D01*
X150622000Y-80804052D01*
X150718761Y-80900814D01*
X150815523Y-80949195D01*
X151009047Y-80997576D01*
X151154190Y-80997576D01*
X151347714Y-80949195D01*
X151444476Y-80900814D01*
X151541238Y-80804052D01*
X151589619Y-80658909D01*
X151589619Y-80417004D01*
X150573619Y-81868433D02*
X150573619Y-81674909D01*
X150622000Y-81578147D01*
X150670380Y-81529766D01*
X150815523Y-81433004D01*
X151009047Y-81384623D01*
X151396095Y-81384623D01*
X151492857Y-81433004D01*
X151541238Y-81481385D01*
X151589619Y-81578147D01*
X151589619Y-81771671D01*
X151541238Y-81868433D01*
X151492857Y-81916814D01*
X151396095Y-81965195D01*
X151154190Y-81965195D01*
X151057428Y-81916814D01*
X151009047Y-81868433D01*
X150960666Y-81771671D01*
X150960666Y-81578147D01*
X151009047Y-81481385D01*
X151057428Y-81433004D01*
X151154190Y-81384623D01*
X151976666Y-83465004D02*
X151928285Y-83416623D01*
X151783142Y-83319861D01*
X151686380Y-83271480D01*
X151541238Y-83223100D01*
X151299333Y-83174719D01*
X151105809Y-83174719D01*
X150863904Y-83223100D01*
X150718761Y-83271480D01*
X150622000Y-83319861D01*
X150476857Y-83416623D01*
X150428476Y-83465004D01*
X151589619Y-83852052D02*
X150573619Y-83852052D01*
X150573619Y-84239100D01*
X150622000Y-84335861D01*
X150670380Y-84384242D01*
X150767142Y-84432623D01*
X150912285Y-84432623D01*
X151009047Y-84384242D01*
X151057428Y-84335861D01*
X151105809Y-84239100D01*
X151105809Y-83852052D01*
X151057428Y-85206719D02*
X151105809Y-85351861D01*
X151154190Y-85400242D01*
X151250952Y-85448623D01*
X151396095Y-85448623D01*
X151492857Y-85400242D01*
X151541238Y-85351861D01*
X151589619Y-85255100D01*
X151589619Y-84868052D01*
X150573619Y-84868052D01*
X150573619Y-85206719D01*
X150622000Y-85303480D01*
X150670380Y-85351861D01*
X150767142Y-85400242D01*
X150863904Y-85400242D01*
X150960666Y-85351861D01*
X151009047Y-85303480D01*
X151057428Y-85206719D01*
X151057428Y-84868052D01*
X151589619Y-86416242D02*
X151589619Y-85835671D01*
X151589619Y-86125957D02*
X150573619Y-86125957D01*
X150718761Y-86029195D01*
X150815523Y-85932433D01*
X150863904Y-85835671D01*
X151976666Y-86754909D02*
X151928285Y-86803290D01*
X151783142Y-86900052D01*
X151686380Y-86948433D01*
X151541238Y-86996814D01*
X151299333Y-87045195D01*
X151105809Y-87045195D01*
X150863904Y-86996814D01*
X150718761Y-86948433D01*
X150622000Y-86900052D01*
X150476857Y-86803290D01*
X150428476Y-86754909D01*
X149049619Y-80417004D02*
X148033619Y-80417004D01*
X148033619Y-80658909D01*
X148082000Y-80804052D01*
X148178761Y-80900814D01*
X148275523Y-80949195D01*
X148469047Y-80997576D01*
X148614190Y-80997576D01*
X148807714Y-80949195D01*
X148904476Y-80900814D01*
X149001238Y-80804052D01*
X149049619Y-80658909D01*
X149049619Y-80417004D01*
X149049619Y-81481385D02*
X149049619Y-81674909D01*
X149001238Y-81771671D01*
X148952857Y-81820052D01*
X148807714Y-81916814D01*
X148614190Y-81965195D01*
X148227142Y-81965195D01*
X148130380Y-81916814D01*
X148082000Y-81868433D01*
X148033619Y-81771671D01*
X148033619Y-81578147D01*
X148082000Y-81481385D01*
X148130380Y-81433004D01*
X148227142Y-81384623D01*
X148469047Y-81384623D01*
X148565809Y-81433004D01*
X148614190Y-81481385D01*
X148662571Y-81578147D01*
X148662571Y-81771671D01*
X148614190Y-81868433D01*
X148565809Y-81916814D01*
X148469047Y-81965195D01*
X149436666Y-83465004D02*
X149388285Y-83416623D01*
X149243142Y-83319861D01*
X149146380Y-83271480D01*
X149001238Y-83223100D01*
X148759333Y-83174719D01*
X148565809Y-83174719D01*
X148323904Y-83223100D01*
X148178761Y-83271480D01*
X148082000Y-83319861D01*
X147936857Y-83416623D01*
X147888476Y-83465004D01*
X149049619Y-83852052D02*
X148033619Y-83852052D01*
X148033619Y-84239100D01*
X148082000Y-84335861D01*
X148130380Y-84384242D01*
X148227142Y-84432623D01*
X148372285Y-84432623D01*
X148469047Y-84384242D01*
X148517428Y-84335861D01*
X148565809Y-84239100D01*
X148565809Y-83852052D01*
X148517428Y-85206719D02*
X148565809Y-85351861D01*
X148614190Y-85400242D01*
X148710952Y-85448623D01*
X148856095Y-85448623D01*
X148952857Y-85400242D01*
X149001238Y-85351861D01*
X149049619Y-85255100D01*
X149049619Y-84868052D01*
X148033619Y-84868052D01*
X148033619Y-85206719D01*
X148082000Y-85303480D01*
X148130380Y-85351861D01*
X148227142Y-85400242D01*
X148323904Y-85400242D01*
X148420666Y-85351861D01*
X148469047Y-85303480D01*
X148517428Y-85206719D01*
X148517428Y-84868052D01*
X148130380Y-85835671D02*
X148082000Y-85884052D01*
X148033619Y-85980814D01*
X148033619Y-86222719D01*
X148082000Y-86319480D01*
X148130380Y-86367861D01*
X148227142Y-86416242D01*
X148323904Y-86416242D01*
X148469047Y-86367861D01*
X149049619Y-85787290D01*
X149049619Y-86416242D01*
X149436666Y-86754909D02*
X149388285Y-86803290D01*
X149243142Y-86900052D01*
X149146380Y-86948433D01*
X149001238Y-86996814D01*
X148759333Y-87045195D01*
X148565809Y-87045195D01*
X148323904Y-86996814D01*
X148178761Y-86948433D01*
X148082000Y-86900052D01*
X147936857Y-86803290D01*
X147888476Y-86754909D01*
X146509619Y-80417004D02*
X145493619Y-80417004D01*
X145493619Y-80658909D01*
X145542000Y-80804052D01*
X145638761Y-80900814D01*
X145735523Y-80949195D01*
X145929047Y-80997576D01*
X146074190Y-80997576D01*
X146267714Y-80949195D01*
X146364476Y-80900814D01*
X146461238Y-80804052D01*
X146509619Y-80658909D01*
X146509619Y-80417004D01*
X146509619Y-81965195D02*
X146509619Y-81384623D01*
X146509619Y-81674909D02*
X145493619Y-81674909D01*
X145638761Y-81578147D01*
X145735523Y-81481385D01*
X145783904Y-81384623D01*
X145493619Y-82594147D02*
X145493619Y-82690909D01*
X145542000Y-82787671D01*
X145590380Y-82836052D01*
X145687142Y-82884433D01*
X145880666Y-82932814D01*
X146122571Y-82932814D01*
X146316095Y-82884433D01*
X146412857Y-82836052D01*
X146461238Y-82787671D01*
X146509619Y-82690909D01*
X146509619Y-82594147D01*
X146461238Y-82497385D01*
X146412857Y-82449004D01*
X146316095Y-82400623D01*
X146122571Y-82352242D01*
X145880666Y-82352242D01*
X145687142Y-82400623D01*
X145590380Y-82449004D01*
X145542000Y-82497385D01*
X145493619Y-82594147D01*
X146896666Y-84432623D02*
X146848285Y-84384242D01*
X146703142Y-84287480D01*
X146606380Y-84239100D01*
X146461238Y-84190719D01*
X146219333Y-84142338D01*
X146025809Y-84142338D01*
X145783904Y-84190719D01*
X145638761Y-84239100D01*
X145542000Y-84287480D01*
X145396857Y-84384242D01*
X145348476Y-84432623D01*
X146509619Y-84819671D02*
X145493619Y-84819671D01*
X145493619Y-85206719D01*
X145542000Y-85303480D01*
X145590380Y-85351861D01*
X145687142Y-85400242D01*
X145832285Y-85400242D01*
X145929047Y-85351861D01*
X145977428Y-85303480D01*
X146025809Y-85206719D01*
X146025809Y-84819671D01*
X145977428Y-86174338D02*
X146025809Y-86319480D01*
X146074190Y-86367861D01*
X146170952Y-86416242D01*
X146316095Y-86416242D01*
X146412857Y-86367861D01*
X146461238Y-86319480D01*
X146509619Y-86222719D01*
X146509619Y-85835671D01*
X145493619Y-85835671D01*
X145493619Y-86174338D01*
X145542000Y-86271100D01*
X145590380Y-86319480D01*
X145687142Y-86367861D01*
X145783904Y-86367861D01*
X145880666Y-86319480D01*
X145929047Y-86271100D01*
X145977428Y-86174338D01*
X145977428Y-85835671D01*
X145929047Y-86996814D02*
X145880666Y-86900052D01*
X145832285Y-86851671D01*
X145735523Y-86803290D01*
X145687142Y-86803290D01*
X145590380Y-86851671D01*
X145542000Y-86900052D01*
X145493619Y-86996814D01*
X145493619Y-87190338D01*
X145542000Y-87287100D01*
X145590380Y-87335480D01*
X145687142Y-87383861D01*
X145735523Y-87383861D01*
X145832285Y-87335480D01*
X145880666Y-87287100D01*
X145929047Y-87190338D01*
X145929047Y-86996814D01*
X145977428Y-86900052D01*
X146025809Y-86851671D01*
X146122571Y-86803290D01*
X146316095Y-86803290D01*
X146412857Y-86851671D01*
X146461238Y-86900052D01*
X146509619Y-86996814D01*
X146509619Y-87190338D01*
X146461238Y-87287100D01*
X146412857Y-87335480D01*
X146316095Y-87383861D01*
X146122571Y-87383861D01*
X146025809Y-87335480D01*
X145977428Y-87287100D01*
X145929047Y-87190338D01*
X146896666Y-87722528D02*
X146848285Y-87770909D01*
X146703142Y-87867671D01*
X146606380Y-87916052D01*
X146461238Y-87964433D01*
X146219333Y-88012814D01*
X146025809Y-88012814D01*
X145783904Y-87964433D01*
X145638761Y-87916052D01*
X145542000Y-87867671D01*
X145396857Y-87770909D01*
X145348476Y-87722528D01*
X143969619Y-80417004D02*
X142953619Y-80417004D01*
X143969619Y-80997576D01*
X142953619Y-80997576D01*
X143872857Y-82061957D02*
X143921238Y-82013576D01*
X143969619Y-81868433D01*
X143969619Y-81771671D01*
X143921238Y-81626528D01*
X143824476Y-81529766D01*
X143727714Y-81481385D01*
X143534190Y-81433004D01*
X143389047Y-81433004D01*
X143195523Y-81481385D01*
X143098761Y-81529766D01*
X143002000Y-81626528D01*
X142953619Y-81771671D01*
X142953619Y-81868433D01*
X143002000Y-82013576D01*
X143050380Y-82061957D01*
X141429619Y-80417004D02*
X140413619Y-80417004D01*
X141429619Y-80997576D01*
X140413619Y-80997576D01*
X141332857Y-82061957D02*
X141381238Y-82013576D01*
X141429619Y-81868433D01*
X141429619Y-81771671D01*
X141381238Y-81626528D01*
X141284476Y-81529766D01*
X141187714Y-81481385D01*
X140994190Y-81433004D01*
X140849047Y-81433004D01*
X140655523Y-81481385D01*
X140558761Y-81529766D01*
X140462000Y-81626528D01*
X140413619Y-81771671D01*
X140413619Y-81868433D01*
X140462000Y-82013576D01*
X140510380Y-82061957D01*
X138889619Y-80417004D02*
X137873619Y-80417004D01*
X138889619Y-80997576D01*
X137873619Y-80997576D01*
X138792857Y-82061957D02*
X138841238Y-82013576D01*
X138889619Y-81868433D01*
X138889619Y-81771671D01*
X138841238Y-81626528D01*
X138744476Y-81529766D01*
X138647714Y-81481385D01*
X138454190Y-81433004D01*
X138309047Y-81433004D01*
X138115523Y-81481385D01*
X138018761Y-81529766D01*
X137922000Y-81626528D01*
X137873619Y-81771671D01*
X137873619Y-81868433D01*
X137922000Y-82013576D01*
X137970380Y-82061957D01*
X133809619Y-80417004D02*
X132793619Y-80417004D01*
X133809619Y-80997576D01*
X132793619Y-80997576D01*
X133712857Y-82061957D02*
X133761238Y-82013576D01*
X133809619Y-81868433D01*
X133809619Y-81771671D01*
X133761238Y-81626528D01*
X133664476Y-81529766D01*
X133567714Y-81481385D01*
X133374190Y-81433004D01*
X133229047Y-81433004D01*
X133035523Y-81481385D01*
X132938761Y-81529766D01*
X132842000Y-81626528D01*
X132793619Y-81771671D01*
X132793619Y-81868433D01*
X132842000Y-82013576D01*
X132890380Y-82061957D01*
X135333619Y-80271861D02*
X136349619Y-80610528D01*
X135333619Y-80949195D01*
X135333619Y-81287861D02*
X136156095Y-81287861D01*
X136252857Y-81336242D01*
X136301238Y-81384623D01*
X136349619Y-81481385D01*
X136349619Y-81674909D01*
X136301238Y-81771671D01*
X136252857Y-81820052D01*
X136156095Y-81868433D01*
X135333619Y-81868433D01*
X136301238Y-82303861D02*
X136349619Y-82449004D01*
X136349619Y-82690909D01*
X136301238Y-82787671D01*
X136252857Y-82836052D01*
X136156095Y-82884433D01*
X136059333Y-82884433D01*
X135962571Y-82836052D01*
X135914190Y-82787671D01*
X135865809Y-82690909D01*
X135817428Y-82497385D01*
X135769047Y-82400623D01*
X135720666Y-82352242D01*
X135623904Y-82303861D01*
X135527142Y-82303861D01*
X135430380Y-82352242D01*
X135382000Y-82400623D01*
X135333619Y-82497385D01*
X135333619Y-82739290D01*
X135382000Y-82884433D01*
X135817428Y-83658528D02*
X135865809Y-83803671D01*
X135914190Y-83852052D01*
X136010952Y-83900433D01*
X136156095Y-83900433D01*
X136252857Y-83852052D01*
X136301238Y-83803671D01*
X136349619Y-83706909D01*
X136349619Y-83319861D01*
X135333619Y-83319861D01*
X135333619Y-83658528D01*
X135382000Y-83755290D01*
X135430380Y-83803671D01*
X135527142Y-83852052D01*
X135623904Y-83852052D01*
X135720666Y-83803671D01*
X135769047Y-83755290D01*
X135817428Y-83658528D01*
X135817428Y-83319861D01*
X130737428Y-80755671D02*
X130785809Y-80900814D01*
X130834190Y-80949195D01*
X130930952Y-80997576D01*
X131076095Y-80997576D01*
X131172857Y-80949195D01*
X131221238Y-80900814D01*
X131269619Y-80804052D01*
X131269619Y-80417004D01*
X130253619Y-80417004D01*
X130253619Y-80755671D01*
X130302000Y-80852433D01*
X130350380Y-80900814D01*
X130447142Y-80949195D01*
X130543904Y-80949195D01*
X130640666Y-80900814D01*
X130689047Y-80852433D01*
X130737428Y-80755671D01*
X130737428Y-80417004D01*
X130979333Y-81384623D02*
X130979333Y-81868433D01*
X131269619Y-81287861D02*
X130253619Y-81626528D01*
X131269619Y-81965195D01*
X130253619Y-82158719D02*
X130253619Y-82739290D01*
X131269619Y-82449004D02*
X130253619Y-82449004D01*
D13*
X172188000Y-96154000D02*
X172188000Y-82154000D01*
X172188000Y-96154000D02*
X156488000Y-96154000D01*
X172188000Y-82154000D02*
X156488000Y-82154000D01*
X156488000Y-96154000D02*
X156488000Y-82154000D01*
X171538000Y-96154000D02*
X171538000Y-97854000D01*
X169738000Y-96154000D02*
X169738000Y-97854000D01*
X169738000Y-97854000D02*
X171538000Y-97854000D01*
D14*
G36*
X131185177Y-89396533D02*
G01*
X131153798Y-89418776D01*
X131126089Y-89446485D01*
X131126089Y-89755920D01*
X131126162Y-89847799D01*
X131126505Y-89919840D01*
X131127308Y-89974780D01*
X131128759Y-90015360D01*
X131131048Y-90044317D01*
X131134364Y-90064391D01*
X131138895Y-90078321D01*
X131144831Y-90088845D01*
X131149486Y-90095100D01*
X131180217Y-90119673D01*
X131215504Y-90122341D01*
X131247755Y-90107271D01*
X131258412Y-90098374D01*
X131265536Y-90086557D01*
X131269833Y-90067526D01*
X131272009Y-90036992D01*
X131272772Y-89990662D01*
X131272845Y-89954871D01*
X131272845Y-89820045D01*
X131769556Y-89820045D01*
X131769556Y-89942700D01*
X131770069Y-89998787D01*
X131772124Y-90037333D01*
X131776492Y-90063361D01*
X131783944Y-90081897D01*
X131792953Y-90095100D01*
X131823856Y-90119604D01*
X131858804Y-90122506D01*
X131892262Y-90105089D01*
X131901396Y-90095959D01*
X131907848Y-90083855D01*
X131912103Y-90065001D01*
X131914648Y-90035620D01*
X131915971Y-89991937D01*
X131916557Y-89930175D01*
X131916625Y-89916000D01*
X131917109Y-89799631D01*
X131917359Y-89703727D01*
X131917277Y-89626177D01*
X131916769Y-89564869D01*
X131915738Y-89517690D01*
X131914087Y-89482530D01*
X131911721Y-89457276D01*
X131908543Y-89439817D01*
X131904456Y-89428041D01*
X131899366Y-89419835D01*
X131893734Y-89413645D01*
X131861872Y-89393844D01*
X131828643Y-89396533D01*
X131797265Y-89418776D01*
X131784567Y-89433126D01*
X131776474Y-89448978D01*
X131771958Y-89471554D01*
X131769994Y-89506078D01*
X131769556Y-89557776D01*
X131769556Y-89673289D01*
X131272845Y-89673289D01*
X131272845Y-89554756D01*
X131272338Y-89500148D01*
X131270302Y-89463275D01*
X131265965Y-89439307D01*
X131258553Y-89423415D01*
X131250267Y-89413645D01*
X131218406Y-89393844D01*
X131185177Y-89396533D01*
X131185177Y-89396533D01*
G37*
X131185177Y-89396533D02*
X131153798Y-89418776D01*
X131126089Y-89446485D01*
X131126089Y-89755920D01*
X131126162Y-89847799D01*
X131126505Y-89919840D01*
X131127308Y-89974780D01*
X131128759Y-90015360D01*
X131131048Y-90044317D01*
X131134364Y-90064391D01*
X131138895Y-90078321D01*
X131144831Y-90088845D01*
X131149486Y-90095100D01*
X131180217Y-90119673D01*
X131215504Y-90122341D01*
X131247755Y-90107271D01*
X131258412Y-90098374D01*
X131265536Y-90086557D01*
X131269833Y-90067526D01*
X131272009Y-90036992D01*
X131272772Y-89990662D01*
X131272845Y-89954871D01*
X131272845Y-89820045D01*
X131769556Y-89820045D01*
X131769556Y-89942700D01*
X131770069Y-89998787D01*
X131772124Y-90037333D01*
X131776492Y-90063361D01*
X131783944Y-90081897D01*
X131792953Y-90095100D01*
X131823856Y-90119604D01*
X131858804Y-90122506D01*
X131892262Y-90105089D01*
X131901396Y-90095959D01*
X131907848Y-90083855D01*
X131912103Y-90065001D01*
X131914648Y-90035620D01*
X131915971Y-89991937D01*
X131916557Y-89930175D01*
X131916625Y-89916000D01*
X131917109Y-89799631D01*
X131917359Y-89703727D01*
X131917277Y-89626177D01*
X131916769Y-89564869D01*
X131915738Y-89517690D01*
X131914087Y-89482530D01*
X131911721Y-89457276D01*
X131908543Y-89439817D01*
X131904456Y-89428041D01*
X131899366Y-89419835D01*
X131893734Y-89413645D01*
X131861872Y-89393844D01*
X131828643Y-89396533D01*
X131797265Y-89418776D01*
X131784567Y-89433126D01*
X131776474Y-89448978D01*
X131771958Y-89471554D01*
X131769994Y-89506078D01*
X131769556Y-89557776D01*
X131769556Y-89673289D01*
X131272845Y-89673289D01*
X131272845Y-89554756D01*
X131272338Y-89500148D01*
X131270302Y-89463275D01*
X131265965Y-89439307D01*
X131258553Y-89423415D01*
X131250267Y-89413645D01*
X131218406Y-89393844D01*
X131185177Y-89396533D01*
G36*
X132450935Y-89391163D02*
G01*
X132372228Y-89391542D01*
X132311137Y-89392333D01*
X132265183Y-89393670D01*
X132231886Y-89395683D01*
X132208764Y-89398506D01*
X132193338Y-89402269D01*
X132183129Y-89407105D01*
X132178187Y-89410822D01*
X132152543Y-89443358D01*
X132149441Y-89477138D01*
X132165289Y-89507826D01*
X132175652Y-89520089D01*
X132186804Y-89528450D01*
X132202965Y-89533657D01*
X132228358Y-89536457D01*
X132267202Y-89537596D01*
X132323720Y-89537821D01*
X132334820Y-89537822D01*
X132480756Y-89537822D01*
X132480756Y-89808756D01*
X132480852Y-89894154D01*
X132481289Y-89959864D01*
X132482288Y-90008774D01*
X132484072Y-90043773D01*
X132486863Y-90067749D01*
X132490883Y-90083593D01*
X132496355Y-90094191D01*
X132503334Y-90102267D01*
X132536266Y-90122112D01*
X132570646Y-90120548D01*
X132601824Y-90097906D01*
X132604114Y-90095100D01*
X132611571Y-90084492D01*
X132617253Y-90072081D01*
X132621399Y-90054850D01*
X132624250Y-90029784D01*
X132626046Y-89993867D01*
X132627028Y-89944083D01*
X132627436Y-89877417D01*
X132627511Y-89801589D01*
X132627511Y-89537822D01*
X132766873Y-89537822D01*
X132826678Y-89537418D01*
X132868082Y-89535840D01*
X132895252Y-89532547D01*
X132912354Y-89526992D01*
X132923557Y-89518631D01*
X132924917Y-89517178D01*
X132941275Y-89483939D01*
X132939828Y-89446362D01*
X132921022Y-89413645D01*
X132913750Y-89407298D01*
X132904373Y-89402266D01*
X132890391Y-89398396D01*
X132869304Y-89395537D01*
X132838611Y-89393535D01*
X132795811Y-89392239D01*
X132738405Y-89391498D01*
X132663890Y-89391158D01*
X132569767Y-89391068D01*
X132549740Y-89391067D01*
X132450935Y-89391163D01*
X132450935Y-89391163D01*
G37*
X132450935Y-89391163D02*
X132372228Y-89391542D01*
X132311137Y-89392333D01*
X132265183Y-89393670D01*
X132231886Y-89395683D01*
X132208764Y-89398506D01*
X132193338Y-89402269D01*
X132183129Y-89407105D01*
X132178187Y-89410822D01*
X132152543Y-89443358D01*
X132149441Y-89477138D01*
X132165289Y-89507826D01*
X132175652Y-89520089D01*
X132186804Y-89528450D01*
X132202965Y-89533657D01*
X132228358Y-89536457D01*
X132267202Y-89537596D01*
X132323720Y-89537821D01*
X132334820Y-89537822D01*
X132480756Y-89537822D01*
X132480756Y-89808756D01*
X132480852Y-89894154D01*
X132481289Y-89959864D01*
X132482288Y-90008774D01*
X132484072Y-90043773D01*
X132486863Y-90067749D01*
X132490883Y-90083593D01*
X132496355Y-90094191D01*
X132503334Y-90102267D01*
X132536266Y-90122112D01*
X132570646Y-90120548D01*
X132601824Y-90097906D01*
X132604114Y-90095100D01*
X132611571Y-90084492D01*
X132617253Y-90072081D01*
X132621399Y-90054850D01*
X132624250Y-90029784D01*
X132626046Y-89993867D01*
X132627028Y-89944083D01*
X132627436Y-89877417D01*
X132627511Y-89801589D01*
X132627511Y-89537822D01*
X132766873Y-89537822D01*
X132826678Y-89537418D01*
X132868082Y-89535840D01*
X132895252Y-89532547D01*
X132912354Y-89526992D01*
X132923557Y-89518631D01*
X132924917Y-89517178D01*
X132941275Y-89483939D01*
X132939828Y-89446362D01*
X132921022Y-89413645D01*
X132913750Y-89407298D01*
X132904373Y-89402266D01*
X132890391Y-89398396D01*
X132869304Y-89395537D01*
X132838611Y-89393535D01*
X132795811Y-89392239D01*
X132738405Y-89391498D01*
X132663890Y-89391158D01*
X132569767Y-89391068D01*
X132549740Y-89391067D01*
X132450935Y-89391163D01*
G36*
X133225386Y-89397877D02*
G01*
X133201673Y-89412647D01*
X133175022Y-89434227D01*
X133175022Y-89755773D01*
X133175107Y-89849830D01*
X133175471Y-89923932D01*
X133176276Y-89980704D01*
X133177687Y-90022768D01*
X133179867Y-90052748D01*
X133182979Y-90073267D01*
X133187186Y-90086949D01*
X133192652Y-90096416D01*
X133196528Y-90101082D01*
X133227966Y-90121575D01*
X133263767Y-90120739D01*
X133295127Y-90103264D01*
X133321778Y-90081684D01*
X133321778Y-89434227D01*
X133295127Y-89412647D01*
X133269406Y-89396949D01*
X133248400Y-89391067D01*
X133225386Y-89397877D01*
X133225386Y-89397877D01*
G37*
X133225386Y-89397877D02*
X133201673Y-89412647D01*
X133175022Y-89434227D01*
X133175022Y-89755773D01*
X133175107Y-89849830D01*
X133175471Y-89923932D01*
X133176276Y-89980704D01*
X133177687Y-90022768D01*
X133179867Y-90052748D01*
X133182979Y-90073267D01*
X133187186Y-90086949D01*
X133192652Y-90096416D01*
X133196528Y-90101082D01*
X133227966Y-90121575D01*
X133263767Y-90120739D01*
X133295127Y-90103264D01*
X133321778Y-90081684D01*
X133321778Y-89434227D01*
X133295127Y-89412647D01*
X133269406Y-89396949D01*
X133248400Y-89391067D01*
X133225386Y-89397877D01*
G36*
X133669335Y-89393034D02*
G01*
X133649745Y-89400035D01*
X133648990Y-89400377D01*
X133622387Y-89420678D01*
X133607730Y-89441561D01*
X133604862Y-89451352D01*
X133605004Y-89464361D01*
X133609039Y-89482895D01*
X133617854Y-89509257D01*
X133632331Y-89545752D01*
X133653355Y-89594687D01*
X133681812Y-89658365D01*
X133718585Y-89739093D01*
X133738825Y-89783216D01*
X133775375Y-89861985D01*
X133809685Y-89934423D01*
X133840448Y-89997880D01*
X133866352Y-90049708D01*
X133886090Y-90087259D01*
X133898350Y-90107884D01*
X133900776Y-90110733D01*
X133931817Y-90123302D01*
X133966879Y-90121619D01*
X133995000Y-90106332D01*
X133996146Y-90105089D01*
X134007332Y-90088154D01*
X134026096Y-90055170D01*
X134050125Y-90010380D01*
X134077103Y-89958032D01*
X134086799Y-89938742D01*
X134159986Y-89792150D01*
X134239760Y-89951393D01*
X134268233Y-90006415D01*
X134294650Y-90054132D01*
X134316852Y-90090893D01*
X134332681Y-90113044D01*
X134338046Y-90117741D01*
X134379743Y-90124102D01*
X134414151Y-90110733D01*
X134424272Y-90096446D01*
X134441786Y-90064692D01*
X134465265Y-90018597D01*
X134493280Y-89961285D01*
X134524401Y-89895880D01*
X134557201Y-89825507D01*
X134590250Y-89753291D01*
X134622119Y-89682355D01*
X134651381Y-89615825D01*
X134676605Y-89556826D01*
X134696364Y-89508481D01*
X134709228Y-89473915D01*
X134713769Y-89456253D01*
X134713723Y-89455613D01*
X134702674Y-89433388D01*
X134680590Y-89410753D01*
X134679290Y-89409768D01*
X134652147Y-89394425D01*
X134627042Y-89394574D01*
X134617632Y-89397466D01*
X134606166Y-89403718D01*
X134593990Y-89416014D01*
X134579643Y-89436908D01*
X134561664Y-89468949D01*
X134538593Y-89514688D01*
X134508970Y-89576677D01*
X134482255Y-89633898D01*
X134451520Y-89700226D01*
X134423979Y-89759874D01*
X134401062Y-89809725D01*
X134384202Y-89846664D01*
X134374827Y-89867573D01*
X134373460Y-89870845D01*
X134367311Y-89865497D01*
X134353178Y-89843109D01*
X134332943Y-89806946D01*
X134308485Y-89760277D01*
X134298752Y-89741022D01*
X134265783Y-89676004D01*
X134240357Y-89628654D01*
X134220388Y-89596219D01*
X134203790Y-89575946D01*
X134188476Y-89565082D01*
X134172360Y-89560875D01*
X134161857Y-89560400D01*
X134143330Y-89562042D01*
X134127096Y-89568831D01*
X134110965Y-89583566D01*
X134092749Y-89609044D01*
X134070261Y-89648061D01*
X134041311Y-89703414D01*
X134025338Y-89734903D01*
X133999430Y-89785087D01*
X133976833Y-89826704D01*
X133959542Y-89856242D01*
X133949550Y-89870189D01*
X133948191Y-89870770D01*
X133941739Y-89859793D01*
X133927292Y-89831290D01*
X133906297Y-89788244D01*
X133880203Y-89733638D01*
X133850454Y-89670454D01*
X133835820Y-89639071D01*
X133797750Y-89558078D01*
X133767095Y-89495756D01*
X133742263Y-89450071D01*
X133721663Y-89418989D01*
X133703702Y-89400478D01*
X133686790Y-89392504D01*
X133669335Y-89393034D01*
X133669335Y-89393034D01*
G37*
X133669335Y-89393034D02*
X133649745Y-89400035D01*
X133648990Y-89400377D01*
X133622387Y-89420678D01*
X133607730Y-89441561D01*
X133604862Y-89451352D01*
X133605004Y-89464361D01*
X133609039Y-89482895D01*
X133617854Y-89509257D01*
X133632331Y-89545752D01*
X133653355Y-89594687D01*
X133681812Y-89658365D01*
X133718585Y-89739093D01*
X133738825Y-89783216D01*
X133775375Y-89861985D01*
X133809685Y-89934423D01*
X133840448Y-89997880D01*
X133866352Y-90049708D01*
X133886090Y-90087259D01*
X133898350Y-90107884D01*
X133900776Y-90110733D01*
X133931817Y-90123302D01*
X133966879Y-90121619D01*
X133995000Y-90106332D01*
X133996146Y-90105089D01*
X134007332Y-90088154D01*
X134026096Y-90055170D01*
X134050125Y-90010380D01*
X134077103Y-89958032D01*
X134086799Y-89938742D01*
X134159986Y-89792150D01*
X134239760Y-89951393D01*
X134268233Y-90006415D01*
X134294650Y-90054132D01*
X134316852Y-90090893D01*
X134332681Y-90113044D01*
X134338046Y-90117741D01*
X134379743Y-90124102D01*
X134414151Y-90110733D01*
X134424272Y-90096446D01*
X134441786Y-90064692D01*
X134465265Y-90018597D01*
X134493280Y-89961285D01*
X134524401Y-89895880D01*
X134557201Y-89825507D01*
X134590250Y-89753291D01*
X134622119Y-89682355D01*
X134651381Y-89615825D01*
X134676605Y-89556826D01*
X134696364Y-89508481D01*
X134709228Y-89473915D01*
X134713769Y-89456253D01*
X134713723Y-89455613D01*
X134702674Y-89433388D01*
X134680590Y-89410753D01*
X134679290Y-89409768D01*
X134652147Y-89394425D01*
X134627042Y-89394574D01*
X134617632Y-89397466D01*
X134606166Y-89403718D01*
X134593990Y-89416014D01*
X134579643Y-89436908D01*
X134561664Y-89468949D01*
X134538593Y-89514688D01*
X134508970Y-89576677D01*
X134482255Y-89633898D01*
X134451520Y-89700226D01*
X134423979Y-89759874D01*
X134401062Y-89809725D01*
X134384202Y-89846664D01*
X134374827Y-89867573D01*
X134373460Y-89870845D01*
X134367311Y-89865497D01*
X134353178Y-89843109D01*
X134332943Y-89806946D01*
X134308485Y-89760277D01*
X134298752Y-89741022D01*
X134265783Y-89676004D01*
X134240357Y-89628654D01*
X134220388Y-89596219D01*
X134203790Y-89575946D01*
X134188476Y-89565082D01*
X134172360Y-89560875D01*
X134161857Y-89560400D01*
X134143330Y-89562042D01*
X134127096Y-89568831D01*
X134110965Y-89583566D01*
X134092749Y-89609044D01*
X134070261Y-89648061D01*
X134041311Y-89703414D01*
X134025338Y-89734903D01*
X133999430Y-89785087D01*
X133976833Y-89826704D01*
X133959542Y-89856242D01*
X133949550Y-89870189D01*
X133948191Y-89870770D01*
X133941739Y-89859793D01*
X133927292Y-89831290D01*
X133906297Y-89788244D01*
X133880203Y-89733638D01*
X133850454Y-89670454D01*
X133835820Y-89639071D01*
X133797750Y-89558078D01*
X133767095Y-89495756D01*
X133742263Y-89450071D01*
X133721663Y-89418989D01*
X133703702Y-89400478D01*
X133686790Y-89392504D01*
X133669335Y-89393034D01*
G36*
X136395691Y-89391275D02*
G01*
X136266712Y-89395636D01*
X136157009Y-89408861D01*
X136064774Y-89431741D01*
X135988198Y-89465070D01*
X135925473Y-89509638D01*
X135874788Y-89566236D01*
X135834337Y-89635658D01*
X135833541Y-89637351D01*
X135809399Y-89699483D01*
X135800797Y-89754509D01*
X135807769Y-89809887D01*
X135830346Y-89873073D01*
X135834628Y-89882689D01*
X135863828Y-89938966D01*
X135896644Y-89982451D01*
X135938998Y-90019417D01*
X135996810Y-90056135D01*
X136000169Y-90058052D01*
X136050496Y-90082227D01*
X136107379Y-90100282D01*
X136174473Y-90112839D01*
X136255435Y-90120522D01*
X136353918Y-90123953D01*
X136388714Y-90124251D01*
X136554406Y-90124845D01*
X136577803Y-90095100D01*
X136584743Y-90085319D01*
X136590158Y-90073897D01*
X136594235Y-90058095D01*
X136597163Y-90035175D01*
X136599133Y-90002396D01*
X136599775Y-89978089D01*
X136443156Y-89978089D01*
X136349274Y-89978089D01*
X136294336Y-89976483D01*
X136237940Y-89972255D01*
X136191655Y-89966292D01*
X136188861Y-89965790D01*
X136106652Y-89943736D01*
X136042886Y-89910600D01*
X135995548Y-89864847D01*
X135962618Y-89804939D01*
X135956892Y-89789061D01*
X135951279Y-89764333D01*
X135953709Y-89739902D01*
X135965533Y-89707400D01*
X135972660Y-89691434D01*
X135996000Y-89649006D01*
X136024120Y-89619240D01*
X136055060Y-89598511D01*
X136117034Y-89571537D01*
X136196349Y-89551998D01*
X136288747Y-89540746D01*
X136355667Y-89538270D01*
X136443156Y-89537822D01*
X136443156Y-89978089D01*
X136599775Y-89978089D01*
X136600332Y-89957021D01*
X136600950Y-89896311D01*
X136601175Y-89817526D01*
X136601200Y-89755920D01*
X136601200Y-89446485D01*
X136573491Y-89418776D01*
X136561194Y-89407544D01*
X136547897Y-89399853D01*
X136529328Y-89395040D01*
X136501214Y-89392446D01*
X136459283Y-89391410D01*
X136399263Y-89391270D01*
X136395691Y-89391275D01*
X136395691Y-89391275D01*
G37*
X136395691Y-89391275D02*
X136266712Y-89395636D01*
X136157009Y-89408861D01*
X136064774Y-89431741D01*
X135988198Y-89465070D01*
X135925473Y-89509638D01*
X135874788Y-89566236D01*
X135834337Y-89635658D01*
X135833541Y-89637351D01*
X135809399Y-89699483D01*
X135800797Y-89754509D01*
X135807769Y-89809887D01*
X135830346Y-89873073D01*
X135834628Y-89882689D01*
X135863828Y-89938966D01*
X135896644Y-89982451D01*
X135938998Y-90019417D01*
X135996810Y-90056135D01*
X136000169Y-90058052D01*
X136050496Y-90082227D01*
X136107379Y-90100282D01*
X136174473Y-90112839D01*
X136255435Y-90120522D01*
X136353918Y-90123953D01*
X136388714Y-90124251D01*
X136554406Y-90124845D01*
X136577803Y-90095100D01*
X136584743Y-90085319D01*
X136590158Y-90073897D01*
X136594235Y-90058095D01*
X136597163Y-90035175D01*
X136599133Y-90002396D01*
X136599775Y-89978089D01*
X136443156Y-89978089D01*
X136349274Y-89978089D01*
X136294336Y-89976483D01*
X136237940Y-89972255D01*
X136191655Y-89966292D01*
X136188861Y-89965790D01*
X136106652Y-89943736D01*
X136042886Y-89910600D01*
X135995548Y-89864847D01*
X135962618Y-89804939D01*
X135956892Y-89789061D01*
X135951279Y-89764333D01*
X135953709Y-89739902D01*
X135965533Y-89707400D01*
X135972660Y-89691434D01*
X135996000Y-89649006D01*
X136024120Y-89619240D01*
X136055060Y-89598511D01*
X136117034Y-89571537D01*
X136196349Y-89551998D01*
X136288747Y-89540746D01*
X136355667Y-89538270D01*
X136443156Y-89537822D01*
X136443156Y-89978089D01*
X136599775Y-89978089D01*
X136600332Y-89957021D01*
X136600950Y-89896311D01*
X136601175Y-89817526D01*
X136601200Y-89755920D01*
X136601200Y-89446485D01*
X136573491Y-89418776D01*
X136561194Y-89407544D01*
X136547897Y-89399853D01*
X136529328Y-89395040D01*
X136501214Y-89392446D01*
X136459283Y-89391410D01*
X136399263Y-89391270D01*
X136395691Y-89391275D01*
G36*
X137183657Y-89391260D02*
G01*
X137107299Y-89392174D01*
X137048783Y-89394311D01*
X137005745Y-89398175D01*
X136975817Y-89404267D01*
X136956632Y-89413090D01*
X136945824Y-89425146D01*
X136941027Y-89440939D01*
X136939873Y-89460970D01*
X136939867Y-89463335D01*
X136940869Y-89485992D01*
X136945604Y-89503503D01*
X136956667Y-89516574D01*
X136976652Y-89525913D01*
X137008154Y-89532227D01*
X137053768Y-89536222D01*
X137116087Y-89538606D01*
X137197707Y-89540086D01*
X137222723Y-89540414D01*
X137464800Y-89543467D01*
X137468186Y-89608378D01*
X137471571Y-89673289D01*
X137303424Y-89673289D01*
X137237734Y-89673531D01*
X137190828Y-89674556D01*
X137158917Y-89676811D01*
X137138209Y-89680742D01*
X137124916Y-89686798D01*
X137115245Y-89695424D01*
X137115183Y-89695493D01*
X137097644Y-89729112D01*
X137098278Y-89765448D01*
X137116686Y-89796423D01*
X137120329Y-89799607D01*
X137133259Y-89807812D01*
X137150976Y-89813521D01*
X137177430Y-89817162D01*
X137216568Y-89819167D01*
X137272338Y-89819964D01*
X137308006Y-89820045D01*
X137470445Y-89820045D01*
X137470445Y-89978089D01*
X137223839Y-89978089D01*
X137142420Y-89978231D01*
X137080590Y-89978814D01*
X137035363Y-89980068D01*
X137003752Y-89982227D01*
X136982769Y-89985523D01*
X136969427Y-89990189D01*
X136960739Y-89996457D01*
X136958550Y-89998733D01*
X136942386Y-90030280D01*
X136941203Y-90066168D01*
X136954464Y-90097285D01*
X136964957Y-90107271D01*
X136975871Y-90112769D01*
X136992783Y-90117022D01*
X137018367Y-90120180D01*
X137055299Y-90122392D01*
X137106254Y-90123806D01*
X137173906Y-90124572D01*
X137260931Y-90124838D01*
X137280606Y-90124845D01*
X137369089Y-90124787D01*
X137437773Y-90124467D01*
X137489436Y-90123667D01*
X137526855Y-90122167D01*
X137552810Y-90119749D01*
X137570078Y-90116194D01*
X137581438Y-90111282D01*
X137589668Y-90104795D01*
X137594183Y-90100138D01*
X137600979Y-90091889D01*
X137606288Y-90081669D01*
X137610294Y-90066800D01*
X137613179Y-90044602D01*
X137615126Y-90012393D01*
X137616319Y-89967496D01*
X137616939Y-89907228D01*
X137617171Y-89828911D01*
X137617200Y-89762994D01*
X137617129Y-89670628D01*
X137616792Y-89598117D01*
X137616002Y-89542737D01*
X137614574Y-89501765D01*
X137612321Y-89472478D01*
X137609057Y-89452153D01*
X137604596Y-89438066D01*
X137598752Y-89427495D01*
X137593803Y-89420811D01*
X137570406Y-89391067D01*
X137280226Y-89391067D01*
X137183657Y-89391260D01*
X137183657Y-89391260D01*
G37*
X137183657Y-89391260D02*
X137107299Y-89392174D01*
X137048783Y-89394311D01*
X137005745Y-89398175D01*
X136975817Y-89404267D01*
X136956632Y-89413090D01*
X136945824Y-89425146D01*
X136941027Y-89440939D01*
X136939873Y-89460970D01*
X136939867Y-89463335D01*
X136940869Y-89485992D01*
X136945604Y-89503503D01*
X136956667Y-89516574D01*
X136976652Y-89525913D01*
X137008154Y-89532227D01*
X137053768Y-89536222D01*
X137116087Y-89538606D01*
X137197707Y-89540086D01*
X137222723Y-89540414D01*
X137464800Y-89543467D01*
X137468186Y-89608378D01*
X137471571Y-89673289D01*
X137303424Y-89673289D01*
X137237734Y-89673531D01*
X137190828Y-89674556D01*
X137158917Y-89676811D01*
X137138209Y-89680742D01*
X137124916Y-89686798D01*
X137115245Y-89695424D01*
X137115183Y-89695493D01*
X137097644Y-89729112D01*
X137098278Y-89765448D01*
X137116686Y-89796423D01*
X137120329Y-89799607D01*
X137133259Y-89807812D01*
X137150976Y-89813521D01*
X137177430Y-89817162D01*
X137216568Y-89819167D01*
X137272338Y-89819964D01*
X137308006Y-89820045D01*
X137470445Y-89820045D01*
X137470445Y-89978089D01*
X137223839Y-89978089D01*
X137142420Y-89978231D01*
X137080590Y-89978814D01*
X137035363Y-89980068D01*
X137003752Y-89982227D01*
X136982769Y-89985523D01*
X136969427Y-89990189D01*
X136960739Y-89996457D01*
X136958550Y-89998733D01*
X136942386Y-90030280D01*
X136941203Y-90066168D01*
X136954464Y-90097285D01*
X136964957Y-90107271D01*
X136975871Y-90112769D01*
X136992783Y-90117022D01*
X137018367Y-90120180D01*
X137055299Y-90122392D01*
X137106254Y-90123806D01*
X137173906Y-90124572D01*
X137260931Y-90124838D01*
X137280606Y-90124845D01*
X137369089Y-90124787D01*
X137437773Y-90124467D01*
X137489436Y-90123667D01*
X137526855Y-90122167D01*
X137552810Y-90119749D01*
X137570078Y-90116194D01*
X137581438Y-90111282D01*
X137589668Y-90104795D01*
X137594183Y-90100138D01*
X137600979Y-90091889D01*
X137606288Y-90081669D01*
X137610294Y-90066800D01*
X137613179Y-90044602D01*
X137615126Y-90012393D01*
X137616319Y-89967496D01*
X137616939Y-89907228D01*
X137617171Y-89828911D01*
X137617200Y-89762994D01*
X137617129Y-89670628D01*
X137616792Y-89598117D01*
X137616002Y-89542737D01*
X137614574Y-89501765D01*
X137612321Y-89472478D01*
X137609057Y-89452153D01*
X137604596Y-89438066D01*
X137598752Y-89427495D01*
X137593803Y-89420811D01*
X137570406Y-89391067D01*
X137280226Y-89391067D01*
X137183657Y-89391260D01*
G36*
X138714114Y-89395448D02*
G01*
X138690548Y-89409273D01*
X138659735Y-89431881D01*
X138620078Y-89464338D01*
X138569980Y-89507708D01*
X138507843Y-89563058D01*
X138432072Y-89631451D01*
X138345334Y-89710084D01*
X138164711Y-89873878D01*
X138159067Y-89654029D01*
X138157029Y-89578351D01*
X138155063Y-89521994D01*
X138152734Y-89481706D01*
X138149606Y-89454235D01*
X138145245Y-89436329D01*
X138139216Y-89424737D01*
X138131084Y-89416208D01*
X138126772Y-89412623D01*
X138092241Y-89393670D01*
X138059383Y-89396441D01*
X138033318Y-89412633D01*
X138006667Y-89434199D01*
X138003352Y-89749151D01*
X138002435Y-89841779D01*
X138001968Y-89914544D01*
X138002113Y-89970161D01*
X138003032Y-90011342D01*
X138004887Y-90040803D01*
X138007839Y-90061255D01*
X138012050Y-90075413D01*
X138017682Y-90085991D01*
X138023927Y-90094474D01*
X138037439Y-90110207D01*
X138050883Y-90120636D01*
X138066124Y-90124639D01*
X138085026Y-90121094D01*
X138109455Y-90108879D01*
X138141273Y-90086871D01*
X138182348Y-90053949D01*
X138234542Y-90008991D01*
X138299722Y-89950875D01*
X138373556Y-89884099D01*
X138638845Y-89643458D01*
X138644489Y-89862589D01*
X138646531Y-89938128D01*
X138648502Y-89994354D01*
X138650839Y-90034524D01*
X138653981Y-90061896D01*
X138658364Y-90079728D01*
X138664424Y-90091279D01*
X138672600Y-90099807D01*
X138676784Y-90103282D01*
X138713765Y-90122372D01*
X138748708Y-90119493D01*
X138779136Y-90095100D01*
X138786097Y-90085286D01*
X138791523Y-90073826D01*
X138795603Y-90057968D01*
X138798529Y-90034963D01*
X138800492Y-90002062D01*
X138801683Y-89956516D01*
X138802292Y-89895573D01*
X138802511Y-89816486D01*
X138802534Y-89757956D01*
X138802460Y-89666407D01*
X138802113Y-89594687D01*
X138801301Y-89540045D01*
X138799833Y-89499732D01*
X138797519Y-89470998D01*
X138794167Y-89451093D01*
X138789588Y-89437268D01*
X138783589Y-89426772D01*
X138779136Y-89420811D01*
X138767850Y-89406691D01*
X138757301Y-89396029D01*
X138745893Y-89389892D01*
X138732030Y-89389343D01*
X138714114Y-89395448D01*
X138714114Y-89395448D01*
G37*
X138714114Y-89395448D02*
X138690548Y-89409273D01*
X138659735Y-89431881D01*
X138620078Y-89464338D01*
X138569980Y-89507708D01*
X138507843Y-89563058D01*
X138432072Y-89631451D01*
X138345334Y-89710084D01*
X138164711Y-89873878D01*
X138159067Y-89654029D01*
X138157029Y-89578351D01*
X138155063Y-89521994D01*
X138152734Y-89481706D01*
X138149606Y-89454235D01*
X138145245Y-89436329D01*
X138139216Y-89424737D01*
X138131084Y-89416208D01*
X138126772Y-89412623D01*
X138092241Y-89393670D01*
X138059383Y-89396441D01*
X138033318Y-89412633D01*
X138006667Y-89434199D01*
X138003352Y-89749151D01*
X138002435Y-89841779D01*
X138001968Y-89914544D01*
X138002113Y-89970161D01*
X138003032Y-90011342D01*
X138004887Y-90040803D01*
X138007839Y-90061255D01*
X138012050Y-90075413D01*
X138017682Y-90085991D01*
X138023927Y-90094474D01*
X138037439Y-90110207D01*
X138050883Y-90120636D01*
X138066124Y-90124639D01*
X138085026Y-90121094D01*
X138109455Y-90108879D01*
X138141273Y-90086871D01*
X138182348Y-90053949D01*
X138234542Y-90008991D01*
X138299722Y-89950875D01*
X138373556Y-89884099D01*
X138638845Y-89643458D01*
X138644489Y-89862589D01*
X138646531Y-89938128D01*
X138648502Y-89994354D01*
X138650839Y-90034524D01*
X138653981Y-90061896D01*
X138658364Y-90079728D01*
X138664424Y-90091279D01*
X138672600Y-90099807D01*
X138676784Y-90103282D01*
X138713765Y-90122372D01*
X138748708Y-90119493D01*
X138779136Y-90095100D01*
X138786097Y-90085286D01*
X138791523Y-90073826D01*
X138795603Y-90057968D01*
X138798529Y-90034963D01*
X138800492Y-90002062D01*
X138801683Y-89956516D01*
X138802292Y-89895573D01*
X138802511Y-89816486D01*
X138802534Y-89757956D01*
X138802460Y-89666407D01*
X138802113Y-89594687D01*
X138801301Y-89540045D01*
X138799833Y-89499732D01*
X138797519Y-89470998D01*
X138794167Y-89451093D01*
X138789588Y-89437268D01*
X138783589Y-89426772D01*
X138779136Y-89420811D01*
X138767850Y-89406691D01*
X138757301Y-89396029D01*
X138745893Y-89389892D01*
X138732030Y-89389343D01*
X138714114Y-89395448D01*
G36*
X139364081Y-89396599D02*
G01*
X139295565Y-89408095D01*
X139242943Y-89425967D01*
X139208708Y-89449499D01*
X139199379Y-89462924D01*
X139189893Y-89494148D01*
X139196277Y-89522395D01*
X139216430Y-89549182D01*
X139247745Y-89561713D01*
X139293183Y-89560696D01*
X139328326Y-89553906D01*
X139406419Y-89540971D01*
X139486226Y-89539742D01*
X139575555Y-89550241D01*
X139600229Y-89554690D01*
X139683291Y-89578108D01*
X139748273Y-89612945D01*
X139794461Y-89658604D01*
X139821145Y-89714494D01*
X139826663Y-89743388D01*
X139823051Y-89802012D01*
X139799729Y-89853879D01*
X139758824Y-89897978D01*
X139702459Y-89933299D01*
X139632760Y-89958829D01*
X139551852Y-89973559D01*
X139461860Y-89976478D01*
X139364910Y-89966575D01*
X139359436Y-89965641D01*
X139320875Y-89958459D01*
X139299494Y-89951521D01*
X139290227Y-89941227D01*
X139288006Y-89923976D01*
X139287956Y-89914841D01*
X139287956Y-89876489D01*
X139356431Y-89876489D01*
X139416900Y-89872347D01*
X139458165Y-89859147D01*
X139482175Y-89835730D01*
X139490877Y-89800936D01*
X139490983Y-89796394D01*
X139485892Y-89766654D01*
X139468433Y-89745419D01*
X139435939Y-89731366D01*
X139385743Y-89723173D01*
X139337123Y-89720161D01*
X139266456Y-89718433D01*
X139215198Y-89721070D01*
X139180239Y-89730800D01*
X139158470Y-89750353D01*
X139146780Y-89782456D01*
X139142060Y-89829838D01*
X139141200Y-89892071D01*
X139142609Y-89961535D01*
X139146848Y-90008786D01*
X139153936Y-90034012D01*
X139155311Y-90035988D01*
X139194228Y-90067508D01*
X139251286Y-90092470D01*
X139322869Y-90110340D01*
X139405358Y-90120586D01*
X139495139Y-90122673D01*
X139588592Y-90116068D01*
X139643556Y-90107956D01*
X139729766Y-90083554D01*
X139809892Y-90043662D01*
X139876977Y-89991887D01*
X139887173Y-89981539D01*
X139920302Y-89938035D01*
X139950194Y-89884118D01*
X139973357Y-89827592D01*
X139986298Y-89776259D01*
X139987858Y-89756544D01*
X139981218Y-89715419D01*
X139963568Y-89664252D01*
X139938297Y-89610394D01*
X139908789Y-89561195D01*
X139882719Y-89528334D01*
X139821765Y-89479452D01*
X139742969Y-89440545D01*
X139649157Y-89412494D01*
X139543150Y-89396179D01*
X139446000Y-89392192D01*
X139364081Y-89396599D01*
X139364081Y-89396599D01*
G37*
X139364081Y-89396599D02*
X139295565Y-89408095D01*
X139242943Y-89425967D01*
X139208708Y-89449499D01*
X139199379Y-89462924D01*
X139189893Y-89494148D01*
X139196277Y-89522395D01*
X139216430Y-89549182D01*
X139247745Y-89561713D01*
X139293183Y-89560696D01*
X139328326Y-89553906D01*
X139406419Y-89540971D01*
X139486226Y-89539742D01*
X139575555Y-89550241D01*
X139600229Y-89554690D01*
X139683291Y-89578108D01*
X139748273Y-89612945D01*
X139794461Y-89658604D01*
X139821145Y-89714494D01*
X139826663Y-89743388D01*
X139823051Y-89802012D01*
X139799729Y-89853879D01*
X139758824Y-89897978D01*
X139702459Y-89933299D01*
X139632760Y-89958829D01*
X139551852Y-89973559D01*
X139461860Y-89976478D01*
X139364910Y-89966575D01*
X139359436Y-89965641D01*
X139320875Y-89958459D01*
X139299494Y-89951521D01*
X139290227Y-89941227D01*
X139288006Y-89923976D01*
X139287956Y-89914841D01*
X139287956Y-89876489D01*
X139356431Y-89876489D01*
X139416900Y-89872347D01*
X139458165Y-89859147D01*
X139482175Y-89835730D01*
X139490877Y-89800936D01*
X139490983Y-89796394D01*
X139485892Y-89766654D01*
X139468433Y-89745419D01*
X139435939Y-89731366D01*
X139385743Y-89723173D01*
X139337123Y-89720161D01*
X139266456Y-89718433D01*
X139215198Y-89721070D01*
X139180239Y-89730800D01*
X139158470Y-89750353D01*
X139146780Y-89782456D01*
X139142060Y-89829838D01*
X139141200Y-89892071D01*
X139142609Y-89961535D01*
X139146848Y-90008786D01*
X139153936Y-90034012D01*
X139155311Y-90035988D01*
X139194228Y-90067508D01*
X139251286Y-90092470D01*
X139322869Y-90110340D01*
X139405358Y-90120586D01*
X139495139Y-90122673D01*
X139588592Y-90116068D01*
X139643556Y-90107956D01*
X139729766Y-90083554D01*
X139809892Y-90043662D01*
X139876977Y-89991887D01*
X139887173Y-89981539D01*
X139920302Y-89938035D01*
X139950194Y-89884118D01*
X139973357Y-89827592D01*
X139986298Y-89776259D01*
X139987858Y-89756544D01*
X139981218Y-89715419D01*
X139963568Y-89664252D01*
X139938297Y-89610394D01*
X139908789Y-89561195D01*
X139882719Y-89528334D01*
X139821765Y-89479452D01*
X139742969Y-89440545D01*
X139649157Y-89412494D01*
X139543150Y-89396179D01*
X139446000Y-89392192D01*
X139364081Y-89396599D01*
G36*
X140337822Y-89413645D02*
G01*
X140331242Y-89421218D01*
X140326079Y-89430987D01*
X140322164Y-89445571D01*
X140319324Y-89467585D01*
X140317387Y-89499648D01*
X140316183Y-89544375D01*
X140315539Y-89604385D01*
X140315284Y-89682294D01*
X140315245Y-89757956D01*
X140315314Y-89851802D01*
X140315638Y-89925689D01*
X140316386Y-89982232D01*
X140317732Y-90024049D01*
X140319846Y-90053757D01*
X140322900Y-90073973D01*
X140327066Y-90087314D01*
X140332516Y-90096398D01*
X140337822Y-90102267D01*
X140370826Y-90121947D01*
X140405991Y-90120181D01*
X140437455Y-90098717D01*
X140444684Y-90090337D01*
X140450334Y-90080614D01*
X140454599Y-90066861D01*
X140457673Y-90046389D01*
X140459752Y-90016512D01*
X140461030Y-89974541D01*
X140461701Y-89917789D01*
X140461959Y-89843567D01*
X140462000Y-89759537D01*
X140462000Y-89446485D01*
X140434291Y-89418776D01*
X140400137Y-89395463D01*
X140367006Y-89394623D01*
X140337822Y-89413645D01*
X140337822Y-89413645D01*
G37*
X140337822Y-89413645D02*
X140331242Y-89421218D01*
X140326079Y-89430987D01*
X140322164Y-89445571D01*
X140319324Y-89467585D01*
X140317387Y-89499648D01*
X140316183Y-89544375D01*
X140315539Y-89604385D01*
X140315284Y-89682294D01*
X140315245Y-89757956D01*
X140315314Y-89851802D01*
X140315638Y-89925689D01*
X140316386Y-89982232D01*
X140317732Y-90024049D01*
X140319846Y-90053757D01*
X140322900Y-90073973D01*
X140327066Y-90087314D01*
X140332516Y-90096398D01*
X140337822Y-90102267D01*
X140370826Y-90121947D01*
X140405991Y-90120181D01*
X140437455Y-90098717D01*
X140444684Y-90090337D01*
X140450334Y-90080614D01*
X140454599Y-90066861D01*
X140457673Y-90046389D01*
X140459752Y-90016512D01*
X140461030Y-89974541D01*
X140461701Y-89917789D01*
X140461959Y-89843567D01*
X140462000Y-89759537D01*
X140462000Y-89446485D01*
X140434291Y-89418776D01*
X140400137Y-89395463D01*
X140367006Y-89394623D01*
X140337822Y-89413645D01*
G36*
X141105703Y-89392351D02*
G01*
X141030888Y-89397581D01*
X140961306Y-89405750D01*
X140901002Y-89416550D01*
X140854020Y-89429673D01*
X140824406Y-89444813D01*
X140819860Y-89449269D01*
X140804054Y-89483850D01*
X140808847Y-89519351D01*
X140833364Y-89549725D01*
X140834534Y-89550596D01*
X140848954Y-89559954D01*
X140864008Y-89564876D01*
X140885005Y-89565473D01*
X140917257Y-89561861D01*
X140966073Y-89554154D01*
X140970000Y-89553505D01*
X141042739Y-89544569D01*
X141121217Y-89540161D01*
X141199927Y-89540119D01*
X141273361Y-89544279D01*
X141336011Y-89552479D01*
X141382370Y-89564557D01*
X141385416Y-89565771D01*
X141419048Y-89584615D01*
X141430864Y-89603685D01*
X141421614Y-89622439D01*
X141392047Y-89640337D01*
X141342911Y-89656837D01*
X141274957Y-89671396D01*
X141229645Y-89678406D01*
X141135456Y-89691889D01*
X141060544Y-89704214D01*
X141001717Y-89716449D01*
X140955785Y-89729661D01*
X140919555Y-89744917D01*
X140889838Y-89763285D01*
X140863442Y-89785831D01*
X140842230Y-89807971D01*
X140817065Y-89838819D01*
X140804681Y-89865345D01*
X140800808Y-89898026D01*
X140800667Y-89909995D01*
X140803576Y-89949712D01*
X140815202Y-89979259D01*
X140835323Y-90005486D01*
X140876216Y-90045576D01*
X140921817Y-90076149D01*
X140975513Y-90098203D01*
X141040692Y-90112735D01*
X141120744Y-90120741D01*
X141219057Y-90123218D01*
X141235289Y-90123177D01*
X141300849Y-90121818D01*
X141365866Y-90118730D01*
X141423252Y-90114356D01*
X141465922Y-90109140D01*
X141469372Y-90108541D01*
X141511796Y-90098491D01*
X141547780Y-90085796D01*
X141568150Y-90074190D01*
X141587107Y-90043572D01*
X141588427Y-90007918D01*
X141572085Y-89976144D01*
X141568429Y-89972551D01*
X141553315Y-89961876D01*
X141534415Y-89957276D01*
X141505162Y-89958059D01*
X141469651Y-89962127D01*
X141429970Y-89965762D01*
X141374345Y-89968828D01*
X141309406Y-89971053D01*
X141241785Y-89972164D01*
X141224000Y-89972237D01*
X141156128Y-89971964D01*
X141106454Y-89970646D01*
X141070610Y-89967827D01*
X141044224Y-89963050D01*
X141022926Y-89955857D01*
X141010126Y-89949867D01*
X140982000Y-89933233D01*
X140964068Y-89918168D01*
X140961447Y-89913897D01*
X140966976Y-89896263D01*
X140993260Y-89879192D01*
X141038478Y-89863458D01*
X141100808Y-89849838D01*
X141119171Y-89846804D01*
X141215090Y-89831738D01*
X141291641Y-89819146D01*
X141351780Y-89808111D01*
X141398460Y-89797720D01*
X141434637Y-89787056D01*
X141463265Y-89775205D01*
X141487298Y-89761251D01*
X141509692Y-89744281D01*
X141533402Y-89723378D01*
X141541380Y-89716049D01*
X141569353Y-89688699D01*
X141584160Y-89667029D01*
X141589952Y-89642232D01*
X141590889Y-89610983D01*
X141580575Y-89549705D01*
X141549752Y-89497640D01*
X141498595Y-89454958D01*
X141427283Y-89421825D01*
X141376400Y-89406964D01*
X141321100Y-89397366D01*
X141254853Y-89391936D01*
X141181706Y-89390367D01*
X141105703Y-89392351D01*
X141105703Y-89392351D01*
G37*
X141105703Y-89392351D02*
X141030888Y-89397581D01*
X140961306Y-89405750D01*
X140901002Y-89416550D01*
X140854020Y-89429673D01*
X140824406Y-89444813D01*
X140819860Y-89449269D01*
X140804054Y-89483850D01*
X140808847Y-89519351D01*
X140833364Y-89549725D01*
X140834534Y-89550596D01*
X140848954Y-89559954D01*
X140864008Y-89564876D01*
X140885005Y-89565473D01*
X140917257Y-89561861D01*
X140966073Y-89554154D01*
X140970000Y-89553505D01*
X141042739Y-89544569D01*
X141121217Y-89540161D01*
X141199927Y-89540119D01*
X141273361Y-89544279D01*
X141336011Y-89552479D01*
X141382370Y-89564557D01*
X141385416Y-89565771D01*
X141419048Y-89584615D01*
X141430864Y-89603685D01*
X141421614Y-89622439D01*
X141392047Y-89640337D01*
X141342911Y-89656837D01*
X141274957Y-89671396D01*
X141229645Y-89678406D01*
X141135456Y-89691889D01*
X141060544Y-89704214D01*
X141001717Y-89716449D01*
X140955785Y-89729661D01*
X140919555Y-89744917D01*
X140889838Y-89763285D01*
X140863442Y-89785831D01*
X140842230Y-89807971D01*
X140817065Y-89838819D01*
X140804681Y-89865345D01*
X140800808Y-89898026D01*
X140800667Y-89909995D01*
X140803576Y-89949712D01*
X140815202Y-89979259D01*
X140835323Y-90005486D01*
X140876216Y-90045576D01*
X140921817Y-90076149D01*
X140975513Y-90098203D01*
X141040692Y-90112735D01*
X141120744Y-90120741D01*
X141219057Y-90123218D01*
X141235289Y-90123177D01*
X141300849Y-90121818D01*
X141365866Y-90118730D01*
X141423252Y-90114356D01*
X141465922Y-90109140D01*
X141469372Y-90108541D01*
X141511796Y-90098491D01*
X141547780Y-90085796D01*
X141568150Y-90074190D01*
X141587107Y-90043572D01*
X141588427Y-90007918D01*
X141572085Y-89976144D01*
X141568429Y-89972551D01*
X141553315Y-89961876D01*
X141534415Y-89957276D01*
X141505162Y-89958059D01*
X141469651Y-89962127D01*
X141429970Y-89965762D01*
X141374345Y-89968828D01*
X141309406Y-89971053D01*
X141241785Y-89972164D01*
X141224000Y-89972237D01*
X141156128Y-89971964D01*
X141106454Y-89970646D01*
X141070610Y-89967827D01*
X141044224Y-89963050D01*
X141022926Y-89955857D01*
X141010126Y-89949867D01*
X140982000Y-89933233D01*
X140964068Y-89918168D01*
X140961447Y-89913897D01*
X140966976Y-89896263D01*
X140993260Y-89879192D01*
X141038478Y-89863458D01*
X141100808Y-89849838D01*
X141119171Y-89846804D01*
X141215090Y-89831738D01*
X141291641Y-89819146D01*
X141351780Y-89808111D01*
X141398460Y-89797720D01*
X141434637Y-89787056D01*
X141463265Y-89775205D01*
X141487298Y-89761251D01*
X141509692Y-89744281D01*
X141533402Y-89723378D01*
X141541380Y-89716049D01*
X141569353Y-89688699D01*
X141584160Y-89667029D01*
X141589952Y-89642232D01*
X141590889Y-89610983D01*
X141580575Y-89549705D01*
X141549752Y-89497640D01*
X141498595Y-89454958D01*
X141427283Y-89421825D01*
X141376400Y-89406964D01*
X141321100Y-89397366D01*
X141254853Y-89391936D01*
X141181706Y-89390367D01*
X141105703Y-89392351D01*
G36*
X142126794Y-89391146D02*
G01*
X142057386Y-89391518D01*
X142004997Y-89392385D01*
X141966847Y-89393946D01*
X141940159Y-89396403D01*
X141922153Y-89399957D01*
X141910049Y-89404810D01*
X141901069Y-89411161D01*
X141897818Y-89414084D01*
X141878043Y-89445142D01*
X141874482Y-89480828D01*
X141887491Y-89512510D01*
X141893506Y-89518913D01*
X141903235Y-89525121D01*
X141918901Y-89529910D01*
X141943408Y-89533514D01*
X141979661Y-89536164D01*
X142030565Y-89538095D01*
X142099026Y-89539539D01*
X142161617Y-89540418D01*
X142409334Y-89543467D01*
X142412719Y-89608378D01*
X142416105Y-89673289D01*
X142247958Y-89673289D01*
X142174959Y-89673919D01*
X142121517Y-89676553D01*
X142084628Y-89682309D01*
X142061288Y-89692304D01*
X142048494Y-89707656D01*
X142043242Y-89729482D01*
X142042445Y-89749738D01*
X142044923Y-89774592D01*
X142054277Y-89792906D01*
X142073383Y-89805637D01*
X142105118Y-89813741D01*
X142152359Y-89818176D01*
X142217983Y-89819899D01*
X142253801Y-89820045D01*
X142414978Y-89820045D01*
X142414978Y-89978089D01*
X142166622Y-89978089D01*
X142085213Y-89978202D01*
X142023342Y-89978712D01*
X141977968Y-89979870D01*
X141946054Y-89981930D01*
X141924559Y-89985146D01*
X141910443Y-89989772D01*
X141900668Y-89996059D01*
X141895689Y-90000667D01*
X141878610Y-90027560D01*
X141873111Y-90051467D01*
X141880963Y-90080667D01*
X141895689Y-90102267D01*
X141903546Y-90109066D01*
X141913688Y-90114346D01*
X141928844Y-90118298D01*
X141951741Y-90121113D01*
X141985109Y-90122982D01*
X142031675Y-90124098D01*
X142094167Y-90124651D01*
X142175314Y-90124833D01*
X142217422Y-90124845D01*
X142307598Y-90124765D01*
X142377924Y-90124398D01*
X142431129Y-90123552D01*
X142469940Y-90122036D01*
X142497087Y-90119659D01*
X142515298Y-90116229D01*
X142527300Y-90111554D01*
X142535822Y-90105444D01*
X142539156Y-90102267D01*
X142545755Y-90094670D01*
X142550927Y-90084870D01*
X142554846Y-90070239D01*
X142557684Y-90048152D01*
X142559615Y-90015982D01*
X142560812Y-89971103D01*
X142561448Y-89910889D01*
X142561697Y-89832713D01*
X142561734Y-89759923D01*
X142561700Y-89666707D01*
X142561465Y-89593431D01*
X142560830Y-89537458D01*
X142559594Y-89496151D01*
X142557556Y-89466872D01*
X142554517Y-89446984D01*
X142550277Y-89433850D01*
X142544635Y-89424832D01*
X142537391Y-89417293D01*
X142535606Y-89415612D01*
X142526945Y-89408172D01*
X142516882Y-89402409D01*
X142502625Y-89398112D01*
X142481383Y-89395064D01*
X142450364Y-89393051D01*
X142406777Y-89391860D01*
X142347831Y-89391275D01*
X142270734Y-89391083D01*
X142216001Y-89391067D01*
X142126794Y-89391146D01*
X142126794Y-89391146D01*
G37*
X142126794Y-89391146D02*
X142057386Y-89391518D01*
X142004997Y-89392385D01*
X141966847Y-89393946D01*
X141940159Y-89396403D01*
X141922153Y-89399957D01*
X141910049Y-89404810D01*
X141901069Y-89411161D01*
X141897818Y-89414084D01*
X141878043Y-89445142D01*
X141874482Y-89480828D01*
X141887491Y-89512510D01*
X141893506Y-89518913D01*
X141903235Y-89525121D01*
X141918901Y-89529910D01*
X141943408Y-89533514D01*
X141979661Y-89536164D01*
X142030565Y-89538095D01*
X142099026Y-89539539D01*
X142161617Y-89540418D01*
X142409334Y-89543467D01*
X142412719Y-89608378D01*
X142416105Y-89673289D01*
X142247958Y-89673289D01*
X142174959Y-89673919D01*
X142121517Y-89676553D01*
X142084628Y-89682309D01*
X142061288Y-89692304D01*
X142048494Y-89707656D01*
X142043242Y-89729482D01*
X142042445Y-89749738D01*
X142044923Y-89774592D01*
X142054277Y-89792906D01*
X142073383Y-89805637D01*
X142105118Y-89813741D01*
X142152359Y-89818176D01*
X142217983Y-89819899D01*
X142253801Y-89820045D01*
X142414978Y-89820045D01*
X142414978Y-89978089D01*
X142166622Y-89978089D01*
X142085213Y-89978202D01*
X142023342Y-89978712D01*
X141977968Y-89979870D01*
X141946054Y-89981930D01*
X141924559Y-89985146D01*
X141910443Y-89989772D01*
X141900668Y-89996059D01*
X141895689Y-90000667D01*
X141878610Y-90027560D01*
X141873111Y-90051467D01*
X141880963Y-90080667D01*
X141895689Y-90102267D01*
X141903546Y-90109066D01*
X141913688Y-90114346D01*
X141928844Y-90118298D01*
X141951741Y-90121113D01*
X141985109Y-90122982D01*
X142031675Y-90124098D01*
X142094167Y-90124651D01*
X142175314Y-90124833D01*
X142217422Y-90124845D01*
X142307598Y-90124765D01*
X142377924Y-90124398D01*
X142431129Y-90123552D01*
X142469940Y-90122036D01*
X142497087Y-90119659D01*
X142515298Y-90116229D01*
X142527300Y-90111554D01*
X142535822Y-90105444D01*
X142539156Y-90102267D01*
X142545755Y-90094670D01*
X142550927Y-90084870D01*
X142554846Y-90070239D01*
X142557684Y-90048152D01*
X142559615Y-90015982D01*
X142560812Y-89971103D01*
X142561448Y-89910889D01*
X142561697Y-89832713D01*
X142561734Y-89759923D01*
X142561700Y-89666707D01*
X142561465Y-89593431D01*
X142560830Y-89537458D01*
X142559594Y-89496151D01*
X142557556Y-89466872D01*
X142554517Y-89446984D01*
X142550277Y-89433850D01*
X142544635Y-89424832D01*
X142537391Y-89417293D01*
X142535606Y-89415612D01*
X142526945Y-89408172D01*
X142516882Y-89402409D01*
X142502625Y-89398112D01*
X142481383Y-89395064D01*
X142450364Y-89393051D01*
X142406777Y-89391860D01*
X142347831Y-89391275D01*
X142270734Y-89391083D01*
X142216001Y-89391067D01*
X142126794Y-89391146D01*
G36*
X143535371Y-89391066D02*
G01*
X143495889Y-89391467D01*
X143380200Y-89394259D01*
X143283311Y-89402550D01*
X143201919Y-89417232D01*
X143132723Y-89439193D01*
X143072420Y-89469322D01*
X143017708Y-89508510D01*
X142998167Y-89525532D01*
X142965750Y-89565363D01*
X142936520Y-89619413D01*
X142913991Y-89679323D01*
X142901679Y-89736739D01*
X142900400Y-89757956D01*
X142908417Y-89816769D01*
X142929899Y-89881013D01*
X142960999Y-89941821D01*
X142997866Y-89990330D01*
X143003854Y-89996182D01*
X143054579Y-90037321D01*
X143110125Y-90069435D01*
X143173696Y-90093365D01*
X143248494Y-90109953D01*
X143337722Y-90120041D01*
X143444582Y-90124469D01*
X143493528Y-90124845D01*
X143555762Y-90124545D01*
X143599528Y-90123292D01*
X143628931Y-90120554D01*
X143648079Y-90115801D01*
X143661077Y-90108501D01*
X143668045Y-90102267D01*
X143674626Y-90094694D01*
X143679788Y-90084924D01*
X143683703Y-90070340D01*
X143686543Y-90048326D01*
X143688480Y-90016264D01*
X143689684Y-89971536D01*
X143690328Y-89911526D01*
X143690583Y-89833617D01*
X143690622Y-89757956D01*
X143690870Y-89657041D01*
X143690817Y-89576427D01*
X143689857Y-89537822D01*
X143543867Y-89537822D01*
X143543867Y-89978089D01*
X143450734Y-89978004D01*
X143394693Y-89976396D01*
X143335999Y-89972256D01*
X143287028Y-89966464D01*
X143285538Y-89966226D01*
X143206392Y-89947090D01*
X143145002Y-89917287D01*
X143098305Y-89874878D01*
X143068635Y-89828961D01*
X143050353Y-89778026D01*
X143051771Y-89730200D01*
X143072988Y-89678933D01*
X143114489Y-89625899D01*
X143171998Y-89586600D01*
X143246750Y-89560331D01*
X143296708Y-89551035D01*
X143353416Y-89544507D01*
X143413519Y-89539782D01*
X143464639Y-89537817D01*
X143467667Y-89537808D01*
X143543867Y-89537822D01*
X143689857Y-89537822D01*
X143689260Y-89513851D01*
X143684998Y-89467055D01*
X143676830Y-89433778D01*
X143663556Y-89411759D01*
X143643974Y-89398739D01*
X143616883Y-89392457D01*
X143581082Y-89390653D01*
X143535371Y-89391066D01*
X143535371Y-89391066D01*
G37*
X143535371Y-89391066D02*
X143495889Y-89391467D01*
X143380200Y-89394259D01*
X143283311Y-89402550D01*
X143201919Y-89417232D01*
X143132723Y-89439193D01*
X143072420Y-89469322D01*
X143017708Y-89508510D01*
X142998167Y-89525532D01*
X142965750Y-89565363D01*
X142936520Y-89619413D01*
X142913991Y-89679323D01*
X142901679Y-89736739D01*
X142900400Y-89757956D01*
X142908417Y-89816769D01*
X142929899Y-89881013D01*
X142960999Y-89941821D01*
X142997866Y-89990330D01*
X143003854Y-89996182D01*
X143054579Y-90037321D01*
X143110125Y-90069435D01*
X143173696Y-90093365D01*
X143248494Y-90109953D01*
X143337722Y-90120041D01*
X143444582Y-90124469D01*
X143493528Y-90124845D01*
X143555762Y-90124545D01*
X143599528Y-90123292D01*
X143628931Y-90120554D01*
X143648079Y-90115801D01*
X143661077Y-90108501D01*
X143668045Y-90102267D01*
X143674626Y-90094694D01*
X143679788Y-90084924D01*
X143683703Y-90070340D01*
X143686543Y-90048326D01*
X143688480Y-90016264D01*
X143689684Y-89971536D01*
X143690328Y-89911526D01*
X143690583Y-89833617D01*
X143690622Y-89757956D01*
X143690870Y-89657041D01*
X143690817Y-89576427D01*
X143689857Y-89537822D01*
X143543867Y-89537822D01*
X143543867Y-89978089D01*
X143450734Y-89978004D01*
X143394693Y-89976396D01*
X143335999Y-89972256D01*
X143287028Y-89966464D01*
X143285538Y-89966226D01*
X143206392Y-89947090D01*
X143145002Y-89917287D01*
X143098305Y-89874878D01*
X143068635Y-89828961D01*
X143050353Y-89778026D01*
X143051771Y-89730200D01*
X143072988Y-89678933D01*
X143114489Y-89625899D01*
X143171998Y-89586600D01*
X143246750Y-89560331D01*
X143296708Y-89551035D01*
X143353416Y-89544507D01*
X143413519Y-89539782D01*
X143464639Y-89537817D01*
X143467667Y-89537808D01*
X143543867Y-89537822D01*
X143689857Y-89537822D01*
X143689260Y-89513851D01*
X143684998Y-89467055D01*
X143676830Y-89433778D01*
X143663556Y-89411759D01*
X143643974Y-89398739D01*
X143616883Y-89392457D01*
X143581082Y-89390653D01*
X143535371Y-89391066D01*
G36*
X139687043Y-84148571D02*
G01*
X139590768Y-84172809D01*
X139504184Y-84215641D01*
X139429373Y-84275419D01*
X139368418Y-84350494D01*
X139323399Y-84439220D01*
X139297136Y-84535530D01*
X139291286Y-84632795D01*
X139306140Y-84726654D01*
X139339840Y-84814511D01*
X139390528Y-84893770D01*
X139456345Y-84961836D01*
X139535434Y-85016112D01*
X139625934Y-85054002D01*
X139677200Y-85066426D01*
X139721698Y-85073947D01*
X139755999Y-85076919D01*
X139788960Y-85075094D01*
X139829434Y-85068225D01*
X139862531Y-85061250D01*
X139955947Y-85029741D01*
X140039619Y-84978617D01*
X140111665Y-84909429D01*
X140170200Y-84823728D01*
X140184148Y-84796489D01*
X140200586Y-84760122D01*
X140210894Y-84729582D01*
X140216460Y-84697450D01*
X140218669Y-84656307D01*
X140218948Y-84610222D01*
X140214861Y-84525865D01*
X140201446Y-84456586D01*
X140176256Y-84395961D01*
X140136846Y-84337567D01*
X140098298Y-84293302D01*
X140026406Y-84227484D01*
X139951313Y-84182053D01*
X139868562Y-84154850D01*
X139790928Y-84144576D01*
X139687043Y-84148571D01*
X139687043Y-84148571D01*
G37*
X139687043Y-84148571D02*
X139590768Y-84172809D01*
X139504184Y-84215641D01*
X139429373Y-84275419D01*
X139368418Y-84350494D01*
X139323399Y-84439220D01*
X139297136Y-84535530D01*
X139291286Y-84632795D01*
X139306140Y-84726654D01*
X139339840Y-84814511D01*
X139390528Y-84893770D01*
X139456345Y-84961836D01*
X139535434Y-85016112D01*
X139625934Y-85054002D01*
X139677200Y-85066426D01*
X139721698Y-85073947D01*
X139755999Y-85076919D01*
X139788960Y-85075094D01*
X139829434Y-85068225D01*
X139862531Y-85061250D01*
X139955947Y-85029741D01*
X140039619Y-84978617D01*
X140111665Y-84909429D01*
X140170200Y-84823728D01*
X140184148Y-84796489D01*
X140200586Y-84760122D01*
X140210894Y-84729582D01*
X140216460Y-84697450D01*
X140218669Y-84656307D01*
X140218948Y-84610222D01*
X140214861Y-84525865D01*
X140201446Y-84456586D01*
X140176256Y-84395961D01*
X140136846Y-84337567D01*
X140098298Y-84293302D01*
X140026406Y-84227484D01*
X139951313Y-84182053D01*
X139868562Y-84154850D01*
X139790928Y-84144576D01*
X139687043Y-84148571D01*
G36*
X131227493Y-86594245D02*
G01*
X131227474Y-86828662D01*
X131227448Y-87041603D01*
X131227375Y-87234168D01*
X131227218Y-87407459D01*
X131226936Y-87562576D01*
X131226491Y-87700620D01*
X131225844Y-87822692D01*
X131224955Y-87929894D01*
X131223787Y-88023326D01*
X131222299Y-88104090D01*
X131220454Y-88173286D01*
X131218211Y-88232015D01*
X131215531Y-88281379D01*
X131212377Y-88322478D01*
X131208708Y-88356413D01*
X131204487Y-88384286D01*
X131199673Y-88407198D01*
X131194227Y-88426249D01*
X131188112Y-88442540D01*
X131181288Y-88457173D01*
X131173715Y-88471249D01*
X131165355Y-88485868D01*
X131160161Y-88494974D01*
X131125896Y-88555689D01*
X131984045Y-88555689D01*
X131984045Y-88459733D01*
X131984776Y-88416370D01*
X131986728Y-88383205D01*
X131989537Y-88365424D01*
X131990779Y-88363778D01*
X132002201Y-88370662D01*
X132024916Y-88388505D01*
X132047615Y-88407879D01*
X132102200Y-88448614D01*
X132171679Y-88489617D01*
X132248730Y-88527123D01*
X132326035Y-88557364D01*
X132356887Y-88567012D01*
X132425384Y-88581578D01*
X132508236Y-88591539D01*
X132597629Y-88596583D01*
X132685752Y-88596396D01*
X132764793Y-88590666D01*
X132802489Y-88584858D01*
X132940586Y-88546797D01*
X133067887Y-88489073D01*
X133183708Y-88412211D01*
X133287363Y-88316739D01*
X133378167Y-88203179D01*
X133444969Y-88092381D01*
X133499836Y-87975625D01*
X133541837Y-87856276D01*
X133571833Y-87730283D01*
X133590689Y-87593594D01*
X133599268Y-87442158D01*
X133599994Y-87364711D01*
X133597900Y-87307934D01*
X132768783Y-87307934D01*
X132768576Y-87401002D01*
X132765663Y-87488692D01*
X132760000Y-87565772D01*
X132751545Y-87627009D01*
X132748962Y-87639350D01*
X132717160Y-87746633D01*
X132675502Y-87833658D01*
X132623637Y-87900642D01*
X132561219Y-87947805D01*
X132487900Y-87975365D01*
X132403331Y-87983541D01*
X132307165Y-87972551D01*
X132243689Y-87956829D01*
X132194546Y-87938639D01*
X132140417Y-87912791D01*
X132099756Y-87889089D01*
X132029200Y-87842721D01*
X132029200Y-86692530D01*
X132096608Y-86648962D01*
X132175133Y-86608040D01*
X132259319Y-86581389D01*
X132344443Y-86569465D01*
X132425784Y-86572722D01*
X132498620Y-86591615D01*
X132530574Y-86607184D01*
X132588499Y-86650181D01*
X132637456Y-86706953D01*
X132678610Y-86779575D01*
X132713126Y-86870121D01*
X132742167Y-86980666D01*
X132743448Y-86986533D01*
X132753619Y-87048788D01*
X132761261Y-87126594D01*
X132766330Y-87214720D01*
X132768783Y-87307934D01*
X133597900Y-87307934D01*
X133592143Y-87151895D01*
X133570198Y-86956059D01*
X133534214Y-86777332D01*
X133484241Y-86615845D01*
X133420332Y-86471726D01*
X133342538Y-86345106D01*
X133250911Y-86236115D01*
X133145503Y-86144883D01*
X133100338Y-86113932D01*
X132999389Y-86057785D01*
X132896099Y-86018174D01*
X132786011Y-85994014D01*
X132664670Y-85984219D01*
X132572164Y-85985265D01*
X132442510Y-85996231D01*
X132329916Y-86018046D01*
X132231125Y-86051714D01*
X132142879Y-86098236D01*
X132094014Y-86132448D01*
X132064647Y-86154362D01*
X132042957Y-86169333D01*
X132034747Y-86173733D01*
X132033132Y-86162904D01*
X132031841Y-86132251D01*
X132030862Y-86084526D01*
X132030183Y-86022479D01*
X132029790Y-85948862D01*
X132029670Y-85866427D01*
X132029812Y-85777925D01*
X132030203Y-85686107D01*
X132030829Y-85593724D01*
X132031680Y-85503528D01*
X132032740Y-85418271D01*
X132033999Y-85340703D01*
X132035444Y-85273576D01*
X132037062Y-85219641D01*
X132038839Y-85181650D01*
X132039331Y-85174667D01*
X132046908Y-85104251D01*
X132058469Y-85049102D01*
X132076208Y-85001981D01*
X132102318Y-84955647D01*
X132108585Y-84946067D01*
X132133017Y-84909378D01*
X131227689Y-84909378D01*
X131227493Y-86594245D01*
X131227493Y-86594245D01*
G37*
X131227493Y-86594245D02*
X131227474Y-86828662D01*
X131227448Y-87041603D01*
X131227375Y-87234168D01*
X131227218Y-87407459D01*
X131226936Y-87562576D01*
X131226491Y-87700620D01*
X131225844Y-87822692D01*
X131224955Y-87929894D01*
X131223787Y-88023326D01*
X131222299Y-88104090D01*
X131220454Y-88173286D01*
X131218211Y-88232015D01*
X131215531Y-88281379D01*
X131212377Y-88322478D01*
X131208708Y-88356413D01*
X131204487Y-88384286D01*
X131199673Y-88407198D01*
X131194227Y-88426249D01*
X131188112Y-88442540D01*
X131181288Y-88457173D01*
X131173715Y-88471249D01*
X131165355Y-88485868D01*
X131160161Y-88494974D01*
X131125896Y-88555689D01*
X131984045Y-88555689D01*
X131984045Y-88459733D01*
X131984776Y-88416370D01*
X131986728Y-88383205D01*
X131989537Y-88365424D01*
X131990779Y-88363778D01*
X132002201Y-88370662D01*
X132024916Y-88388505D01*
X132047615Y-88407879D01*
X132102200Y-88448614D01*
X132171679Y-88489617D01*
X132248730Y-88527123D01*
X132326035Y-88557364D01*
X132356887Y-88567012D01*
X132425384Y-88581578D01*
X132508236Y-88591539D01*
X132597629Y-88596583D01*
X132685752Y-88596396D01*
X132764793Y-88590666D01*
X132802489Y-88584858D01*
X132940586Y-88546797D01*
X133067887Y-88489073D01*
X133183708Y-88412211D01*
X133287363Y-88316739D01*
X133378167Y-88203179D01*
X133444969Y-88092381D01*
X133499836Y-87975625D01*
X133541837Y-87856276D01*
X133571833Y-87730283D01*
X133590689Y-87593594D01*
X133599268Y-87442158D01*
X133599994Y-87364711D01*
X133597900Y-87307934D01*
X132768783Y-87307934D01*
X132768576Y-87401002D01*
X132765663Y-87488692D01*
X132760000Y-87565772D01*
X132751545Y-87627009D01*
X132748962Y-87639350D01*
X132717160Y-87746633D01*
X132675502Y-87833658D01*
X132623637Y-87900642D01*
X132561219Y-87947805D01*
X132487900Y-87975365D01*
X132403331Y-87983541D01*
X132307165Y-87972551D01*
X132243689Y-87956829D01*
X132194546Y-87938639D01*
X132140417Y-87912791D01*
X132099756Y-87889089D01*
X132029200Y-87842721D01*
X132029200Y-86692530D01*
X132096608Y-86648962D01*
X132175133Y-86608040D01*
X132259319Y-86581389D01*
X132344443Y-86569465D01*
X132425784Y-86572722D01*
X132498620Y-86591615D01*
X132530574Y-86607184D01*
X132588499Y-86650181D01*
X132637456Y-86706953D01*
X132678610Y-86779575D01*
X132713126Y-86870121D01*
X132742167Y-86980666D01*
X132743448Y-86986533D01*
X132753619Y-87048788D01*
X132761261Y-87126594D01*
X132766330Y-87214720D01*
X132768783Y-87307934D01*
X133597900Y-87307934D01*
X133592143Y-87151895D01*
X133570198Y-86956059D01*
X133534214Y-86777332D01*
X133484241Y-86615845D01*
X133420332Y-86471726D01*
X133342538Y-86345106D01*
X133250911Y-86236115D01*
X133145503Y-86144883D01*
X133100338Y-86113932D01*
X132999389Y-86057785D01*
X132896099Y-86018174D01*
X132786011Y-85994014D01*
X132664670Y-85984219D01*
X132572164Y-85985265D01*
X132442510Y-85996231D01*
X132329916Y-86018046D01*
X132231125Y-86051714D01*
X132142879Y-86098236D01*
X132094014Y-86132448D01*
X132064647Y-86154362D01*
X132042957Y-86169333D01*
X132034747Y-86173733D01*
X132033132Y-86162904D01*
X132031841Y-86132251D01*
X132030862Y-86084526D01*
X132030183Y-86022479D01*
X132029790Y-85948862D01*
X132029670Y-85866427D01*
X132029812Y-85777925D01*
X132030203Y-85686107D01*
X132030829Y-85593724D01*
X132031680Y-85503528D01*
X132032740Y-85418271D01*
X132033999Y-85340703D01*
X132035444Y-85273576D01*
X132037062Y-85219641D01*
X132038839Y-85181650D01*
X132039331Y-85174667D01*
X132046908Y-85104251D01*
X132058469Y-85049102D01*
X132076208Y-85001981D01*
X132102318Y-84955647D01*
X132108585Y-84946067D01*
X132133017Y-84909378D01*
X131227689Y-84909378D01*
X131227493Y-86594245D01*
G36*
X134740426Y-85988552D02*
G01*
X134588508Y-86008567D01*
X134453244Y-86042202D01*
X134333761Y-86089725D01*
X134229185Y-86151405D01*
X134151576Y-86214965D01*
X134082735Y-86289099D01*
X134028994Y-86368871D01*
X133986090Y-86461091D01*
X133970616Y-86504161D01*
X133957756Y-86543142D01*
X133946554Y-86579289D01*
X133936880Y-86614434D01*
X133928604Y-86650410D01*
X133921597Y-86689050D01*
X133915728Y-86732185D01*
X133910869Y-86781649D01*
X133906890Y-86839273D01*
X133903660Y-86906891D01*
X133901051Y-86986334D01*
X133898933Y-87079436D01*
X133897176Y-87188027D01*
X133895651Y-87313942D01*
X133894228Y-87459012D01*
X133892975Y-87601778D01*
X133891649Y-87757968D01*
X133890444Y-87893239D01*
X133889234Y-88009246D01*
X133887894Y-88107645D01*
X133886300Y-88190093D01*
X133884325Y-88258246D01*
X133881844Y-88313760D01*
X133878731Y-88358292D01*
X133874862Y-88393498D01*
X133870111Y-88421034D01*
X133864352Y-88442556D01*
X133857461Y-88459722D01*
X133849311Y-88474186D01*
X133839777Y-88487606D01*
X133828734Y-88501638D01*
X133824434Y-88507071D01*
X133808614Y-88529910D01*
X133801578Y-88545463D01*
X133801556Y-88545922D01*
X133812433Y-88548121D01*
X133843418Y-88550147D01*
X133892043Y-88551942D01*
X133955837Y-88553451D01*
X134032331Y-88554616D01*
X134119056Y-88555380D01*
X134213543Y-88555686D01*
X134224450Y-88555689D01*
X134647343Y-88555689D01*
X134650605Y-88459622D01*
X134653867Y-88363556D01*
X134715956Y-88414543D01*
X134813286Y-88482057D01*
X134923187Y-88536749D01*
X135009651Y-88566978D01*
X135078722Y-88581666D01*
X135162075Y-88591659D01*
X135251841Y-88596646D01*
X135340155Y-88596313D01*
X135419149Y-88590351D01*
X135455378Y-88584638D01*
X135595397Y-88546776D01*
X135721822Y-88491932D01*
X135833740Y-88420924D01*
X135930238Y-88334568D01*
X136010400Y-88233679D01*
X136073313Y-88119076D01*
X136117688Y-87992984D01*
X136130022Y-87936401D01*
X136137632Y-87874202D01*
X136141261Y-87799363D01*
X136141755Y-87765467D01*
X136141690Y-87762282D01*
X135381752Y-87762282D01*
X135372459Y-87837333D01*
X135344272Y-87901160D01*
X135295803Y-87956798D01*
X135290746Y-87961211D01*
X135242452Y-87996037D01*
X135190743Y-88018620D01*
X135130011Y-88030540D01*
X135054648Y-88033383D01*
X135036541Y-88032978D01*
X134982722Y-88030325D01*
X134942692Y-88024909D01*
X134907676Y-88014745D01*
X134868897Y-87997850D01*
X134858255Y-87992672D01*
X134797604Y-87956844D01*
X134750785Y-87914212D01*
X134738048Y-87898973D01*
X134693378Y-87842462D01*
X134693378Y-87646586D01*
X134693914Y-87567939D01*
X134695604Y-87509988D01*
X134698572Y-87470875D01*
X134702943Y-87448741D01*
X134707028Y-87442274D01*
X134722953Y-87439111D01*
X134756736Y-87436488D01*
X134803660Y-87434655D01*
X134859007Y-87433857D01*
X134867894Y-87433842D01*
X134988670Y-87439096D01*
X135091340Y-87455263D01*
X135177894Y-87482961D01*
X135250319Y-87522808D01*
X135305249Y-87569758D01*
X135349796Y-87627645D01*
X135374520Y-87690693D01*
X135381752Y-87762282D01*
X136141690Y-87762282D01*
X136139822Y-87671712D01*
X136131478Y-87592812D01*
X136115232Y-87521590D01*
X136089595Y-87450864D01*
X136065599Y-87398493D01*
X136006980Y-87303196D01*
X135928883Y-87215170D01*
X135833685Y-87136017D01*
X135723762Y-87067340D01*
X135601490Y-87010741D01*
X135469245Y-86967821D01*
X135404578Y-86952882D01*
X135268396Y-86930777D01*
X135119951Y-86916194D01*
X134968495Y-86909813D01*
X134841936Y-86911445D01*
X134680050Y-86918224D01*
X134687470Y-86859245D01*
X134706762Y-86760092D01*
X134737896Y-86679372D01*
X134781731Y-86616466D01*
X134839129Y-86570756D01*
X134910952Y-86541622D01*
X134998059Y-86528447D01*
X135101314Y-86530611D01*
X135139289Y-86534612D01*
X135280480Y-86559780D01*
X135417293Y-86600814D01*
X135511822Y-86638815D01*
X135556982Y-86658190D01*
X135595415Y-86673760D01*
X135621766Y-86683405D01*
X135629454Y-86685452D01*
X135639198Y-86676374D01*
X135655917Y-86647405D01*
X135679768Y-86598217D01*
X135710907Y-86528484D01*
X135749493Y-86437879D01*
X135756090Y-86422089D01*
X135786147Y-86349772D01*
X135813126Y-86284425D01*
X135835864Y-86228906D01*
X135853194Y-86186072D01*
X135863952Y-86158781D01*
X135867059Y-86149942D01*
X135857060Y-86145187D01*
X135830783Y-86139910D01*
X135802511Y-86136231D01*
X135772354Y-86131474D01*
X135724567Y-86122028D01*
X135663388Y-86108820D01*
X135593054Y-86092776D01*
X135517806Y-86074820D01*
X135489245Y-86067797D01*
X135384184Y-86042209D01*
X135296520Y-86022147D01*
X135221932Y-86006969D01*
X135156097Y-85996035D01*
X135094693Y-85988704D01*
X135033398Y-85984335D01*
X134967890Y-85982287D01*
X134909872Y-85981889D01*
X134740426Y-85988552D01*
X134740426Y-85988552D01*
G37*
X134740426Y-85988552D02*
X134588508Y-86008567D01*
X134453244Y-86042202D01*
X134333761Y-86089725D01*
X134229185Y-86151405D01*
X134151576Y-86214965D01*
X134082735Y-86289099D01*
X134028994Y-86368871D01*
X133986090Y-86461091D01*
X133970616Y-86504161D01*
X133957756Y-86543142D01*
X133946554Y-86579289D01*
X133936880Y-86614434D01*
X133928604Y-86650410D01*
X133921597Y-86689050D01*
X133915728Y-86732185D01*
X133910869Y-86781649D01*
X133906890Y-86839273D01*
X133903660Y-86906891D01*
X133901051Y-86986334D01*
X133898933Y-87079436D01*
X133897176Y-87188027D01*
X133895651Y-87313942D01*
X133894228Y-87459012D01*
X133892975Y-87601778D01*
X133891649Y-87757968D01*
X133890444Y-87893239D01*
X133889234Y-88009246D01*
X133887894Y-88107645D01*
X133886300Y-88190093D01*
X133884325Y-88258246D01*
X133881844Y-88313760D01*
X133878731Y-88358292D01*
X133874862Y-88393498D01*
X133870111Y-88421034D01*
X133864352Y-88442556D01*
X133857461Y-88459722D01*
X133849311Y-88474186D01*
X133839777Y-88487606D01*
X133828734Y-88501638D01*
X133824434Y-88507071D01*
X133808614Y-88529910D01*
X133801578Y-88545463D01*
X133801556Y-88545922D01*
X133812433Y-88548121D01*
X133843418Y-88550147D01*
X133892043Y-88551942D01*
X133955837Y-88553451D01*
X134032331Y-88554616D01*
X134119056Y-88555380D01*
X134213543Y-88555686D01*
X134224450Y-88555689D01*
X134647343Y-88555689D01*
X134650605Y-88459622D01*
X134653867Y-88363556D01*
X134715956Y-88414543D01*
X134813286Y-88482057D01*
X134923187Y-88536749D01*
X135009651Y-88566978D01*
X135078722Y-88581666D01*
X135162075Y-88591659D01*
X135251841Y-88596646D01*
X135340155Y-88596313D01*
X135419149Y-88590351D01*
X135455378Y-88584638D01*
X135595397Y-88546776D01*
X135721822Y-88491932D01*
X135833740Y-88420924D01*
X135930238Y-88334568D01*
X136010400Y-88233679D01*
X136073313Y-88119076D01*
X136117688Y-87992984D01*
X136130022Y-87936401D01*
X136137632Y-87874202D01*
X136141261Y-87799363D01*
X136141755Y-87765467D01*
X136141690Y-87762282D01*
X135381752Y-87762282D01*
X135372459Y-87837333D01*
X135344272Y-87901160D01*
X135295803Y-87956798D01*
X135290746Y-87961211D01*
X135242452Y-87996037D01*
X135190743Y-88018620D01*
X135130011Y-88030540D01*
X135054648Y-88033383D01*
X135036541Y-88032978D01*
X134982722Y-88030325D01*
X134942692Y-88024909D01*
X134907676Y-88014745D01*
X134868897Y-87997850D01*
X134858255Y-87992672D01*
X134797604Y-87956844D01*
X134750785Y-87914212D01*
X134738048Y-87898973D01*
X134693378Y-87842462D01*
X134693378Y-87646586D01*
X134693914Y-87567939D01*
X134695604Y-87509988D01*
X134698572Y-87470875D01*
X134702943Y-87448741D01*
X134707028Y-87442274D01*
X134722953Y-87439111D01*
X134756736Y-87436488D01*
X134803660Y-87434655D01*
X134859007Y-87433857D01*
X134867894Y-87433842D01*
X134988670Y-87439096D01*
X135091340Y-87455263D01*
X135177894Y-87482961D01*
X135250319Y-87522808D01*
X135305249Y-87569758D01*
X135349796Y-87627645D01*
X135374520Y-87690693D01*
X135381752Y-87762282D01*
X136141690Y-87762282D01*
X136139822Y-87671712D01*
X136131478Y-87592812D01*
X136115232Y-87521590D01*
X136089595Y-87450864D01*
X136065599Y-87398493D01*
X136006980Y-87303196D01*
X135928883Y-87215170D01*
X135833685Y-87136017D01*
X135723762Y-87067340D01*
X135601490Y-87010741D01*
X135469245Y-86967821D01*
X135404578Y-86952882D01*
X135268396Y-86930777D01*
X135119951Y-86916194D01*
X134968495Y-86909813D01*
X134841936Y-86911445D01*
X134680050Y-86918224D01*
X134687470Y-86859245D01*
X134706762Y-86760092D01*
X134737896Y-86679372D01*
X134781731Y-86616466D01*
X134839129Y-86570756D01*
X134910952Y-86541622D01*
X134998059Y-86528447D01*
X135101314Y-86530611D01*
X135139289Y-86534612D01*
X135280480Y-86559780D01*
X135417293Y-86600814D01*
X135511822Y-86638815D01*
X135556982Y-86658190D01*
X135595415Y-86673760D01*
X135621766Y-86683405D01*
X135629454Y-86685452D01*
X135639198Y-86676374D01*
X135655917Y-86647405D01*
X135679768Y-86598217D01*
X135710907Y-86528484D01*
X135749493Y-86437879D01*
X135756090Y-86422089D01*
X135786147Y-86349772D01*
X135813126Y-86284425D01*
X135835864Y-86228906D01*
X135853194Y-86186072D01*
X135863952Y-86158781D01*
X135867059Y-86149942D01*
X135857060Y-86145187D01*
X135830783Y-86139910D01*
X135802511Y-86136231D01*
X135772354Y-86131474D01*
X135724567Y-86122028D01*
X135663388Y-86108820D01*
X135593054Y-86092776D01*
X135517806Y-86074820D01*
X135489245Y-86067797D01*
X135384184Y-86042209D01*
X135296520Y-86022147D01*
X135221932Y-86006969D01*
X135156097Y-85996035D01*
X135094693Y-85988704D01*
X135033398Y-85984335D01*
X134967890Y-85982287D01*
X134909872Y-85981889D01*
X134740426Y-85988552D01*
G36*
X137085571Y-85071071D02*
G01*
X136925430Y-85092245D01*
X136761490Y-85132385D01*
X136591687Y-85191889D01*
X136413957Y-85271154D01*
X136402690Y-85276699D01*
X136344995Y-85304725D01*
X136293448Y-85328802D01*
X136251809Y-85347249D01*
X136223838Y-85358386D01*
X136214267Y-85360933D01*
X136195050Y-85365941D01*
X136190439Y-85370147D01*
X136195542Y-85380580D01*
X136211582Y-85406868D01*
X136236712Y-85446257D01*
X136269086Y-85495991D01*
X136306857Y-85553315D01*
X136348178Y-85615476D01*
X136391202Y-85679718D01*
X136434083Y-85743285D01*
X136474974Y-85803425D01*
X136512029Y-85857380D01*
X136543400Y-85902397D01*
X136567241Y-85935721D01*
X136581706Y-85954597D01*
X136583691Y-85956787D01*
X136593809Y-85952138D01*
X136616150Y-85934962D01*
X136646720Y-85908440D01*
X136662464Y-85893964D01*
X136758953Y-85818682D01*
X136865664Y-85763241D01*
X136981168Y-85728141D01*
X137104038Y-85713880D01*
X137173439Y-85715051D01*
X137294577Y-85732212D01*
X137403795Y-85768094D01*
X137501418Y-85822959D01*
X137587772Y-85897070D01*
X137663185Y-85990688D01*
X137727982Y-86104076D01*
X137765399Y-86190667D01*
X137809252Y-86326366D01*
X137841572Y-86473850D01*
X137862443Y-86629314D01*
X137871949Y-86788956D01*
X137870173Y-86948973D01*
X137857197Y-87105561D01*
X137833106Y-87254918D01*
X137797982Y-87393240D01*
X137751908Y-87516724D01*
X137735627Y-87550978D01*
X137667380Y-87665064D01*
X137586921Y-87761557D01*
X137495430Y-87839670D01*
X137394089Y-87898617D01*
X137284080Y-87937612D01*
X137166585Y-87955868D01*
X137125117Y-87957211D01*
X137003559Y-87946290D01*
X136883122Y-87913474D01*
X136765334Y-87859439D01*
X136651723Y-87784865D01*
X136560315Y-87706539D01*
X136513785Y-87662008D01*
X136332517Y-87959271D01*
X136287420Y-88033433D01*
X136246181Y-88101646D01*
X136210265Y-88161459D01*
X136181134Y-88210420D01*
X136160250Y-88246079D01*
X136149076Y-88265984D01*
X136147625Y-88269079D01*
X136155854Y-88278718D01*
X136181433Y-88295999D01*
X136221127Y-88319283D01*
X136271703Y-88346934D01*
X136329926Y-88377315D01*
X136392563Y-88408790D01*
X136456379Y-88439722D01*
X136518140Y-88468473D01*
X136574612Y-88493408D01*
X136622562Y-88512889D01*
X136646014Y-88521318D01*
X136779779Y-88559133D01*
X136917673Y-88584136D01*
X137065378Y-88597140D01*
X137192167Y-88599468D01*
X137260122Y-88598373D01*
X137325723Y-88596275D01*
X137383153Y-88593434D01*
X137426597Y-88590106D01*
X137440702Y-88588422D01*
X137579716Y-88559587D01*
X137721243Y-88514468D01*
X137858725Y-88455750D01*
X137985606Y-88386120D01*
X138063111Y-88333441D01*
X138190519Y-88225239D01*
X138308822Y-88098671D01*
X138415828Y-87956866D01*
X138509348Y-87802951D01*
X138587190Y-87640053D01*
X138631044Y-87522756D01*
X138681292Y-87339128D01*
X138714791Y-87144581D01*
X138731551Y-86943325D01*
X138731584Y-86739568D01*
X138714899Y-86537521D01*
X138681507Y-86341392D01*
X138631420Y-86155391D01*
X138627603Y-86143803D01*
X138564719Y-85981750D01*
X138487972Y-85833832D01*
X138394758Y-85695865D01*
X138282473Y-85563661D01*
X138238608Y-85518399D01*
X138102466Y-85394457D01*
X137962509Y-85291915D01*
X137816589Y-85209656D01*
X137662558Y-85146564D01*
X137498268Y-85101523D01*
X137402711Y-85084033D01*
X137243977Y-85068466D01*
X137085571Y-85071071D01*
X137085571Y-85071071D01*
G37*
X137085571Y-85071071D02*
X136925430Y-85092245D01*
X136761490Y-85132385D01*
X136591687Y-85191889D01*
X136413957Y-85271154D01*
X136402690Y-85276699D01*
X136344995Y-85304725D01*
X136293448Y-85328802D01*
X136251809Y-85347249D01*
X136223838Y-85358386D01*
X136214267Y-85360933D01*
X136195050Y-85365941D01*
X136190439Y-85370147D01*
X136195542Y-85380580D01*
X136211582Y-85406868D01*
X136236712Y-85446257D01*
X136269086Y-85495991D01*
X136306857Y-85553315D01*
X136348178Y-85615476D01*
X136391202Y-85679718D01*
X136434083Y-85743285D01*
X136474974Y-85803425D01*
X136512029Y-85857380D01*
X136543400Y-85902397D01*
X136567241Y-85935721D01*
X136581706Y-85954597D01*
X136583691Y-85956787D01*
X136593809Y-85952138D01*
X136616150Y-85934962D01*
X136646720Y-85908440D01*
X136662464Y-85893964D01*
X136758953Y-85818682D01*
X136865664Y-85763241D01*
X136981168Y-85728141D01*
X137104038Y-85713880D01*
X137173439Y-85715051D01*
X137294577Y-85732212D01*
X137403795Y-85768094D01*
X137501418Y-85822959D01*
X137587772Y-85897070D01*
X137663185Y-85990688D01*
X137727982Y-86104076D01*
X137765399Y-86190667D01*
X137809252Y-86326366D01*
X137841572Y-86473850D01*
X137862443Y-86629314D01*
X137871949Y-86788956D01*
X137870173Y-86948973D01*
X137857197Y-87105561D01*
X137833106Y-87254918D01*
X137797982Y-87393240D01*
X137751908Y-87516724D01*
X137735627Y-87550978D01*
X137667380Y-87665064D01*
X137586921Y-87761557D01*
X137495430Y-87839670D01*
X137394089Y-87898617D01*
X137284080Y-87937612D01*
X137166585Y-87955868D01*
X137125117Y-87957211D01*
X137003559Y-87946290D01*
X136883122Y-87913474D01*
X136765334Y-87859439D01*
X136651723Y-87784865D01*
X136560315Y-87706539D01*
X136513785Y-87662008D01*
X136332517Y-87959271D01*
X136287420Y-88033433D01*
X136246181Y-88101646D01*
X136210265Y-88161459D01*
X136181134Y-88210420D01*
X136160250Y-88246079D01*
X136149076Y-88265984D01*
X136147625Y-88269079D01*
X136155854Y-88278718D01*
X136181433Y-88295999D01*
X136221127Y-88319283D01*
X136271703Y-88346934D01*
X136329926Y-88377315D01*
X136392563Y-88408790D01*
X136456379Y-88439722D01*
X136518140Y-88468473D01*
X136574612Y-88493408D01*
X136622562Y-88512889D01*
X136646014Y-88521318D01*
X136779779Y-88559133D01*
X136917673Y-88584136D01*
X137065378Y-88597140D01*
X137192167Y-88599468D01*
X137260122Y-88598373D01*
X137325723Y-88596275D01*
X137383153Y-88593434D01*
X137426597Y-88590106D01*
X137440702Y-88588422D01*
X137579716Y-88559587D01*
X137721243Y-88514468D01*
X137858725Y-88455750D01*
X137985606Y-88386120D01*
X138063111Y-88333441D01*
X138190519Y-88225239D01*
X138308822Y-88098671D01*
X138415828Y-87956866D01*
X138509348Y-87802951D01*
X138587190Y-87640053D01*
X138631044Y-87522756D01*
X138681292Y-87339128D01*
X138714791Y-87144581D01*
X138731551Y-86943325D01*
X138731584Y-86739568D01*
X138714899Y-86537521D01*
X138681507Y-86341392D01*
X138631420Y-86155391D01*
X138627603Y-86143803D01*
X138564719Y-85981750D01*
X138487972Y-85833832D01*
X138394758Y-85695865D01*
X138282473Y-85563661D01*
X138238608Y-85518399D01*
X138102466Y-85394457D01*
X137962509Y-85291915D01*
X137816589Y-85209656D01*
X137662558Y-85146564D01*
X137498268Y-85101523D01*
X137402711Y-85084033D01*
X137243977Y-85068466D01*
X137085571Y-85071071D01*
G36*
X140360400Y-84611054D02*
G01*
X140349535Y-84724993D01*
X140317918Y-84832616D01*
X140267015Y-84931615D01*
X140198293Y-85019684D01*
X140113219Y-85094516D01*
X140016232Y-85152384D01*
X139909964Y-85192005D01*
X139802950Y-85210573D01*
X139697300Y-85209434D01*
X139595125Y-85189930D01*
X139498534Y-85153406D01*
X139409638Y-85101205D01*
X139330546Y-85034673D01*
X139263369Y-84955152D01*
X139210217Y-84863987D01*
X139173199Y-84762523D01*
X139154427Y-84652102D01*
X139152489Y-84602206D01*
X139152489Y-84514267D01*
X139100560Y-84514267D01*
X139064253Y-84517111D01*
X139037355Y-84528911D01*
X139010249Y-84552649D01*
X138971867Y-84591031D01*
X138971867Y-86782602D01*
X138971876Y-87044739D01*
X138971908Y-87285241D01*
X138971972Y-87505048D01*
X138972076Y-87705101D01*
X138972227Y-87886344D01*
X138972434Y-88049716D01*
X138972706Y-88196160D01*
X138973050Y-88326617D01*
X138973474Y-88442029D01*
X138973987Y-88543338D01*
X138974597Y-88631484D01*
X138975312Y-88707410D01*
X138976140Y-88772057D01*
X138977089Y-88826367D01*
X138978167Y-88871280D01*
X138979383Y-88907740D01*
X138980745Y-88936687D01*
X138982261Y-88959063D01*
X138983938Y-88975809D01*
X138985786Y-88987868D01*
X138987813Y-88996180D01*
X138990025Y-89001687D01*
X138991108Y-89003537D01*
X138995271Y-89010549D01*
X138998805Y-89016996D01*
X139002635Y-89022900D01*
X139007682Y-89028286D01*
X139014871Y-89033178D01*
X139025123Y-89037598D01*
X139039364Y-89041572D01*
X139058514Y-89045121D01*
X139083499Y-89048270D01*
X139115240Y-89051042D01*
X139154662Y-89053461D01*
X139202686Y-89055551D01*
X139260237Y-89057335D01*
X139328237Y-89058837D01*
X139407610Y-89060080D01*
X139499279Y-89061089D01*
X139604166Y-89061885D01*
X139723196Y-89062494D01*
X139857290Y-89062939D01*
X140007373Y-89063243D01*
X140174367Y-89063430D01*
X140359196Y-89063524D01*
X140562783Y-89063548D01*
X140786050Y-89063525D01*
X141029922Y-89063480D01*
X141295321Y-89063437D01*
X141333704Y-89063432D01*
X141600682Y-89063389D01*
X141846002Y-89063318D01*
X142070583Y-89063213D01*
X142275345Y-89063066D01*
X142461206Y-89062869D01*
X142629088Y-89062616D01*
X142779908Y-89062300D01*
X142914587Y-89061913D01*
X143034044Y-89061447D01*
X143139199Y-89060897D01*
X143230971Y-89060253D01*
X143310279Y-89059511D01*
X143378043Y-89058661D01*
X143435182Y-89057697D01*
X143482617Y-89056611D01*
X143521266Y-89055397D01*
X143552049Y-89054047D01*
X143575885Y-89052555D01*
X143593694Y-89050911D01*
X143606395Y-89049111D01*
X143614908Y-89047145D01*
X143619266Y-89045477D01*
X143627728Y-89041906D01*
X143635497Y-89039270D01*
X143642602Y-89036634D01*
X143649073Y-89033062D01*
X143654939Y-89027621D01*
X143660229Y-89019375D01*
X143664974Y-89007390D01*
X143669202Y-88990731D01*
X143672943Y-88968463D01*
X143676227Y-88939652D01*
X143679083Y-88903363D01*
X143681540Y-88858661D01*
X143683629Y-88804611D01*
X143685378Y-88740279D01*
X143686817Y-88664730D01*
X143687976Y-88577030D01*
X143688883Y-88476243D01*
X143689569Y-88361434D01*
X143690063Y-88231670D01*
X143690395Y-88086015D01*
X143690593Y-87923535D01*
X143690687Y-87743295D01*
X143690708Y-87544360D01*
X143690685Y-87325796D01*
X143690646Y-87086668D01*
X143690622Y-86826040D01*
X143690622Y-86783889D01*
X143690636Y-86520992D01*
X143690661Y-86279732D01*
X143690671Y-86059165D01*
X143690642Y-85858352D01*
X143690548Y-85676349D01*
X143690362Y-85512216D01*
X143690059Y-85365011D01*
X143689614Y-85233792D01*
X143689034Y-85123867D01*
X143386197Y-85123867D01*
X143346407Y-85181711D01*
X143335236Y-85197479D01*
X143325166Y-85211441D01*
X143316138Y-85224784D01*
X143308097Y-85238693D01*
X143300986Y-85254356D01*
X143294747Y-85272958D01*
X143289325Y-85295686D01*
X143284662Y-85323727D01*
X143280701Y-85358267D01*
X143277385Y-85400492D01*
X143274659Y-85451589D01*
X143272464Y-85512744D01*
X143270745Y-85585144D01*
X143269444Y-85669975D01*
X143268505Y-85768422D01*
X143267870Y-85881674D01*
X143267484Y-86010916D01*
X143267288Y-86157334D01*
X143267227Y-86322116D01*
X143267243Y-86506447D01*
X143267280Y-86711513D01*
X143267289Y-86834133D01*
X143267265Y-87051082D01*
X143267231Y-87246642D01*
X143267243Y-87421999D01*
X143267358Y-87578341D01*
X143267630Y-87716857D01*
X143268118Y-87838734D01*
X143268876Y-87945160D01*
X143269962Y-88037322D01*
X143271431Y-88116409D01*
X143273340Y-88183608D01*
X143275744Y-88240107D01*
X143278701Y-88287093D01*
X143282266Y-88325755D01*
X143286495Y-88357280D01*
X143291446Y-88382855D01*
X143297173Y-88403670D01*
X143303733Y-88420911D01*
X143311183Y-88435765D01*
X143319579Y-88449422D01*
X143328976Y-88463069D01*
X143339432Y-88477893D01*
X143345523Y-88486783D01*
X143384296Y-88544400D01*
X142852732Y-88544400D01*
X142729483Y-88544365D01*
X142626987Y-88544215D01*
X142543420Y-88543878D01*
X142476956Y-88543286D01*
X142425771Y-88542367D01*
X142388041Y-88541051D01*
X142361940Y-88539269D01*
X142345644Y-88536951D01*
X142337328Y-88534026D01*
X142335168Y-88530424D01*
X142337339Y-88526075D01*
X142338535Y-88524645D01*
X142363685Y-88487573D01*
X142389583Y-88434772D01*
X142413192Y-88372770D01*
X142421461Y-88346357D01*
X142426078Y-88328416D01*
X142429979Y-88307355D01*
X142433248Y-88281089D01*
X142435966Y-88247532D01*
X142438215Y-88204599D01*
X142440077Y-88150204D01*
X142441636Y-88082262D01*
X142442972Y-87998688D01*
X142444169Y-87897395D01*
X142445308Y-87776300D01*
X142445685Y-87731600D01*
X142446702Y-87606449D01*
X142447460Y-87502082D01*
X142447903Y-87416707D01*
X142447970Y-87348533D01*
X142447605Y-87295765D01*
X142446748Y-87256614D01*
X142445341Y-87229285D01*
X142443325Y-87211986D01*
X142440643Y-87202926D01*
X142437236Y-87200312D01*
X142433044Y-87202351D01*
X142428571Y-87206667D01*
X142418216Y-87219602D01*
X142396158Y-87248676D01*
X142363957Y-87291759D01*
X142323174Y-87346718D01*
X142275370Y-87411423D01*
X142222105Y-87483742D01*
X142164940Y-87561544D01*
X142105437Y-87642698D01*
X142045155Y-87725072D01*
X141985655Y-87806536D01*
X141928498Y-87884957D01*
X141875245Y-87958204D01*
X141827457Y-88024147D01*
X141786693Y-88080654D01*
X141754516Y-88125593D01*
X141732485Y-88156834D01*
X141727917Y-88163466D01*
X141704996Y-88200369D01*
X141678188Y-88248359D01*
X141652789Y-88297897D01*
X141649568Y-88304577D01*
X141627890Y-88352772D01*
X141615304Y-88390334D01*
X141609574Y-88426160D01*
X141608456Y-88468200D01*
X141609090Y-88544400D01*
X140454651Y-88544400D01*
X140545815Y-88450669D01*
X140592612Y-88400775D01*
X140642899Y-88344295D01*
X140688944Y-88290026D01*
X140709369Y-88264673D01*
X140739807Y-88225128D01*
X140779862Y-88171916D01*
X140828361Y-88106667D01*
X140884135Y-88031011D01*
X140946011Y-87946577D01*
X141012819Y-87854994D01*
X141083387Y-87757892D01*
X141156545Y-87656901D01*
X141231121Y-87553650D01*
X141305944Y-87449768D01*
X141379843Y-87346885D01*
X141451646Y-87246631D01*
X141520184Y-87150636D01*
X141584284Y-87060527D01*
X141642775Y-86977936D01*
X141694486Y-86904492D01*
X141738247Y-86841824D01*
X141772885Y-86791561D01*
X141797230Y-86755334D01*
X141810111Y-86734771D01*
X141811869Y-86730668D01*
X141803910Y-86719342D01*
X141783115Y-86692162D01*
X141750847Y-86650829D01*
X141708470Y-86597044D01*
X141657347Y-86532506D01*
X141598841Y-86458918D01*
X141534314Y-86377978D01*
X141465131Y-86291388D01*
X141392653Y-86200848D01*
X141318246Y-86108060D01*
X141258517Y-86033702D01*
X140247511Y-86033702D01*
X140241602Y-86046659D01*
X140227272Y-86068908D01*
X140226225Y-86070391D01*
X140207438Y-86100544D01*
X140187791Y-86137375D01*
X140183892Y-86145511D01*
X140180356Y-86153940D01*
X140177230Y-86164059D01*
X140174486Y-86177260D01*
X140172092Y-86194938D01*
X140170019Y-86218484D01*
X140168235Y-86249293D01*
X140166712Y-86288757D01*
X140165419Y-86338269D01*
X140164326Y-86399223D01*
X140163403Y-86473011D01*
X140162619Y-86561028D01*
X140161945Y-86664665D01*
X140161350Y-86785316D01*
X140160805Y-86924374D01*
X140160279Y-87083232D01*
X140159745Y-87262089D01*
X140159206Y-87447207D01*
X140158772Y-87611145D01*
X140158509Y-87755303D01*
X140158484Y-87881079D01*
X140158765Y-87989871D01*
X140159419Y-88083077D01*
X140160514Y-88162097D01*
X140162118Y-88228328D01*
X140164297Y-88283170D01*
X140167119Y-88328021D01*
X140170651Y-88364278D01*
X140174961Y-88393341D01*
X140180117Y-88416609D01*
X140186185Y-88435479D01*
X140193233Y-88451351D01*
X140201329Y-88465622D01*
X140210540Y-88479691D01*
X140219040Y-88492158D01*
X140236176Y-88518452D01*
X140246322Y-88536037D01*
X140247511Y-88539257D01*
X140236604Y-88540334D01*
X140205411Y-88541335D01*
X140156223Y-88542235D01*
X140091333Y-88543010D01*
X140013030Y-88543637D01*
X139923607Y-88544091D01*
X139825356Y-88544349D01*
X139756445Y-88544400D01*
X139651452Y-88544180D01*
X139554610Y-88543548D01*
X139468107Y-88542549D01*
X139394132Y-88541227D01*
X139334874Y-88539626D01*
X139292520Y-88537791D01*
X139269260Y-88535765D01*
X139265378Y-88534493D01*
X139273076Y-88519591D01*
X139281074Y-88511560D01*
X139294246Y-88494434D01*
X139311485Y-88464183D01*
X139323407Y-88439622D01*
X139350045Y-88380711D01*
X139353120Y-87203845D01*
X139356195Y-86026978D01*
X139801853Y-86026978D01*
X139899670Y-86027142D01*
X139990064Y-86027611D01*
X140070630Y-86028347D01*
X140138962Y-86029316D01*
X140192656Y-86030480D01*
X140229305Y-86031803D01*
X140246504Y-86033249D01*
X140247511Y-86033702D01*
X141258517Y-86033702D01*
X141243270Y-86014722D01*
X141169090Y-85922537D01*
X141097069Y-85833204D01*
X141028569Y-85748424D01*
X140964955Y-85669898D01*
X140907588Y-85599326D01*
X140857833Y-85538409D01*
X140817052Y-85488847D01*
X140799888Y-85468178D01*
X140713596Y-85367516D01*
X140636997Y-85284259D01*
X140568183Y-85216438D01*
X140505248Y-85162089D01*
X140495867Y-85154722D01*
X140456356Y-85124117D01*
X141588116Y-85123867D01*
X141582827Y-85171844D01*
X141586130Y-85229188D01*
X141607661Y-85297463D01*
X141647635Y-85377212D01*
X141692943Y-85449495D01*
X141709161Y-85472140D01*
X141737214Y-85509696D01*
X141775430Y-85560021D01*
X141822137Y-85620973D01*
X141875661Y-85690411D01*
X141934331Y-85766194D01*
X141996475Y-85846180D01*
X142060421Y-85928228D01*
X142124495Y-86010196D01*
X142187027Y-86089943D01*
X142246343Y-86165327D01*
X142300771Y-86234207D01*
X142348639Y-86294442D01*
X142388275Y-86343889D01*
X142418006Y-86380408D01*
X142436161Y-86401858D01*
X142439220Y-86405156D01*
X142442079Y-86397149D01*
X142444293Y-86366855D01*
X142445857Y-86314556D01*
X142446767Y-86240531D01*
X142447020Y-86145063D01*
X142446613Y-86028434D01*
X142445704Y-85908445D01*
X142444382Y-85776333D01*
X142442857Y-85664594D01*
X142440881Y-85571025D01*
X142438206Y-85493419D01*
X142434582Y-85429574D01*
X142429761Y-85377283D01*
X142423494Y-85334344D01*
X142415532Y-85298551D01*
X142405627Y-85267700D01*
X142393531Y-85239586D01*
X142378993Y-85212005D01*
X142364311Y-85186966D01*
X142326314Y-85123867D01*
X143386197Y-85123867D01*
X143689034Y-85123867D01*
X143689001Y-85117617D01*
X143688195Y-85015544D01*
X143687170Y-84926633D01*
X143685900Y-84849941D01*
X143684360Y-84784527D01*
X143682524Y-84729449D01*
X143680367Y-84683765D01*
X143677863Y-84646534D01*
X143674987Y-84616813D01*
X143671713Y-84593662D01*
X143668015Y-84576139D01*
X143663869Y-84563301D01*
X143659247Y-84554208D01*
X143654126Y-84547918D01*
X143648478Y-84543488D01*
X143642279Y-84539978D01*
X143635504Y-84536445D01*
X143629508Y-84532876D01*
X143624275Y-84530300D01*
X143616099Y-84527972D01*
X143603886Y-84525878D01*
X143586541Y-84524007D01*
X143562969Y-84522347D01*
X143532077Y-84520884D01*
X143492768Y-84519608D01*
X143443950Y-84518504D01*
X143384527Y-84517561D01*
X143313404Y-84516767D01*
X143229488Y-84516109D01*
X143131683Y-84515575D01*
X143018894Y-84515153D01*
X142890029Y-84514829D01*
X142743991Y-84514592D01*
X142579686Y-84514430D01*
X142396020Y-84514330D01*
X142191897Y-84514280D01*
X141980753Y-84514267D01*
X140360400Y-84514267D01*
X140360400Y-84611054D01*
X140360400Y-84611054D01*
G37*
X140360400Y-84611054D02*
X140349535Y-84724993D01*
X140317918Y-84832616D01*
X140267015Y-84931615D01*
X140198293Y-85019684D01*
X140113219Y-85094516D01*
X140016232Y-85152384D01*
X139909964Y-85192005D01*
X139802950Y-85210573D01*
X139697300Y-85209434D01*
X139595125Y-85189930D01*
X139498534Y-85153406D01*
X139409638Y-85101205D01*
X139330546Y-85034673D01*
X139263369Y-84955152D01*
X139210217Y-84863987D01*
X139173199Y-84762523D01*
X139154427Y-84652102D01*
X139152489Y-84602206D01*
X139152489Y-84514267D01*
X139100560Y-84514267D01*
X139064253Y-84517111D01*
X139037355Y-84528911D01*
X139010249Y-84552649D01*
X138971867Y-84591031D01*
X138971867Y-86782602D01*
X138971876Y-87044739D01*
X138971908Y-87285241D01*
X138971972Y-87505048D01*
X138972076Y-87705101D01*
X138972227Y-87886344D01*
X138972434Y-88049716D01*
X138972706Y-88196160D01*
X138973050Y-88326617D01*
X138973474Y-88442029D01*
X138973987Y-88543338D01*
X138974597Y-88631484D01*
X138975312Y-88707410D01*
X138976140Y-88772057D01*
X138977089Y-88826367D01*
X138978167Y-88871280D01*
X138979383Y-88907740D01*
X138980745Y-88936687D01*
X138982261Y-88959063D01*
X138983938Y-88975809D01*
X138985786Y-88987868D01*
X138987813Y-88996180D01*
X138990025Y-89001687D01*
X138991108Y-89003537D01*
X138995271Y-89010549D01*
X138998805Y-89016996D01*
X139002635Y-89022900D01*
X139007682Y-89028286D01*
X139014871Y-89033178D01*
X139025123Y-89037598D01*
X139039364Y-89041572D01*
X139058514Y-89045121D01*
X139083499Y-89048270D01*
X139115240Y-89051042D01*
X139154662Y-89053461D01*
X139202686Y-89055551D01*
X139260237Y-89057335D01*
X139328237Y-89058837D01*
X139407610Y-89060080D01*
X139499279Y-89061089D01*
X139604166Y-89061885D01*
X139723196Y-89062494D01*
X139857290Y-89062939D01*
X140007373Y-89063243D01*
X140174367Y-89063430D01*
X140359196Y-89063524D01*
X140562783Y-89063548D01*
X140786050Y-89063525D01*
X141029922Y-89063480D01*
X141295321Y-89063437D01*
X141333704Y-89063432D01*
X141600682Y-89063389D01*
X141846002Y-89063318D01*
X142070583Y-89063213D01*
X142275345Y-89063066D01*
X142461206Y-89062869D01*
X142629088Y-89062616D01*
X142779908Y-89062300D01*
X142914587Y-89061913D01*
X143034044Y-89061447D01*
X143139199Y-89060897D01*
X143230971Y-89060253D01*
X143310279Y-89059511D01*
X143378043Y-89058661D01*
X143435182Y-89057697D01*
X143482617Y-89056611D01*
X143521266Y-89055397D01*
X143552049Y-89054047D01*
X143575885Y-89052555D01*
X143593694Y-89050911D01*
X143606395Y-89049111D01*
X143614908Y-89047145D01*
X143619266Y-89045477D01*
X143627728Y-89041906D01*
X143635497Y-89039270D01*
X143642602Y-89036634D01*
X143649073Y-89033062D01*
X143654939Y-89027621D01*
X143660229Y-89019375D01*
X143664974Y-89007390D01*
X143669202Y-88990731D01*
X143672943Y-88968463D01*
X143676227Y-88939652D01*
X143679083Y-88903363D01*
X143681540Y-88858661D01*
X143683629Y-88804611D01*
X143685378Y-88740279D01*
X143686817Y-88664730D01*
X143687976Y-88577030D01*
X143688883Y-88476243D01*
X143689569Y-88361434D01*
X143690063Y-88231670D01*
X143690395Y-88086015D01*
X143690593Y-87923535D01*
X143690687Y-87743295D01*
X143690708Y-87544360D01*
X143690685Y-87325796D01*
X143690646Y-87086668D01*
X143690622Y-86826040D01*
X143690622Y-86783889D01*
X143690636Y-86520992D01*
X143690661Y-86279732D01*
X143690671Y-86059165D01*
X143690642Y-85858352D01*
X143690548Y-85676349D01*
X143690362Y-85512216D01*
X143690059Y-85365011D01*
X143689614Y-85233792D01*
X143689034Y-85123867D01*
X143386197Y-85123867D01*
X143346407Y-85181711D01*
X143335236Y-85197479D01*
X143325166Y-85211441D01*
X143316138Y-85224784D01*
X143308097Y-85238693D01*
X143300986Y-85254356D01*
X143294747Y-85272958D01*
X143289325Y-85295686D01*
X143284662Y-85323727D01*
X143280701Y-85358267D01*
X143277385Y-85400492D01*
X143274659Y-85451589D01*
X143272464Y-85512744D01*
X143270745Y-85585144D01*
X143269444Y-85669975D01*
X143268505Y-85768422D01*
X143267870Y-85881674D01*
X143267484Y-86010916D01*
X143267288Y-86157334D01*
X143267227Y-86322116D01*
X143267243Y-86506447D01*
X143267280Y-86711513D01*
X143267289Y-86834133D01*
X143267265Y-87051082D01*
X143267231Y-87246642D01*
X143267243Y-87421999D01*
X143267358Y-87578341D01*
X143267630Y-87716857D01*
X143268118Y-87838734D01*
X143268876Y-87945160D01*
X143269962Y-88037322D01*
X143271431Y-88116409D01*
X143273340Y-88183608D01*
X143275744Y-88240107D01*
X143278701Y-88287093D01*
X143282266Y-88325755D01*
X143286495Y-88357280D01*
X143291446Y-88382855D01*
X143297173Y-88403670D01*
X143303733Y-88420911D01*
X143311183Y-88435765D01*
X143319579Y-88449422D01*
X143328976Y-88463069D01*
X143339432Y-88477893D01*
X143345523Y-88486783D01*
X143384296Y-88544400D01*
X142852732Y-88544400D01*
X142729483Y-88544365D01*
X142626987Y-88544215D01*
X142543420Y-88543878D01*
X142476956Y-88543286D01*
X142425771Y-88542367D01*
X142388041Y-88541051D01*
X142361940Y-88539269D01*
X142345644Y-88536951D01*
X142337328Y-88534026D01*
X142335168Y-88530424D01*
X142337339Y-88526075D01*
X142338535Y-88524645D01*
X142363685Y-88487573D01*
X142389583Y-88434772D01*
X142413192Y-88372770D01*
X142421461Y-88346357D01*
X142426078Y-88328416D01*
X142429979Y-88307355D01*
X142433248Y-88281089D01*
X142435966Y-88247532D01*
X142438215Y-88204599D01*
X142440077Y-88150204D01*
X142441636Y-88082262D01*
X142442972Y-87998688D01*
X142444169Y-87897395D01*
X142445308Y-87776300D01*
X142445685Y-87731600D01*
X142446702Y-87606449D01*
X142447460Y-87502082D01*
X142447903Y-87416707D01*
X142447970Y-87348533D01*
X142447605Y-87295765D01*
X142446748Y-87256614D01*
X142445341Y-87229285D01*
X142443325Y-87211986D01*
X142440643Y-87202926D01*
X142437236Y-87200312D01*
X142433044Y-87202351D01*
X142428571Y-87206667D01*
X142418216Y-87219602D01*
X142396158Y-87248676D01*
X142363957Y-87291759D01*
X142323174Y-87346718D01*
X142275370Y-87411423D01*
X142222105Y-87483742D01*
X142164940Y-87561544D01*
X142105437Y-87642698D01*
X142045155Y-87725072D01*
X141985655Y-87806536D01*
X141928498Y-87884957D01*
X141875245Y-87958204D01*
X141827457Y-88024147D01*
X141786693Y-88080654D01*
X141754516Y-88125593D01*
X141732485Y-88156834D01*
X141727917Y-88163466D01*
X141704996Y-88200369D01*
X141678188Y-88248359D01*
X141652789Y-88297897D01*
X141649568Y-88304577D01*
X141627890Y-88352772D01*
X141615304Y-88390334D01*
X141609574Y-88426160D01*
X141608456Y-88468200D01*
X141609090Y-88544400D01*
X140454651Y-88544400D01*
X140545815Y-88450669D01*
X140592612Y-88400775D01*
X140642899Y-88344295D01*
X140688944Y-88290026D01*
X140709369Y-88264673D01*
X140739807Y-88225128D01*
X140779862Y-88171916D01*
X140828361Y-88106667D01*
X140884135Y-88031011D01*
X140946011Y-87946577D01*
X141012819Y-87854994D01*
X141083387Y-87757892D01*
X141156545Y-87656901D01*
X141231121Y-87553650D01*
X141305944Y-87449768D01*
X141379843Y-87346885D01*
X141451646Y-87246631D01*
X141520184Y-87150636D01*
X141584284Y-87060527D01*
X141642775Y-86977936D01*
X141694486Y-86904492D01*
X141738247Y-86841824D01*
X141772885Y-86791561D01*
X141797230Y-86755334D01*
X141810111Y-86734771D01*
X141811869Y-86730668D01*
X141803910Y-86719342D01*
X141783115Y-86692162D01*
X141750847Y-86650829D01*
X141708470Y-86597044D01*
X141657347Y-86532506D01*
X141598841Y-86458918D01*
X141534314Y-86377978D01*
X141465131Y-86291388D01*
X141392653Y-86200848D01*
X141318246Y-86108060D01*
X141258517Y-86033702D01*
X140247511Y-86033702D01*
X140241602Y-86046659D01*
X140227272Y-86068908D01*
X140226225Y-86070391D01*
X140207438Y-86100544D01*
X140187791Y-86137375D01*
X140183892Y-86145511D01*
X140180356Y-86153940D01*
X140177230Y-86164059D01*
X140174486Y-86177260D01*
X140172092Y-86194938D01*
X140170019Y-86218484D01*
X140168235Y-86249293D01*
X140166712Y-86288757D01*
X140165419Y-86338269D01*
X140164326Y-86399223D01*
X140163403Y-86473011D01*
X140162619Y-86561028D01*
X140161945Y-86664665D01*
X140161350Y-86785316D01*
X140160805Y-86924374D01*
X140160279Y-87083232D01*
X140159745Y-87262089D01*
X140159206Y-87447207D01*
X140158772Y-87611145D01*
X140158509Y-87755303D01*
X140158484Y-87881079D01*
X140158765Y-87989871D01*
X140159419Y-88083077D01*
X140160514Y-88162097D01*
X140162118Y-88228328D01*
X140164297Y-88283170D01*
X140167119Y-88328021D01*
X140170651Y-88364278D01*
X140174961Y-88393341D01*
X140180117Y-88416609D01*
X140186185Y-88435479D01*
X140193233Y-88451351D01*
X140201329Y-88465622D01*
X140210540Y-88479691D01*
X140219040Y-88492158D01*
X140236176Y-88518452D01*
X140246322Y-88536037D01*
X140247511Y-88539257D01*
X140236604Y-88540334D01*
X140205411Y-88541335D01*
X140156223Y-88542235D01*
X140091333Y-88543010D01*
X140013030Y-88543637D01*
X139923607Y-88544091D01*
X139825356Y-88544349D01*
X139756445Y-88544400D01*
X139651452Y-88544180D01*
X139554610Y-88543548D01*
X139468107Y-88542549D01*
X139394132Y-88541227D01*
X139334874Y-88539626D01*
X139292520Y-88537791D01*
X139269260Y-88535765D01*
X139265378Y-88534493D01*
X139273076Y-88519591D01*
X139281074Y-88511560D01*
X139294246Y-88494434D01*
X139311485Y-88464183D01*
X139323407Y-88439622D01*
X139350045Y-88380711D01*
X139353120Y-87203845D01*
X139356195Y-86026978D01*
X139801853Y-86026978D01*
X139899670Y-86027142D01*
X139990064Y-86027611D01*
X140070630Y-86028347D01*
X140138962Y-86029316D01*
X140192656Y-86030480D01*
X140229305Y-86031803D01*
X140246504Y-86033249D01*
X140247511Y-86033702D01*
X141258517Y-86033702D01*
X141243270Y-86014722D01*
X141169090Y-85922537D01*
X141097069Y-85833204D01*
X141028569Y-85748424D01*
X140964955Y-85669898D01*
X140907588Y-85599326D01*
X140857833Y-85538409D01*
X140817052Y-85488847D01*
X140799888Y-85468178D01*
X140713596Y-85367516D01*
X140636997Y-85284259D01*
X140568183Y-85216438D01*
X140505248Y-85162089D01*
X140495867Y-85154722D01*
X140456356Y-85124117D01*
X141588116Y-85123867D01*
X141582827Y-85171844D01*
X141586130Y-85229188D01*
X141607661Y-85297463D01*
X141647635Y-85377212D01*
X141692943Y-85449495D01*
X141709161Y-85472140D01*
X141737214Y-85509696D01*
X141775430Y-85560021D01*
X141822137Y-85620973D01*
X141875661Y-85690411D01*
X141934331Y-85766194D01*
X141996475Y-85846180D01*
X142060421Y-85928228D01*
X142124495Y-86010196D01*
X142187027Y-86089943D01*
X142246343Y-86165327D01*
X142300771Y-86234207D01*
X142348639Y-86294442D01*
X142388275Y-86343889D01*
X142418006Y-86380408D01*
X142436161Y-86401858D01*
X142439220Y-86405156D01*
X142442079Y-86397149D01*
X142444293Y-86366855D01*
X142445857Y-86314556D01*
X142446767Y-86240531D01*
X142447020Y-86145063D01*
X142446613Y-86028434D01*
X142445704Y-85908445D01*
X142444382Y-85776333D01*
X142442857Y-85664594D01*
X142440881Y-85571025D01*
X142438206Y-85493419D01*
X142434582Y-85429574D01*
X142429761Y-85377283D01*
X142423494Y-85334344D01*
X142415532Y-85298551D01*
X142405627Y-85267700D01*
X142393531Y-85239586D01*
X142378993Y-85212005D01*
X142364311Y-85186966D01*
X142326314Y-85123867D01*
X143386197Y-85123867D01*
X143689034Y-85123867D01*
X143689001Y-85117617D01*
X143688195Y-85015544D01*
X143687170Y-84926633D01*
X143685900Y-84849941D01*
X143684360Y-84784527D01*
X143682524Y-84729449D01*
X143680367Y-84683765D01*
X143677863Y-84646534D01*
X143674987Y-84616813D01*
X143671713Y-84593662D01*
X143668015Y-84576139D01*
X143663869Y-84563301D01*
X143659247Y-84554208D01*
X143654126Y-84547918D01*
X143648478Y-84543488D01*
X143642279Y-84539978D01*
X143635504Y-84536445D01*
X143629508Y-84532876D01*
X143624275Y-84530300D01*
X143616099Y-84527972D01*
X143603886Y-84525878D01*
X143586541Y-84524007D01*
X143562969Y-84522347D01*
X143532077Y-84520884D01*
X143492768Y-84519608D01*
X143443950Y-84518504D01*
X143384527Y-84517561D01*
X143313404Y-84516767D01*
X143229488Y-84516109D01*
X143131683Y-84515575D01*
X143018894Y-84515153D01*
X142890029Y-84514829D01*
X142743991Y-84514592D01*
X142579686Y-84514430D01*
X142396020Y-84514330D01*
X142191897Y-84514280D01*
X141980753Y-84514267D01*
X140360400Y-84514267D01*
X140360400Y-84611054D01*
D12*
X171729304Y-98588580D02*
X171729304Y-99398104D01*
X171681685Y-99493342D01*
X171634066Y-99540961D01*
X171538828Y-99588580D01*
X171348352Y-99588580D01*
X171253114Y-99540961D01*
X171205495Y-99493342D01*
X171157876Y-99398104D01*
X171157876Y-98588580D01*
X170776923Y-98588580D02*
X170110257Y-98588580D01*
X170538828Y-99588580D01*
M02*
