G04 #@! TF.GenerationSoftware,KiCad,Pcbnew,(5.1.4)-1*
G04 #@! TF.CreationDate,2020-01-01T11:40:27-06:00*
G04 #@! TF.ProjectId,loRaWan1262_jlc,6c6f5261-5761-46e3-9132-36325f6a6c63,rev?*
G04 #@! TF.SameCoordinates,Original*
G04 #@! TF.FileFunction,Legend,Bot*
G04 #@! TF.FilePolarity,Positive*
%FSLAX46Y46*%
G04 Gerber Fmt 4.6, Leading zero omitted, Abs format (unit mm)*
G04 Created by KiCad (PCBNEW (5.1.4)-1) date 2020-01-01 11:40:27*
%MOMM*%
%LPD*%
G04 APERTURE LIST*
%ADD10C,0.254000*%
%ADD11C,0.127000*%
%ADD12C,0.150000*%
%ADD13C,0.300000*%
G04 APERTURE END LIST*
D10*
X176735619Y-83130571D02*
X176251809Y-82791904D01*
X176735619Y-82550000D02*
X175719619Y-82550000D01*
X175719619Y-82937047D01*
X175768000Y-83033809D01*
X175816380Y-83082190D01*
X175913142Y-83130571D01*
X176058285Y-83130571D01*
X176155047Y-83082190D01*
X176203428Y-83033809D01*
X176251809Y-82937047D01*
X176251809Y-82550000D01*
X176203428Y-83566000D02*
X176203428Y-83904666D01*
X176735619Y-84049809D02*
X176735619Y-83566000D01*
X175719619Y-83566000D01*
X175719619Y-84049809D01*
X175719619Y-84340095D02*
X176735619Y-84678761D01*
X175719619Y-85017428D01*
X176638857Y-86710761D02*
X176687238Y-86662380D01*
X176735619Y-86517238D01*
X176735619Y-86420476D01*
X176687238Y-86275333D01*
X176590476Y-86178571D01*
X176493714Y-86130190D01*
X176300190Y-86081809D01*
X176155047Y-86081809D01*
X175961523Y-86130190D01*
X175864761Y-86178571D01*
X175768000Y-86275333D01*
X175719619Y-86420476D01*
X175719619Y-86517238D01*
X175768000Y-86662380D01*
X175816380Y-86710761D01*
X175719619Y-87339714D02*
X175719619Y-87436476D01*
X175768000Y-87533238D01*
X175816380Y-87581619D01*
X175913142Y-87630000D01*
X176106666Y-87678380D01*
X176348571Y-87678380D01*
X176542095Y-87630000D01*
X176638857Y-87581619D01*
X176687238Y-87533238D01*
X176735619Y-87436476D01*
X176735619Y-87339714D01*
X176687238Y-87242952D01*
X176638857Y-87194571D01*
X176542095Y-87146190D01*
X176348571Y-87097809D01*
X176106666Y-87097809D01*
X175913142Y-87146190D01*
X175816380Y-87194571D01*
X175768000Y-87242952D01*
X175719619Y-87339714D01*
D11*
X128838476Y-84787619D02*
X128838476Y-83771619D01*
X128620761Y-84787619D02*
X128620761Y-84255428D01*
X128644952Y-84158666D01*
X128693333Y-84110285D01*
X128765904Y-84110285D01*
X128814285Y-84158666D01*
X128838476Y-84207047D01*
X128451428Y-84110285D02*
X128257904Y-84110285D01*
X128378857Y-83771619D02*
X128378857Y-84642476D01*
X128354666Y-84739238D01*
X128306285Y-84787619D01*
X128257904Y-84787619D01*
X128161142Y-84110285D02*
X127967619Y-84110285D01*
X128088571Y-83771619D02*
X128088571Y-84642476D01*
X128064380Y-84739238D01*
X128016000Y-84787619D01*
X127967619Y-84787619D01*
X127798285Y-84110285D02*
X127798285Y-85126285D01*
X127798285Y-84158666D02*
X127749904Y-84110285D01*
X127653142Y-84110285D01*
X127604761Y-84158666D01*
X127580571Y-84207047D01*
X127556380Y-84303809D01*
X127556380Y-84594095D01*
X127580571Y-84690857D01*
X127604761Y-84739238D01*
X127653142Y-84787619D01*
X127749904Y-84787619D01*
X127798285Y-84739238D01*
X127362857Y-84739238D02*
X127314476Y-84787619D01*
X127217714Y-84787619D01*
X127169333Y-84739238D01*
X127145142Y-84642476D01*
X127145142Y-84594095D01*
X127169333Y-84497333D01*
X127217714Y-84448952D01*
X127290285Y-84448952D01*
X127338666Y-84400571D01*
X127362857Y-84303809D01*
X127362857Y-84255428D01*
X127338666Y-84158666D01*
X127290285Y-84110285D01*
X127217714Y-84110285D01*
X127169333Y-84158666D01*
X126927428Y-84690857D02*
X126903238Y-84739238D01*
X126927428Y-84787619D01*
X126951619Y-84739238D01*
X126927428Y-84690857D01*
X126927428Y-84787619D01*
X126927428Y-84158666D02*
X126903238Y-84207047D01*
X126927428Y-84255428D01*
X126951619Y-84207047D01*
X126927428Y-84158666D01*
X126927428Y-84255428D01*
X126322666Y-83723238D02*
X126758095Y-85029523D01*
X125790476Y-83723238D02*
X126225904Y-85029523D01*
X125669523Y-84110285D02*
X125572761Y-84787619D01*
X125476000Y-84303809D01*
X125379238Y-84787619D01*
X125282476Y-84110285D01*
X125137333Y-84110285D02*
X125040571Y-84787619D01*
X124943809Y-84303809D01*
X124847047Y-84787619D01*
X124750285Y-84110285D01*
X124605142Y-84110285D02*
X124508380Y-84787619D01*
X124411619Y-84303809D01*
X124314857Y-84787619D01*
X124218095Y-84110285D01*
X124024571Y-84690857D02*
X124000380Y-84739238D01*
X124024571Y-84787619D01*
X124048761Y-84739238D01*
X124024571Y-84690857D01*
X124024571Y-84787619D01*
X123564952Y-84787619D02*
X123564952Y-84255428D01*
X123589142Y-84158666D01*
X123637523Y-84110285D01*
X123734285Y-84110285D01*
X123782666Y-84158666D01*
X123564952Y-84739238D02*
X123613333Y-84787619D01*
X123734285Y-84787619D01*
X123782666Y-84739238D01*
X123806857Y-84642476D01*
X123806857Y-84545714D01*
X123782666Y-84448952D01*
X123734285Y-84400571D01*
X123613333Y-84400571D01*
X123564952Y-84352190D01*
X123105333Y-84787619D02*
X123105333Y-83771619D01*
X123105333Y-84739238D02*
X123153714Y-84787619D01*
X123250476Y-84787619D01*
X123298857Y-84739238D01*
X123323047Y-84690857D01*
X123347238Y-84594095D01*
X123347238Y-84303809D01*
X123323047Y-84207047D01*
X123298857Y-84158666D01*
X123250476Y-84110285D01*
X123153714Y-84110285D01*
X123105333Y-84158666D01*
X122645714Y-84787619D02*
X122645714Y-84255428D01*
X122669904Y-84158666D01*
X122718285Y-84110285D01*
X122815047Y-84110285D01*
X122863428Y-84158666D01*
X122645714Y-84739238D02*
X122694095Y-84787619D01*
X122815047Y-84787619D01*
X122863428Y-84739238D01*
X122887619Y-84642476D01*
X122887619Y-84545714D01*
X122863428Y-84448952D01*
X122815047Y-84400571D01*
X122694095Y-84400571D01*
X122645714Y-84352190D01*
X122476380Y-84110285D02*
X122282857Y-84110285D01*
X122403809Y-84787619D02*
X122403809Y-83916761D01*
X122379619Y-83820000D01*
X122331238Y-83771619D01*
X122282857Y-83771619D01*
X122113523Y-84787619D02*
X122113523Y-84110285D01*
X122113523Y-84303809D02*
X122089333Y-84207047D01*
X122065142Y-84158666D01*
X122016761Y-84110285D01*
X121968380Y-84110285D01*
X121581333Y-84110285D02*
X121581333Y-84787619D01*
X121799047Y-84110285D02*
X121799047Y-84642476D01*
X121774857Y-84739238D01*
X121726476Y-84787619D01*
X121653904Y-84787619D01*
X121605523Y-84739238D01*
X121581333Y-84690857D01*
X121339428Y-84787619D02*
X121339428Y-84110285D01*
X121339428Y-83771619D02*
X121363619Y-83820000D01*
X121339428Y-83868380D01*
X121315238Y-83820000D01*
X121339428Y-83771619D01*
X121339428Y-83868380D01*
X121170095Y-84110285D02*
X120976571Y-84110285D01*
X121097523Y-83771619D02*
X121097523Y-84642476D01*
X121073333Y-84739238D01*
X121024952Y-84787619D01*
X120976571Y-84787619D01*
X120807238Y-84690857D02*
X120783047Y-84739238D01*
X120807238Y-84787619D01*
X120831428Y-84739238D01*
X120807238Y-84690857D01*
X120807238Y-84787619D01*
X120347619Y-84739238D02*
X120396000Y-84787619D01*
X120492761Y-84787619D01*
X120541142Y-84739238D01*
X120565333Y-84690857D01*
X120589523Y-84594095D01*
X120589523Y-84303809D01*
X120565333Y-84207047D01*
X120541142Y-84158666D01*
X120492761Y-84110285D01*
X120396000Y-84110285D01*
X120347619Y-84158666D01*
X120057333Y-84787619D02*
X120105714Y-84739238D01*
X120129904Y-84690857D01*
X120154095Y-84594095D01*
X120154095Y-84303809D01*
X120129904Y-84207047D01*
X120105714Y-84158666D01*
X120057333Y-84110285D01*
X119984761Y-84110285D01*
X119936380Y-84158666D01*
X119912190Y-84207047D01*
X119888000Y-84303809D01*
X119888000Y-84594095D01*
X119912190Y-84690857D01*
X119936380Y-84739238D01*
X119984761Y-84787619D01*
X120057333Y-84787619D01*
X119670285Y-84787619D02*
X119670285Y-84110285D01*
X119670285Y-84207047D02*
X119646095Y-84158666D01*
X119597714Y-84110285D01*
X119525142Y-84110285D01*
X119476761Y-84158666D01*
X119452571Y-84255428D01*
X119452571Y-84787619D01*
X119452571Y-84255428D02*
X119428380Y-84158666D01*
X119380000Y-84110285D01*
X119307428Y-84110285D01*
X119259047Y-84158666D01*
X119234857Y-84255428D01*
X119234857Y-84787619D01*
X118630095Y-83723238D02*
X119065523Y-85029523D01*
X118533333Y-84110285D02*
X118339809Y-84110285D01*
X118460761Y-84787619D02*
X118460761Y-83916761D01*
X118436571Y-83820000D01*
X118388190Y-83771619D01*
X118339809Y-83771619D01*
X117976952Y-84739238D02*
X118025333Y-84787619D01*
X118122095Y-84787619D01*
X118170476Y-84739238D01*
X118194666Y-84642476D01*
X118194666Y-84255428D01*
X118170476Y-84158666D01*
X118122095Y-84110285D01*
X118025333Y-84110285D01*
X117976952Y-84158666D01*
X117952761Y-84255428D01*
X117952761Y-84352190D01*
X118194666Y-84448952D01*
X117517333Y-84787619D02*
X117517333Y-84255428D01*
X117541523Y-84158666D01*
X117589904Y-84110285D01*
X117686666Y-84110285D01*
X117735047Y-84158666D01*
X117517333Y-84739238D02*
X117565714Y-84787619D01*
X117686666Y-84787619D01*
X117735047Y-84739238D01*
X117759238Y-84642476D01*
X117759238Y-84545714D01*
X117735047Y-84448952D01*
X117686666Y-84400571D01*
X117565714Y-84400571D01*
X117517333Y-84352190D01*
X117348000Y-84110285D02*
X117154476Y-84110285D01*
X117275428Y-83771619D02*
X117275428Y-84642476D01*
X117251238Y-84739238D01*
X117202857Y-84787619D01*
X117154476Y-84787619D01*
X116985142Y-84787619D02*
X116985142Y-83771619D01*
X116767428Y-84787619D02*
X116767428Y-84255428D01*
X116791619Y-84158666D01*
X116840000Y-84110285D01*
X116912571Y-84110285D01*
X116960952Y-84158666D01*
X116985142Y-84207047D01*
X116332000Y-84739238D02*
X116380380Y-84787619D01*
X116477142Y-84787619D01*
X116525523Y-84739238D01*
X116549714Y-84642476D01*
X116549714Y-84255428D01*
X116525523Y-84158666D01*
X116477142Y-84110285D01*
X116380380Y-84110285D01*
X116332000Y-84158666D01*
X116307809Y-84255428D01*
X116307809Y-84352190D01*
X116549714Y-84448952D01*
X116090095Y-84787619D02*
X116090095Y-84110285D01*
X116090095Y-84303809D02*
X116065904Y-84207047D01*
X116041714Y-84158666D01*
X115993333Y-84110285D01*
X115944952Y-84110285D01*
D10*
X127798285Y-88470619D02*
X128282095Y-88470619D01*
X128282095Y-87454619D01*
X127314476Y-88470619D02*
X127411238Y-88422238D01*
X127459619Y-88373857D01*
X127508000Y-88277095D01*
X127508000Y-87986809D01*
X127459619Y-87890047D01*
X127411238Y-87841666D01*
X127314476Y-87793285D01*
X127169333Y-87793285D01*
X127072571Y-87841666D01*
X127024190Y-87890047D01*
X126975809Y-87986809D01*
X126975809Y-88277095D01*
X127024190Y-88373857D01*
X127072571Y-88422238D01*
X127169333Y-88470619D01*
X127314476Y-88470619D01*
X125959809Y-88470619D02*
X126298476Y-87986809D01*
X126540380Y-88470619D02*
X126540380Y-87454619D01*
X126153333Y-87454619D01*
X126056571Y-87503000D01*
X126008190Y-87551380D01*
X125959809Y-87648142D01*
X125959809Y-87793285D01*
X126008190Y-87890047D01*
X126056571Y-87938428D01*
X126153333Y-87986809D01*
X126540380Y-87986809D01*
X125088952Y-88470619D02*
X125088952Y-87938428D01*
X125137333Y-87841666D01*
X125234095Y-87793285D01*
X125427619Y-87793285D01*
X125524380Y-87841666D01*
X125088952Y-88422238D02*
X125185714Y-88470619D01*
X125427619Y-88470619D01*
X125524380Y-88422238D01*
X125572761Y-88325476D01*
X125572761Y-88228714D01*
X125524380Y-88131952D01*
X125427619Y-88083571D01*
X125185714Y-88083571D01*
X125088952Y-88035190D01*
X124701904Y-87454619D02*
X124460000Y-88470619D01*
X124266476Y-87744904D01*
X124072952Y-88470619D01*
X123831047Y-87454619D01*
X123492380Y-88180333D02*
X123008571Y-88180333D01*
X123589142Y-88470619D02*
X123250476Y-87454619D01*
X122911809Y-88470619D01*
X122573142Y-88470619D02*
X122573142Y-87454619D01*
X121992571Y-88470619D01*
X121992571Y-87454619D01*
X120396000Y-87938428D02*
X120734666Y-87938428D01*
X120734666Y-88470619D02*
X120734666Y-87454619D01*
X120250857Y-87454619D01*
X119476761Y-88422238D02*
X119573523Y-88470619D01*
X119767047Y-88470619D01*
X119863809Y-88422238D01*
X119912190Y-88325476D01*
X119912190Y-87938428D01*
X119863809Y-87841666D01*
X119767047Y-87793285D01*
X119573523Y-87793285D01*
X119476761Y-87841666D01*
X119428380Y-87938428D01*
X119428380Y-88035190D01*
X119912190Y-88131952D01*
X118557523Y-88470619D02*
X118557523Y-87938428D01*
X118605904Y-87841666D01*
X118702666Y-87793285D01*
X118896190Y-87793285D01*
X118992952Y-87841666D01*
X118557523Y-88422238D02*
X118654285Y-88470619D01*
X118896190Y-88470619D01*
X118992952Y-88422238D01*
X119041333Y-88325476D01*
X119041333Y-88228714D01*
X118992952Y-88131952D01*
X118896190Y-88083571D01*
X118654285Y-88083571D01*
X118557523Y-88035190D01*
X118218857Y-87793285D02*
X117831809Y-87793285D01*
X118073714Y-87454619D02*
X118073714Y-88325476D01*
X118025333Y-88422238D01*
X117928571Y-88470619D01*
X117831809Y-88470619D01*
X117493142Y-88470619D02*
X117493142Y-87454619D01*
X117057714Y-88470619D02*
X117057714Y-87938428D01*
X117106095Y-87841666D01*
X117202857Y-87793285D01*
X117348000Y-87793285D01*
X117444761Y-87841666D01*
X117493142Y-87890047D01*
X116186857Y-88422238D02*
X116283619Y-88470619D01*
X116477142Y-88470619D01*
X116573904Y-88422238D01*
X116622285Y-88325476D01*
X116622285Y-87938428D01*
X116573904Y-87841666D01*
X116477142Y-87793285D01*
X116283619Y-87793285D01*
X116186857Y-87841666D01*
X116138476Y-87938428D01*
X116138476Y-88035190D01*
X116622285Y-88131952D01*
X115703047Y-88470619D02*
X115703047Y-87793285D01*
X115703047Y-87986809D02*
X115654666Y-87890047D01*
X115606285Y-87841666D01*
X115509523Y-87793285D01*
X115412761Y-87793285D01*
X128088571Y-90200238D02*
X127991809Y-90248619D01*
X127798285Y-90248619D01*
X127701523Y-90200238D01*
X127653142Y-90103476D01*
X127653142Y-90055095D01*
X127701523Y-89958333D01*
X127798285Y-89909952D01*
X127943428Y-89909952D01*
X128040190Y-89861571D01*
X128088571Y-89764809D01*
X128088571Y-89716428D01*
X128040190Y-89619666D01*
X127943428Y-89571285D01*
X127798285Y-89571285D01*
X127701523Y-89619666D01*
X127314476Y-89571285D02*
X127072571Y-90248619D01*
X126830666Y-89571285D01*
X126008190Y-90200238D02*
X126104952Y-90248619D01*
X126298476Y-90248619D01*
X126395238Y-90200238D01*
X126443619Y-90151857D01*
X126492000Y-90055095D01*
X126492000Y-89764809D01*
X126443619Y-89668047D01*
X126395238Y-89619666D01*
X126298476Y-89571285D01*
X126104952Y-89571285D01*
X126008190Y-89619666D01*
X125137333Y-89571285D02*
X125137333Y-90393761D01*
X125185714Y-90490523D01*
X125234095Y-90538904D01*
X125330857Y-90587285D01*
X125476000Y-90587285D01*
X125572761Y-90538904D01*
X125137333Y-90200238D02*
X125234095Y-90248619D01*
X125427619Y-90248619D01*
X125524380Y-90200238D01*
X125572761Y-90151857D01*
X125621142Y-90055095D01*
X125621142Y-89764809D01*
X125572761Y-89668047D01*
X125524380Y-89619666D01*
X125427619Y-89571285D01*
X125234095Y-89571285D01*
X125137333Y-89619666D01*
X124218095Y-89571285D02*
X124218095Y-90248619D01*
X124653523Y-89571285D02*
X124653523Y-90103476D01*
X124605142Y-90200238D01*
X124508380Y-90248619D01*
X124363238Y-90248619D01*
X124266476Y-90200238D01*
X124218095Y-90151857D01*
X123831047Y-89571285D02*
X123589142Y-90248619D01*
X123347238Y-89571285D02*
X123589142Y-90248619D01*
X123685904Y-90490523D01*
X123734285Y-90538904D01*
X123831047Y-90587285D01*
X121653904Y-90248619D02*
X122234476Y-90248619D01*
X121944190Y-90248619D02*
X121944190Y-89232619D01*
X122040952Y-89377761D01*
X122137714Y-89474523D01*
X122234476Y-89522904D01*
X120686285Y-90248619D02*
X121266857Y-90248619D01*
X120976571Y-90248619D02*
X120976571Y-89232619D01*
X121073333Y-89377761D01*
X121170095Y-89474523D01*
X121266857Y-89522904D01*
X119525142Y-89184238D02*
X120396000Y-90490523D01*
X119234857Y-89329380D02*
X119186476Y-89281000D01*
X119089714Y-89232619D01*
X118847809Y-89232619D01*
X118751047Y-89281000D01*
X118702666Y-89329380D01*
X118654285Y-89426142D01*
X118654285Y-89522904D01*
X118702666Y-89668047D01*
X119283238Y-90248619D01*
X118654285Y-90248619D01*
X118025333Y-89232619D02*
X117928571Y-89232619D01*
X117831809Y-89281000D01*
X117783428Y-89329380D01*
X117735047Y-89426142D01*
X117686666Y-89619666D01*
X117686666Y-89861571D01*
X117735047Y-90055095D01*
X117783428Y-90151857D01*
X117831809Y-90200238D01*
X117928571Y-90248619D01*
X118025333Y-90248619D01*
X118122095Y-90200238D01*
X118170476Y-90151857D01*
X118218857Y-90055095D01*
X118267238Y-89861571D01*
X118267238Y-89619666D01*
X118218857Y-89426142D01*
X118170476Y-89329380D01*
X118122095Y-89281000D01*
X118025333Y-89232619D01*
X116719047Y-90248619D02*
X117299619Y-90248619D01*
X117009333Y-90248619D02*
X117009333Y-89232619D01*
X117106095Y-89377761D01*
X117202857Y-89474523D01*
X117299619Y-89522904D01*
X116235238Y-90248619D02*
X116041714Y-90248619D01*
X115944952Y-90200238D01*
X115896571Y-90151857D01*
X115799809Y-90006714D01*
X115751428Y-89813190D01*
X115751428Y-89426142D01*
X115799809Y-89329380D01*
X115848190Y-89281000D01*
X115944952Y-89232619D01*
X116138476Y-89232619D01*
X116235238Y-89281000D01*
X116283619Y-89329380D01*
X116332000Y-89426142D01*
X116332000Y-89668047D01*
X116283619Y-89764809D01*
X116235238Y-89813190D01*
X116138476Y-89861571D01*
X115944952Y-89861571D01*
X115848190Y-89813190D01*
X115799809Y-89764809D01*
X115751428Y-89668047D01*
D12*
X169465047Y-89114380D02*
X169465047Y-89828666D01*
X169512666Y-89971523D01*
X169607904Y-90066761D01*
X169750761Y-90114380D01*
X169846000Y-90114380D01*
X168512666Y-90114380D02*
X168988857Y-90114380D01*
X168988857Y-89114380D01*
X167607904Y-90019142D02*
X167655523Y-90066761D01*
X167798380Y-90114380D01*
X167893619Y-90114380D01*
X168036476Y-90066761D01*
X168131714Y-89971523D01*
X168179333Y-89876285D01*
X168226952Y-89685809D01*
X168226952Y-89542952D01*
X168179333Y-89352476D01*
X168131714Y-89257238D01*
X168036476Y-89162000D01*
X167893619Y-89114380D01*
X167798380Y-89114380D01*
X167655523Y-89162000D01*
X167607904Y-89209619D01*
X166893619Y-89114380D02*
X166893619Y-89828666D01*
X166941238Y-89971523D01*
X167036476Y-90066761D01*
X167179333Y-90114380D01*
X167274571Y-90114380D01*
X165941238Y-90114380D02*
X166417428Y-90114380D01*
X166417428Y-89114380D01*
X165036476Y-90019142D02*
X165084095Y-90066761D01*
X165226952Y-90114380D01*
X165322190Y-90114380D01*
X165465047Y-90066761D01*
X165560285Y-89971523D01*
X165607904Y-89876285D01*
X165655523Y-89685809D01*
X165655523Y-89542952D01*
X165607904Y-89352476D01*
X165560285Y-89257238D01*
X165465047Y-89162000D01*
X165322190Y-89114380D01*
X165226952Y-89114380D01*
X165084095Y-89162000D01*
X165036476Y-89209619D01*
X164322190Y-89114380D02*
X164322190Y-89828666D01*
X164369809Y-89971523D01*
X164465047Y-90066761D01*
X164607904Y-90114380D01*
X164703142Y-90114380D01*
X163369809Y-90114380D02*
X163846000Y-90114380D01*
X163846000Y-89114380D01*
X162465047Y-90019142D02*
X162512666Y-90066761D01*
X162655523Y-90114380D01*
X162750761Y-90114380D01*
X162893619Y-90066761D01*
X162988857Y-89971523D01*
X163036476Y-89876285D01*
X163084095Y-89685809D01*
X163084095Y-89542952D01*
X163036476Y-89352476D01*
X162988857Y-89257238D01*
X162893619Y-89162000D01*
X162750761Y-89114380D01*
X162655523Y-89114380D01*
X162512666Y-89162000D01*
X162465047Y-89209619D01*
X161750761Y-89114380D02*
X161750761Y-89828666D01*
X161798380Y-89971523D01*
X161893619Y-90066761D01*
X162036476Y-90114380D01*
X162131714Y-90114380D01*
X160798380Y-90114380D02*
X161274571Y-90114380D01*
X161274571Y-89114380D01*
X159893619Y-90019142D02*
X159941238Y-90066761D01*
X160084095Y-90114380D01*
X160179333Y-90114380D01*
X160322190Y-90066761D01*
X160417428Y-89971523D01*
X160465047Y-89876285D01*
X160512666Y-89685809D01*
X160512666Y-89542952D01*
X160465047Y-89352476D01*
X160417428Y-89257238D01*
X160322190Y-89162000D01*
X160179333Y-89114380D01*
X160084095Y-89114380D01*
X159941238Y-89162000D01*
X159893619Y-89209619D01*
D10*
X162658576Y-99519619D02*
X162658576Y-98503619D01*
X162078004Y-99519619D01*
X162078004Y-98503619D01*
X161013623Y-99422857D02*
X161062004Y-99471238D01*
X161207147Y-99519619D01*
X161303909Y-99519619D01*
X161449052Y-99471238D01*
X161545814Y-99374476D01*
X161594195Y-99277714D01*
X161642576Y-99084190D01*
X161642576Y-98939047D01*
X161594195Y-98745523D01*
X161545814Y-98648761D01*
X161449052Y-98552000D01*
X161303909Y-98503619D01*
X161207147Y-98503619D01*
X161062004Y-98552000D01*
X161013623Y-98600380D01*
X154891619Y-91631709D02*
X154891619Y-92212280D01*
X155907619Y-91921995D02*
X154891619Y-91921995D01*
X154891619Y-92454185D02*
X155907619Y-93131519D01*
X154891619Y-93131519D02*
X155907619Y-92454185D01*
X156294666Y-94582947D02*
X156246285Y-94534566D01*
X156101142Y-94437804D01*
X156004380Y-94389423D01*
X155859238Y-94341042D01*
X155617333Y-94292661D01*
X155423809Y-94292661D01*
X155181904Y-94341042D01*
X155036761Y-94389423D01*
X154940000Y-94437804D01*
X154794857Y-94534566D01*
X154746476Y-94582947D01*
X155907619Y-94969995D02*
X154891619Y-94969995D01*
X154891619Y-95357042D01*
X154940000Y-95453804D01*
X154988380Y-95502185D01*
X155085142Y-95550566D01*
X155230285Y-95550566D01*
X155327047Y-95502185D01*
X155375428Y-95453804D01*
X155423809Y-95357042D01*
X155423809Y-94969995D01*
X155617333Y-95937614D02*
X155617333Y-96421423D01*
X155907619Y-95840852D02*
X154891619Y-96179519D01*
X155907619Y-96518185D01*
X154988380Y-96808471D02*
X154940000Y-96856852D01*
X154891619Y-96953614D01*
X154891619Y-97195519D01*
X154940000Y-97292280D01*
X154988380Y-97340661D01*
X155085142Y-97389042D01*
X155181904Y-97389042D01*
X155327047Y-97340661D01*
X155907619Y-96760090D01*
X155907619Y-97389042D01*
X156294666Y-97727709D02*
X156246285Y-97776090D01*
X156101142Y-97872852D01*
X156004380Y-97921233D01*
X155859238Y-97969614D01*
X155617333Y-98017995D01*
X155423809Y-98017995D01*
X155181904Y-97969614D01*
X155036761Y-97921233D01*
X154940000Y-97872852D01*
X154794857Y-97776090D01*
X154746476Y-97727709D01*
X154129619Y-92115519D02*
X153645809Y-91776852D01*
X154129619Y-91534947D02*
X153113619Y-91534947D01*
X153113619Y-91921995D01*
X153162000Y-92018757D01*
X153210380Y-92067138D01*
X153307142Y-92115519D01*
X153452285Y-92115519D01*
X153549047Y-92067138D01*
X153597428Y-92018757D01*
X153645809Y-91921995D01*
X153645809Y-91534947D01*
X153113619Y-92454185D02*
X154129619Y-93131519D01*
X153113619Y-93131519D02*
X154129619Y-92454185D01*
X154516666Y-94582947D02*
X154468285Y-94534566D01*
X154323142Y-94437804D01*
X154226380Y-94389423D01*
X154081238Y-94341042D01*
X153839333Y-94292661D01*
X153645809Y-94292661D01*
X153403904Y-94341042D01*
X153258761Y-94389423D01*
X153162000Y-94437804D01*
X153016857Y-94534566D01*
X152968476Y-94582947D01*
X154129619Y-94969995D02*
X153113619Y-94969995D01*
X153113619Y-95357042D01*
X153162000Y-95453804D01*
X153210380Y-95502185D01*
X153307142Y-95550566D01*
X153452285Y-95550566D01*
X153549047Y-95502185D01*
X153597428Y-95453804D01*
X153645809Y-95357042D01*
X153645809Y-94969995D01*
X153839333Y-95937614D02*
X153839333Y-96421423D01*
X154129619Y-95840852D02*
X153113619Y-96179519D01*
X154129619Y-96518185D01*
X153113619Y-96760090D02*
X153113619Y-97389042D01*
X153500666Y-97050376D01*
X153500666Y-97195519D01*
X153549047Y-97292280D01*
X153597428Y-97340661D01*
X153694190Y-97389042D01*
X153936095Y-97389042D01*
X154032857Y-97340661D01*
X154081238Y-97292280D01*
X154129619Y-97195519D01*
X154129619Y-96905233D01*
X154081238Y-96808471D01*
X154032857Y-96760090D01*
X154516666Y-97727709D02*
X154468285Y-97776090D01*
X154323142Y-97872852D01*
X154226380Y-97921233D01*
X154081238Y-97969614D01*
X153839333Y-98017995D01*
X153645809Y-98017995D01*
X153403904Y-97969614D01*
X153258761Y-97921233D01*
X153162000Y-97872852D01*
X153016857Y-97776090D01*
X152968476Y-97727709D01*
X151589619Y-88728852D02*
X150573619Y-88728852D01*
X151299333Y-89067519D01*
X150573619Y-89406185D01*
X151589619Y-89406185D01*
X151589619Y-89889995D02*
X150573619Y-89889995D01*
X151541238Y-90325423D02*
X151589619Y-90470566D01*
X151589619Y-90712471D01*
X151541238Y-90809233D01*
X151492857Y-90857614D01*
X151396095Y-90905995D01*
X151299333Y-90905995D01*
X151202571Y-90857614D01*
X151154190Y-90809233D01*
X151105809Y-90712471D01*
X151057428Y-90518947D01*
X151009047Y-90422185D01*
X150960666Y-90373804D01*
X150863904Y-90325423D01*
X150767142Y-90325423D01*
X150670380Y-90373804D01*
X150622000Y-90422185D01*
X150573619Y-90518947D01*
X150573619Y-90760852D01*
X150622000Y-90905995D01*
X150573619Y-91534947D02*
X150573619Y-91728471D01*
X150622000Y-91825233D01*
X150718761Y-91921995D01*
X150912285Y-91970376D01*
X151250952Y-91970376D01*
X151444476Y-91921995D01*
X151541238Y-91825233D01*
X151589619Y-91728471D01*
X151589619Y-91534947D01*
X151541238Y-91438185D01*
X151444476Y-91341423D01*
X151250952Y-91293042D01*
X150912285Y-91293042D01*
X150718761Y-91341423D01*
X150622000Y-91438185D01*
X150573619Y-91534947D01*
X151976666Y-93470185D02*
X151928285Y-93421804D01*
X151783142Y-93325042D01*
X151686380Y-93276661D01*
X151541238Y-93228280D01*
X151299333Y-93179900D01*
X151105809Y-93179900D01*
X150863904Y-93228280D01*
X150718761Y-93276661D01*
X150622000Y-93325042D01*
X150476857Y-93421804D01*
X150428476Y-93470185D01*
X151589619Y-93857233D02*
X150573619Y-93857233D01*
X150573619Y-94244280D01*
X150622000Y-94341042D01*
X150670380Y-94389423D01*
X150767142Y-94437804D01*
X150912285Y-94437804D01*
X151009047Y-94389423D01*
X151057428Y-94341042D01*
X151105809Y-94244280D01*
X151105809Y-93857233D01*
X151057428Y-95211900D02*
X151105809Y-95357042D01*
X151154190Y-95405423D01*
X151250952Y-95453804D01*
X151396095Y-95453804D01*
X151492857Y-95405423D01*
X151541238Y-95357042D01*
X151589619Y-95260280D01*
X151589619Y-94873233D01*
X150573619Y-94873233D01*
X150573619Y-95211900D01*
X150622000Y-95308661D01*
X150670380Y-95357042D01*
X150767142Y-95405423D01*
X150863904Y-95405423D01*
X150960666Y-95357042D01*
X151009047Y-95308661D01*
X151057428Y-95211900D01*
X151057428Y-94873233D01*
X151589619Y-96421423D02*
X151589619Y-95840852D01*
X151589619Y-96131138D02*
X150573619Y-96131138D01*
X150718761Y-96034376D01*
X150815523Y-95937614D01*
X150863904Y-95840852D01*
X150912285Y-97292280D02*
X151589619Y-97292280D01*
X150525238Y-97050376D02*
X151250952Y-96808471D01*
X151250952Y-97437423D01*
X151976666Y-97727709D02*
X151928285Y-97776090D01*
X151783142Y-97872852D01*
X151686380Y-97921233D01*
X151541238Y-97969614D01*
X151299333Y-98017995D01*
X151105809Y-98017995D01*
X150863904Y-97969614D01*
X150718761Y-97921233D01*
X150622000Y-97872852D01*
X150476857Y-97776090D01*
X150428476Y-97727709D01*
X149049619Y-88728852D02*
X148033619Y-88728852D01*
X148759333Y-89067519D01*
X148033619Y-89406185D01*
X149049619Y-89406185D01*
X148033619Y-90083519D02*
X148033619Y-90277042D01*
X148082000Y-90373804D01*
X148178761Y-90470566D01*
X148372285Y-90518947D01*
X148710952Y-90518947D01*
X148904476Y-90470566D01*
X149001238Y-90373804D01*
X149049619Y-90277042D01*
X149049619Y-90083519D01*
X149001238Y-89986757D01*
X148904476Y-89889995D01*
X148710952Y-89841614D01*
X148372285Y-89841614D01*
X148178761Y-89889995D01*
X148082000Y-89986757D01*
X148033619Y-90083519D01*
X149001238Y-90905995D02*
X149049619Y-91051138D01*
X149049619Y-91293042D01*
X149001238Y-91389804D01*
X148952857Y-91438185D01*
X148856095Y-91486566D01*
X148759333Y-91486566D01*
X148662571Y-91438185D01*
X148614190Y-91389804D01*
X148565809Y-91293042D01*
X148517428Y-91099519D01*
X148469047Y-91002757D01*
X148420666Y-90954376D01*
X148323904Y-90905995D01*
X148227142Y-90905995D01*
X148130380Y-90954376D01*
X148082000Y-91002757D01*
X148033619Y-91099519D01*
X148033619Y-91341423D01*
X148082000Y-91486566D01*
X149049619Y-91921995D02*
X148033619Y-91921995D01*
X149436666Y-93470185D02*
X149388285Y-93421804D01*
X149243142Y-93325042D01*
X149146380Y-93276661D01*
X149001238Y-93228280D01*
X148759333Y-93179900D01*
X148565809Y-93179900D01*
X148323904Y-93228280D01*
X148178761Y-93276661D01*
X148082000Y-93325042D01*
X147936857Y-93421804D01*
X147888476Y-93470185D01*
X149049619Y-93857233D02*
X148033619Y-93857233D01*
X148033619Y-94244280D01*
X148082000Y-94341042D01*
X148130380Y-94389423D01*
X148227142Y-94437804D01*
X148372285Y-94437804D01*
X148469047Y-94389423D01*
X148517428Y-94341042D01*
X148565809Y-94244280D01*
X148565809Y-93857233D01*
X148517428Y-95211900D02*
X148565809Y-95357042D01*
X148614190Y-95405423D01*
X148710952Y-95453804D01*
X148856095Y-95453804D01*
X148952857Y-95405423D01*
X149001238Y-95357042D01*
X149049619Y-95260280D01*
X149049619Y-94873233D01*
X148033619Y-94873233D01*
X148033619Y-95211900D01*
X148082000Y-95308661D01*
X148130380Y-95357042D01*
X148227142Y-95405423D01*
X148323904Y-95405423D01*
X148420666Y-95357042D01*
X148469047Y-95308661D01*
X148517428Y-95211900D01*
X148517428Y-94873233D01*
X149049619Y-96421423D02*
X149049619Y-95840852D01*
X149049619Y-96131138D02*
X148033619Y-96131138D01*
X148178761Y-96034376D01*
X148275523Y-95937614D01*
X148323904Y-95840852D01*
X148033619Y-97340661D02*
X148033619Y-96856852D01*
X148517428Y-96808471D01*
X148469047Y-96856852D01*
X148420666Y-96953614D01*
X148420666Y-97195519D01*
X148469047Y-97292280D01*
X148517428Y-97340661D01*
X148614190Y-97389042D01*
X148856095Y-97389042D01*
X148952857Y-97340661D01*
X149001238Y-97292280D01*
X149049619Y-97195519D01*
X149049619Y-96953614D01*
X149001238Y-96856852D01*
X148952857Y-96808471D01*
X149436666Y-97727709D02*
X149388285Y-97776090D01*
X149243142Y-97872852D01*
X149146380Y-97921233D01*
X149001238Y-97969614D01*
X148759333Y-98017995D01*
X148565809Y-98017995D01*
X148323904Y-97969614D01*
X148178761Y-97921233D01*
X148082000Y-97872852D01*
X147936857Y-97776090D01*
X147888476Y-97727709D01*
X146461238Y-89357804D02*
X146509619Y-89502947D01*
X146509619Y-89744852D01*
X146461238Y-89841614D01*
X146412857Y-89889995D01*
X146316095Y-89938376D01*
X146219333Y-89938376D01*
X146122571Y-89889995D01*
X146074190Y-89841614D01*
X146025809Y-89744852D01*
X145977428Y-89551328D01*
X145929047Y-89454566D01*
X145880666Y-89406185D01*
X145783904Y-89357804D01*
X145687142Y-89357804D01*
X145590380Y-89406185D01*
X145542000Y-89454566D01*
X145493619Y-89551328D01*
X145493619Y-89793233D01*
X145542000Y-89938376D01*
X146412857Y-90954376D02*
X146461238Y-90905995D01*
X146509619Y-90760852D01*
X146509619Y-90664090D01*
X146461238Y-90518947D01*
X146364476Y-90422185D01*
X146267714Y-90373804D01*
X146074190Y-90325423D01*
X145929047Y-90325423D01*
X145735523Y-90373804D01*
X145638761Y-90422185D01*
X145542000Y-90518947D01*
X145493619Y-90664090D01*
X145493619Y-90760852D01*
X145542000Y-90905995D01*
X145590380Y-90954376D01*
X146509619Y-91389804D02*
X145493619Y-91389804D01*
X146509619Y-91970376D02*
X145929047Y-91534947D01*
X145493619Y-91970376D02*
X146074190Y-91389804D01*
X146896666Y-93470185D02*
X146848285Y-93421804D01*
X146703142Y-93325042D01*
X146606380Y-93276661D01*
X146461238Y-93228280D01*
X146219333Y-93179900D01*
X146025809Y-93179900D01*
X145783904Y-93228280D01*
X145638761Y-93276661D01*
X145542000Y-93325042D01*
X145396857Y-93421804D01*
X145348476Y-93470185D01*
X146509619Y-93857233D02*
X145493619Y-93857233D01*
X145493619Y-94244280D01*
X145542000Y-94341042D01*
X145590380Y-94389423D01*
X145687142Y-94437804D01*
X145832285Y-94437804D01*
X145929047Y-94389423D01*
X145977428Y-94341042D01*
X146025809Y-94244280D01*
X146025809Y-93857233D01*
X145977428Y-95211900D02*
X146025809Y-95357042D01*
X146074190Y-95405423D01*
X146170952Y-95453804D01*
X146316095Y-95453804D01*
X146412857Y-95405423D01*
X146461238Y-95357042D01*
X146509619Y-95260280D01*
X146509619Y-94873233D01*
X145493619Y-94873233D01*
X145493619Y-95211900D01*
X145542000Y-95308661D01*
X145590380Y-95357042D01*
X145687142Y-95405423D01*
X145783904Y-95405423D01*
X145880666Y-95357042D01*
X145929047Y-95308661D01*
X145977428Y-95211900D01*
X145977428Y-94873233D01*
X146509619Y-96421423D02*
X146509619Y-95840852D01*
X146509619Y-96131138D02*
X145493619Y-96131138D01*
X145638761Y-96034376D01*
X145735523Y-95937614D01*
X145783904Y-95840852D01*
X145493619Y-96760090D02*
X145493619Y-97389042D01*
X145880666Y-97050376D01*
X145880666Y-97195519D01*
X145929047Y-97292280D01*
X145977428Y-97340661D01*
X146074190Y-97389042D01*
X146316095Y-97389042D01*
X146412857Y-97340661D01*
X146461238Y-97292280D01*
X146509619Y-97195519D01*
X146509619Y-96905233D01*
X146461238Y-96808471D01*
X146412857Y-96760090D01*
X146896666Y-97727709D02*
X146848285Y-97776090D01*
X146703142Y-97872852D01*
X146606380Y-97921233D01*
X146461238Y-97969614D01*
X146219333Y-98017995D01*
X146025809Y-98017995D01*
X145783904Y-97969614D01*
X145638761Y-97921233D01*
X145542000Y-97872852D01*
X145396857Y-97776090D01*
X145348476Y-97727709D01*
X143969619Y-96421423D02*
X142953619Y-96421423D01*
X143969619Y-97001995D01*
X142953619Y-97001995D01*
X143872857Y-98066376D02*
X143921238Y-98017995D01*
X143969619Y-97872852D01*
X143969619Y-97776090D01*
X143921238Y-97630947D01*
X143824476Y-97534185D01*
X143727714Y-97485804D01*
X143534190Y-97437423D01*
X143389047Y-97437423D01*
X143195523Y-97485804D01*
X143098761Y-97534185D01*
X143002000Y-97630947D01*
X142953619Y-97776090D01*
X142953619Y-97872852D01*
X143002000Y-98017995D01*
X143050380Y-98066376D01*
X141429619Y-96421423D02*
X140413619Y-96421423D01*
X141429619Y-97001995D01*
X140413619Y-97001995D01*
X141332857Y-98066376D02*
X141381238Y-98017995D01*
X141429619Y-97872852D01*
X141429619Y-97776090D01*
X141381238Y-97630947D01*
X141284476Y-97534185D01*
X141187714Y-97485804D01*
X140994190Y-97437423D01*
X140849047Y-97437423D01*
X140655523Y-97485804D01*
X140558761Y-97534185D01*
X140462000Y-97630947D01*
X140413619Y-97776090D01*
X140413619Y-97872852D01*
X140462000Y-98017995D01*
X140510380Y-98066376D01*
X138889619Y-96421423D02*
X137873619Y-96421423D01*
X138889619Y-97001995D01*
X137873619Y-97001995D01*
X138792857Y-98066376D02*
X138841238Y-98017995D01*
X138889619Y-97872852D01*
X138889619Y-97776090D01*
X138841238Y-97630947D01*
X138744476Y-97534185D01*
X138647714Y-97485804D01*
X138454190Y-97437423D01*
X138309047Y-97437423D01*
X138115523Y-97485804D01*
X138018761Y-97534185D01*
X137922000Y-97630947D01*
X137873619Y-97776090D01*
X137873619Y-97872852D01*
X137922000Y-98017995D01*
X137970380Y-98066376D01*
X136059333Y-91631709D02*
X136059333Y-92115519D01*
X136349619Y-91534947D02*
X135333619Y-91873614D01*
X136349619Y-92212280D01*
X135430380Y-92502566D02*
X135382000Y-92550947D01*
X135333619Y-92647709D01*
X135333619Y-92889614D01*
X135382000Y-92986376D01*
X135430380Y-93034757D01*
X135527142Y-93083138D01*
X135623904Y-93083138D01*
X135769047Y-93034757D01*
X136349619Y-92454185D01*
X136349619Y-93083138D01*
X136736666Y-94582947D02*
X136688285Y-94534566D01*
X136543142Y-94437804D01*
X136446380Y-94389423D01*
X136301238Y-94341042D01*
X136059333Y-94292661D01*
X135865809Y-94292661D01*
X135623904Y-94341042D01*
X135478761Y-94389423D01*
X135382000Y-94437804D01*
X135236857Y-94534566D01*
X135188476Y-94582947D01*
X136349619Y-94969995D02*
X135333619Y-94969995D01*
X135333619Y-95357042D01*
X135382000Y-95453804D01*
X135430380Y-95502185D01*
X135527142Y-95550566D01*
X135672285Y-95550566D01*
X135769047Y-95502185D01*
X135817428Y-95453804D01*
X135865809Y-95357042D01*
X135865809Y-94969995D01*
X136059333Y-95937614D02*
X136059333Y-96421423D01*
X136349619Y-95840852D02*
X135333619Y-96179519D01*
X136349619Y-96518185D01*
X135333619Y-96760090D02*
X135333619Y-97437423D01*
X136349619Y-97001995D01*
X136736666Y-97727709D02*
X136688285Y-97776090D01*
X136543142Y-97872852D01*
X136446380Y-97921233D01*
X136301238Y-97969614D01*
X136059333Y-98017995D01*
X135865809Y-98017995D01*
X135623904Y-97969614D01*
X135478761Y-97921233D01*
X135382000Y-97872852D01*
X135236857Y-97776090D01*
X135188476Y-97727709D01*
X133519333Y-91631709D02*
X133519333Y-92115519D01*
X133809619Y-91534947D02*
X132793619Y-91873614D01*
X133809619Y-92212280D01*
X133809619Y-93083138D02*
X133809619Y-92502566D01*
X133809619Y-92792852D02*
X132793619Y-92792852D01*
X132938761Y-92696090D01*
X133035523Y-92599328D01*
X133083904Y-92502566D01*
X134196666Y-94582947D02*
X134148285Y-94534566D01*
X134003142Y-94437804D01*
X133906380Y-94389423D01*
X133761238Y-94341042D01*
X133519333Y-94292661D01*
X133325809Y-94292661D01*
X133083904Y-94341042D01*
X132938761Y-94389423D01*
X132842000Y-94437804D01*
X132696857Y-94534566D01*
X132648476Y-94582947D01*
X133809619Y-94969995D02*
X132793619Y-94969995D01*
X132793619Y-95357042D01*
X132842000Y-95453804D01*
X132890380Y-95502185D01*
X132987142Y-95550566D01*
X133132285Y-95550566D01*
X133229047Y-95502185D01*
X133277428Y-95453804D01*
X133325809Y-95357042D01*
X133325809Y-94969995D01*
X133519333Y-95937614D02*
X133519333Y-96421423D01*
X133809619Y-95840852D02*
X132793619Y-96179519D01*
X133809619Y-96518185D01*
X133809619Y-97389042D02*
X133809619Y-96808471D01*
X133809619Y-97098757D02*
X132793619Y-97098757D01*
X132938761Y-97001995D01*
X133035523Y-96905233D01*
X133083904Y-96808471D01*
X134196666Y-97727709D02*
X134148285Y-97776090D01*
X134003142Y-97872852D01*
X133906380Y-97921233D01*
X133761238Y-97969614D01*
X133519333Y-98017995D01*
X133325809Y-98017995D01*
X133083904Y-97969614D01*
X132938761Y-97921233D01*
X132842000Y-97872852D01*
X132696857Y-97776090D01*
X132648476Y-97727709D01*
X130979333Y-91631709D02*
X130979333Y-92115519D01*
X131269619Y-91534947D02*
X130253619Y-91873614D01*
X131269619Y-92212280D01*
X130253619Y-92744471D02*
X130253619Y-92841233D01*
X130302000Y-92937995D01*
X130350380Y-92986376D01*
X130447142Y-93034757D01*
X130640666Y-93083138D01*
X130882571Y-93083138D01*
X131076095Y-93034757D01*
X131172857Y-92986376D01*
X131221238Y-92937995D01*
X131269619Y-92841233D01*
X131269619Y-92744471D01*
X131221238Y-92647709D01*
X131172857Y-92599328D01*
X131076095Y-92550947D01*
X130882571Y-92502566D01*
X130640666Y-92502566D01*
X130447142Y-92550947D01*
X130350380Y-92599328D01*
X130302000Y-92647709D01*
X130253619Y-92744471D01*
X131656666Y-94582947D02*
X131608285Y-94534566D01*
X131463142Y-94437804D01*
X131366380Y-94389423D01*
X131221238Y-94341042D01*
X130979333Y-94292661D01*
X130785809Y-94292661D01*
X130543904Y-94341042D01*
X130398761Y-94389423D01*
X130302000Y-94437804D01*
X130156857Y-94534566D01*
X130108476Y-94582947D01*
X131269619Y-94969995D02*
X130253619Y-94969995D01*
X130253619Y-95357042D01*
X130302000Y-95453804D01*
X130350380Y-95502185D01*
X130447142Y-95550566D01*
X130592285Y-95550566D01*
X130689047Y-95502185D01*
X130737428Y-95453804D01*
X130785809Y-95357042D01*
X130785809Y-94969995D01*
X130979333Y-95937614D02*
X130979333Y-96421423D01*
X131269619Y-95840852D02*
X130253619Y-96179519D01*
X131269619Y-96518185D01*
X130592285Y-97292280D02*
X131269619Y-97292280D01*
X130205238Y-97050376D02*
X130930952Y-96808471D01*
X130930952Y-97437423D01*
X131656666Y-97727709D02*
X131608285Y-97776090D01*
X131463142Y-97872852D01*
X131366380Y-97921233D01*
X131221238Y-97969614D01*
X130979333Y-98017995D01*
X130785809Y-98017995D01*
X130543904Y-97969614D01*
X130398761Y-97921233D01*
X130302000Y-97872852D01*
X130156857Y-97776090D01*
X130108476Y-97727709D01*
X127762000Y-95937614D02*
X127713619Y-95840852D01*
X127713619Y-95695709D01*
X127762000Y-95550566D01*
X127858761Y-95453804D01*
X127955523Y-95405423D01*
X128149047Y-95357042D01*
X128294190Y-95357042D01*
X128487714Y-95405423D01*
X128584476Y-95453804D01*
X128681238Y-95550566D01*
X128729619Y-95695709D01*
X128729619Y-95792471D01*
X128681238Y-95937614D01*
X128632857Y-95985995D01*
X128294190Y-95985995D01*
X128294190Y-95792471D01*
X128729619Y-96421423D02*
X127713619Y-96421423D01*
X128729619Y-97001995D01*
X127713619Y-97001995D01*
X128729619Y-97485804D02*
X127713619Y-97485804D01*
X127713619Y-97727709D01*
X127762000Y-97872852D01*
X127858761Y-97969614D01*
X127955523Y-98017995D01*
X128149047Y-98066376D01*
X128294190Y-98066376D01*
X128487714Y-98017995D01*
X128584476Y-97969614D01*
X128681238Y-97872852D01*
X128729619Y-97727709D01*
X128729619Y-97485804D01*
X126189619Y-96421423D02*
X125173619Y-96421423D01*
X126189619Y-97001995D01*
X125173619Y-97001995D01*
X126092857Y-98066376D02*
X126141238Y-98017995D01*
X126189619Y-97872852D01*
X126189619Y-97776090D01*
X126141238Y-97630947D01*
X126044476Y-97534185D01*
X125947714Y-97485804D01*
X125754190Y-97437423D01*
X125609047Y-97437423D01*
X125415523Y-97485804D01*
X125318761Y-97534185D01*
X125222000Y-97630947D01*
X125173619Y-97776090D01*
X125173619Y-97872852D01*
X125222000Y-98017995D01*
X125270380Y-98066376D01*
X122633619Y-95598947D02*
X122633619Y-96227900D01*
X123020666Y-95889233D01*
X123020666Y-96034376D01*
X123069047Y-96131138D01*
X123117428Y-96179519D01*
X123214190Y-96227900D01*
X123456095Y-96227900D01*
X123552857Y-96179519D01*
X123601238Y-96131138D01*
X123649619Y-96034376D01*
X123649619Y-95744090D01*
X123601238Y-95647328D01*
X123552857Y-95598947D01*
X122633619Y-96518185D02*
X123649619Y-96856852D01*
X122633619Y-97195519D01*
X122633619Y-97437423D02*
X122633619Y-98066376D01*
X123020666Y-97727709D01*
X123020666Y-97872852D01*
X123069047Y-97969614D01*
X123117428Y-98017995D01*
X123214190Y-98066376D01*
X123456095Y-98066376D01*
X123552857Y-98017995D01*
X123601238Y-97969614D01*
X123649619Y-97872852D01*
X123649619Y-97582566D01*
X123601238Y-97485804D01*
X123552857Y-97437423D01*
X121109619Y-96324661D02*
X120625809Y-95985995D01*
X121109619Y-95744090D02*
X120093619Y-95744090D01*
X120093619Y-96131138D01*
X120142000Y-96227900D01*
X120190380Y-96276280D01*
X120287142Y-96324661D01*
X120432285Y-96324661D01*
X120529047Y-96276280D01*
X120577428Y-96227900D01*
X120625809Y-96131138D01*
X120625809Y-95744090D01*
X121061238Y-96711709D02*
X121109619Y-96856852D01*
X121109619Y-97098757D01*
X121061238Y-97195519D01*
X121012857Y-97243900D01*
X120916095Y-97292280D01*
X120819333Y-97292280D01*
X120722571Y-97243900D01*
X120674190Y-97195519D01*
X120625809Y-97098757D01*
X120577428Y-96905233D01*
X120529047Y-96808471D01*
X120480666Y-96760090D01*
X120383904Y-96711709D01*
X120287142Y-96711709D01*
X120190380Y-96760090D01*
X120142000Y-96808471D01*
X120093619Y-96905233D01*
X120093619Y-97147138D01*
X120142000Y-97292280D01*
X120093619Y-97582566D02*
X120093619Y-98163138D01*
X121109619Y-97872852D02*
X120093619Y-97872852D01*
X169186376Y-79405238D02*
X169041233Y-79453619D01*
X168799328Y-79453619D01*
X168702566Y-79405238D01*
X168654185Y-79356857D01*
X168605804Y-79260095D01*
X168605804Y-79163333D01*
X168654185Y-79066571D01*
X168702566Y-79018190D01*
X168799328Y-78969809D01*
X168992852Y-78921428D01*
X169089614Y-78873047D01*
X169137995Y-78824666D01*
X169186376Y-78727904D01*
X169186376Y-78631142D01*
X169137995Y-78534380D01*
X169089614Y-78486000D01*
X168992852Y-78437619D01*
X168750947Y-78437619D01*
X168605804Y-78486000D01*
X168170376Y-79453619D02*
X168170376Y-78437619D01*
X167928471Y-78437619D01*
X167783328Y-78486000D01*
X167686566Y-78582761D01*
X167638185Y-78679523D01*
X167589804Y-78873047D01*
X167589804Y-79018190D01*
X167638185Y-79211714D01*
X167686566Y-79308476D01*
X167783328Y-79405238D01*
X167928471Y-79453619D01*
X168170376Y-79453619D01*
X167202757Y-79163333D02*
X166718947Y-79163333D01*
X167299519Y-79453619D02*
X166960852Y-78437619D01*
X166622185Y-79453619D01*
X165219138Y-79840666D02*
X165267519Y-79792285D01*
X165364280Y-79647142D01*
X165412661Y-79550380D01*
X165461042Y-79405238D01*
X165509423Y-79163333D01*
X165509423Y-78969809D01*
X165461042Y-78727904D01*
X165412661Y-78582761D01*
X165364280Y-78486000D01*
X165267519Y-78340857D01*
X165219138Y-78292476D01*
X164832090Y-79453619D02*
X164832090Y-78437619D01*
X164445042Y-78437619D01*
X164348280Y-78486000D01*
X164299900Y-78534380D01*
X164251519Y-78631142D01*
X164251519Y-78776285D01*
X164299900Y-78873047D01*
X164348280Y-78921428D01*
X164445042Y-78969809D01*
X164832090Y-78969809D01*
X163477423Y-78921428D02*
X163332280Y-78969809D01*
X163283900Y-79018190D01*
X163235519Y-79114952D01*
X163235519Y-79260095D01*
X163283900Y-79356857D01*
X163332280Y-79405238D01*
X163429042Y-79453619D01*
X163816090Y-79453619D01*
X163816090Y-78437619D01*
X163477423Y-78437619D01*
X163380661Y-78486000D01*
X163332280Y-78534380D01*
X163283900Y-78631142D01*
X163283900Y-78727904D01*
X163332280Y-78824666D01*
X163380661Y-78873047D01*
X163477423Y-78921428D01*
X163816090Y-78921428D01*
X162267900Y-79453619D02*
X162848471Y-79453619D01*
X162558185Y-79453619D02*
X162558185Y-78437619D01*
X162654947Y-78582761D01*
X162751709Y-78679523D01*
X162848471Y-78727904D01*
X161300280Y-79453619D02*
X161880852Y-79453619D01*
X161590566Y-79453619D02*
X161590566Y-78437619D01*
X161687328Y-78582761D01*
X161784090Y-78679523D01*
X161880852Y-78727904D01*
X160961614Y-79840666D02*
X160913233Y-79792285D01*
X160816471Y-79647142D01*
X160768090Y-79550380D01*
X160719709Y-79405238D01*
X160671328Y-79163333D01*
X160671328Y-78969809D01*
X160719709Y-78727904D01*
X160768090Y-78582761D01*
X160816471Y-78486000D01*
X160913233Y-78340857D01*
X160961614Y-78292476D01*
X155859238Y-80368623D02*
X155907619Y-80513766D01*
X155907619Y-80755671D01*
X155859238Y-80852433D01*
X155810857Y-80900814D01*
X155714095Y-80949195D01*
X155617333Y-80949195D01*
X155520571Y-80900814D01*
X155472190Y-80852433D01*
X155423809Y-80755671D01*
X155375428Y-80562147D01*
X155327047Y-80465385D01*
X155278666Y-80417004D01*
X155181904Y-80368623D01*
X155085142Y-80368623D01*
X154988380Y-80417004D01*
X154940000Y-80465385D01*
X154891619Y-80562147D01*
X154891619Y-80804052D01*
X154940000Y-80949195D01*
X155810857Y-81965195D02*
X155859238Y-81916814D01*
X155907619Y-81771671D01*
X155907619Y-81674909D01*
X155859238Y-81529766D01*
X155762476Y-81433004D01*
X155665714Y-81384623D01*
X155472190Y-81336242D01*
X155327047Y-81336242D01*
X155133523Y-81384623D01*
X155036761Y-81433004D01*
X154940000Y-81529766D01*
X154891619Y-81674909D01*
X154891619Y-81771671D01*
X154940000Y-81916814D01*
X154988380Y-81965195D01*
X155907619Y-82884433D02*
X155907619Y-82400623D01*
X154891619Y-82400623D01*
X156294666Y-84287480D02*
X156246285Y-84239100D01*
X156101142Y-84142338D01*
X156004380Y-84093957D01*
X155859238Y-84045576D01*
X155617333Y-83997195D01*
X155423809Y-83997195D01*
X155181904Y-84045576D01*
X155036761Y-84093957D01*
X154940000Y-84142338D01*
X154794857Y-84239100D01*
X154746476Y-84287480D01*
X155907619Y-84674528D02*
X154891619Y-84674528D01*
X154891619Y-85061576D01*
X154940000Y-85158338D01*
X154988380Y-85206719D01*
X155085142Y-85255100D01*
X155230285Y-85255100D01*
X155327047Y-85206719D01*
X155375428Y-85158338D01*
X155423809Y-85061576D01*
X155423809Y-84674528D01*
X155375428Y-86029195D02*
X155423809Y-86174338D01*
X155472190Y-86222719D01*
X155568952Y-86271100D01*
X155714095Y-86271100D01*
X155810857Y-86222719D01*
X155859238Y-86174338D01*
X155907619Y-86077576D01*
X155907619Y-85690528D01*
X154891619Y-85690528D01*
X154891619Y-86029195D01*
X154940000Y-86125957D01*
X154988380Y-86174338D01*
X155085142Y-86222719D01*
X155181904Y-86222719D01*
X155278666Y-86174338D01*
X155327047Y-86125957D01*
X155375428Y-86029195D01*
X155375428Y-85690528D01*
X155907619Y-87238719D02*
X155907619Y-86658147D01*
X155907619Y-86948433D02*
X154891619Y-86948433D01*
X155036761Y-86851671D01*
X155133523Y-86754909D01*
X155181904Y-86658147D01*
X154891619Y-87867671D02*
X154891619Y-87964433D01*
X154940000Y-88061195D01*
X154988380Y-88109576D01*
X155085142Y-88157957D01*
X155278666Y-88206338D01*
X155520571Y-88206338D01*
X155714095Y-88157957D01*
X155810857Y-88109576D01*
X155859238Y-88061195D01*
X155907619Y-87964433D01*
X155907619Y-87867671D01*
X155859238Y-87770909D01*
X155810857Y-87722528D01*
X155714095Y-87674147D01*
X155520571Y-87625766D01*
X155278666Y-87625766D01*
X155085142Y-87674147D01*
X154988380Y-87722528D01*
X154940000Y-87770909D01*
X154891619Y-87867671D01*
X156294666Y-88545004D02*
X156246285Y-88593385D01*
X156101142Y-88690147D01*
X156004380Y-88738528D01*
X155859238Y-88786909D01*
X155617333Y-88835290D01*
X155423809Y-88835290D01*
X155181904Y-88786909D01*
X155036761Y-88738528D01*
X154940000Y-88690147D01*
X154794857Y-88593385D01*
X154746476Y-88545004D01*
X154129619Y-80417004D02*
X153113619Y-80417004D01*
X153113619Y-80658909D01*
X153162000Y-80804052D01*
X153258761Y-80900814D01*
X153355523Y-80949195D01*
X153549047Y-80997576D01*
X153694190Y-80997576D01*
X153887714Y-80949195D01*
X153984476Y-80900814D01*
X154081238Y-80804052D01*
X154129619Y-80658909D01*
X154129619Y-80417004D01*
X153113619Y-81916814D02*
X153113619Y-81433004D01*
X153597428Y-81384623D01*
X153549047Y-81433004D01*
X153500666Y-81529766D01*
X153500666Y-81771671D01*
X153549047Y-81868433D01*
X153597428Y-81916814D01*
X153694190Y-81965195D01*
X153936095Y-81965195D01*
X154032857Y-81916814D01*
X154081238Y-81868433D01*
X154129619Y-81771671D01*
X154129619Y-81529766D01*
X154081238Y-81433004D01*
X154032857Y-81384623D01*
X154516666Y-83465004D02*
X154468285Y-83416623D01*
X154323142Y-83319861D01*
X154226380Y-83271480D01*
X154081238Y-83223100D01*
X153839333Y-83174719D01*
X153645809Y-83174719D01*
X153403904Y-83223100D01*
X153258761Y-83271480D01*
X153162000Y-83319861D01*
X153016857Y-83416623D01*
X152968476Y-83465004D01*
X154129619Y-83852052D02*
X153113619Y-83852052D01*
X153113619Y-84239100D01*
X153162000Y-84335861D01*
X153210380Y-84384242D01*
X153307142Y-84432623D01*
X153452285Y-84432623D01*
X153549047Y-84384242D01*
X153597428Y-84335861D01*
X153645809Y-84239100D01*
X153645809Y-83852052D01*
X153597428Y-85206719D02*
X153645809Y-85351861D01*
X153694190Y-85400242D01*
X153790952Y-85448623D01*
X153936095Y-85448623D01*
X154032857Y-85400242D01*
X154081238Y-85351861D01*
X154129619Y-85255100D01*
X154129619Y-84868052D01*
X153113619Y-84868052D01*
X153113619Y-85206719D01*
X153162000Y-85303480D01*
X153210380Y-85351861D01*
X153307142Y-85400242D01*
X153403904Y-85400242D01*
X153500666Y-85351861D01*
X153549047Y-85303480D01*
X153597428Y-85206719D01*
X153597428Y-84868052D01*
X153113619Y-86077576D02*
X153113619Y-86174338D01*
X153162000Y-86271100D01*
X153210380Y-86319480D01*
X153307142Y-86367861D01*
X153500666Y-86416242D01*
X153742571Y-86416242D01*
X153936095Y-86367861D01*
X154032857Y-86319480D01*
X154081238Y-86271100D01*
X154129619Y-86174338D01*
X154129619Y-86077576D01*
X154081238Y-85980814D01*
X154032857Y-85932433D01*
X153936095Y-85884052D01*
X153742571Y-85835671D01*
X153500666Y-85835671D01*
X153307142Y-85884052D01*
X153210380Y-85932433D01*
X153162000Y-85980814D01*
X153113619Y-86077576D01*
X154516666Y-86754909D02*
X154468285Y-86803290D01*
X154323142Y-86900052D01*
X154226380Y-86948433D01*
X154081238Y-86996814D01*
X153839333Y-87045195D01*
X153645809Y-87045195D01*
X153403904Y-86996814D01*
X153258761Y-86948433D01*
X153162000Y-86900052D01*
X153016857Y-86803290D01*
X152968476Y-86754909D01*
X151589619Y-80417004D02*
X150573619Y-80417004D01*
X150573619Y-80658909D01*
X150622000Y-80804052D01*
X150718761Y-80900814D01*
X150815523Y-80949195D01*
X151009047Y-80997576D01*
X151154190Y-80997576D01*
X151347714Y-80949195D01*
X151444476Y-80900814D01*
X151541238Y-80804052D01*
X151589619Y-80658909D01*
X151589619Y-80417004D01*
X150573619Y-81868433D02*
X150573619Y-81674909D01*
X150622000Y-81578147D01*
X150670380Y-81529766D01*
X150815523Y-81433004D01*
X151009047Y-81384623D01*
X151396095Y-81384623D01*
X151492857Y-81433004D01*
X151541238Y-81481385D01*
X151589619Y-81578147D01*
X151589619Y-81771671D01*
X151541238Y-81868433D01*
X151492857Y-81916814D01*
X151396095Y-81965195D01*
X151154190Y-81965195D01*
X151057428Y-81916814D01*
X151009047Y-81868433D01*
X150960666Y-81771671D01*
X150960666Y-81578147D01*
X151009047Y-81481385D01*
X151057428Y-81433004D01*
X151154190Y-81384623D01*
X151976666Y-83465004D02*
X151928285Y-83416623D01*
X151783142Y-83319861D01*
X151686380Y-83271480D01*
X151541238Y-83223100D01*
X151299333Y-83174719D01*
X151105809Y-83174719D01*
X150863904Y-83223100D01*
X150718761Y-83271480D01*
X150622000Y-83319861D01*
X150476857Y-83416623D01*
X150428476Y-83465004D01*
X151589619Y-83852052D02*
X150573619Y-83852052D01*
X150573619Y-84239100D01*
X150622000Y-84335861D01*
X150670380Y-84384242D01*
X150767142Y-84432623D01*
X150912285Y-84432623D01*
X151009047Y-84384242D01*
X151057428Y-84335861D01*
X151105809Y-84239100D01*
X151105809Y-83852052D01*
X151057428Y-85206719D02*
X151105809Y-85351861D01*
X151154190Y-85400242D01*
X151250952Y-85448623D01*
X151396095Y-85448623D01*
X151492857Y-85400242D01*
X151541238Y-85351861D01*
X151589619Y-85255100D01*
X151589619Y-84868052D01*
X150573619Y-84868052D01*
X150573619Y-85206719D01*
X150622000Y-85303480D01*
X150670380Y-85351861D01*
X150767142Y-85400242D01*
X150863904Y-85400242D01*
X150960666Y-85351861D01*
X151009047Y-85303480D01*
X151057428Y-85206719D01*
X151057428Y-84868052D01*
X151589619Y-86416242D02*
X151589619Y-85835671D01*
X151589619Y-86125957D02*
X150573619Y-86125957D01*
X150718761Y-86029195D01*
X150815523Y-85932433D01*
X150863904Y-85835671D01*
X151976666Y-86754909D02*
X151928285Y-86803290D01*
X151783142Y-86900052D01*
X151686380Y-86948433D01*
X151541238Y-86996814D01*
X151299333Y-87045195D01*
X151105809Y-87045195D01*
X150863904Y-86996814D01*
X150718761Y-86948433D01*
X150622000Y-86900052D01*
X150476857Y-86803290D01*
X150428476Y-86754909D01*
X149049619Y-80417004D02*
X148033619Y-80417004D01*
X148033619Y-80658909D01*
X148082000Y-80804052D01*
X148178761Y-80900814D01*
X148275523Y-80949195D01*
X148469047Y-80997576D01*
X148614190Y-80997576D01*
X148807714Y-80949195D01*
X148904476Y-80900814D01*
X149001238Y-80804052D01*
X149049619Y-80658909D01*
X149049619Y-80417004D01*
X149049619Y-81481385D02*
X149049619Y-81674909D01*
X149001238Y-81771671D01*
X148952857Y-81820052D01*
X148807714Y-81916814D01*
X148614190Y-81965195D01*
X148227142Y-81965195D01*
X148130380Y-81916814D01*
X148082000Y-81868433D01*
X148033619Y-81771671D01*
X148033619Y-81578147D01*
X148082000Y-81481385D01*
X148130380Y-81433004D01*
X148227142Y-81384623D01*
X148469047Y-81384623D01*
X148565809Y-81433004D01*
X148614190Y-81481385D01*
X148662571Y-81578147D01*
X148662571Y-81771671D01*
X148614190Y-81868433D01*
X148565809Y-81916814D01*
X148469047Y-81965195D01*
X149436666Y-83465004D02*
X149388285Y-83416623D01*
X149243142Y-83319861D01*
X149146380Y-83271480D01*
X149001238Y-83223100D01*
X148759333Y-83174719D01*
X148565809Y-83174719D01*
X148323904Y-83223100D01*
X148178761Y-83271480D01*
X148082000Y-83319861D01*
X147936857Y-83416623D01*
X147888476Y-83465004D01*
X149049619Y-83852052D02*
X148033619Y-83852052D01*
X148033619Y-84239100D01*
X148082000Y-84335861D01*
X148130380Y-84384242D01*
X148227142Y-84432623D01*
X148372285Y-84432623D01*
X148469047Y-84384242D01*
X148517428Y-84335861D01*
X148565809Y-84239100D01*
X148565809Y-83852052D01*
X148517428Y-85206719D02*
X148565809Y-85351861D01*
X148614190Y-85400242D01*
X148710952Y-85448623D01*
X148856095Y-85448623D01*
X148952857Y-85400242D01*
X149001238Y-85351861D01*
X149049619Y-85255100D01*
X149049619Y-84868052D01*
X148033619Y-84868052D01*
X148033619Y-85206719D01*
X148082000Y-85303480D01*
X148130380Y-85351861D01*
X148227142Y-85400242D01*
X148323904Y-85400242D01*
X148420666Y-85351861D01*
X148469047Y-85303480D01*
X148517428Y-85206719D01*
X148517428Y-84868052D01*
X148130380Y-85835671D02*
X148082000Y-85884052D01*
X148033619Y-85980814D01*
X148033619Y-86222719D01*
X148082000Y-86319480D01*
X148130380Y-86367861D01*
X148227142Y-86416242D01*
X148323904Y-86416242D01*
X148469047Y-86367861D01*
X149049619Y-85787290D01*
X149049619Y-86416242D01*
X149436666Y-86754909D02*
X149388285Y-86803290D01*
X149243142Y-86900052D01*
X149146380Y-86948433D01*
X149001238Y-86996814D01*
X148759333Y-87045195D01*
X148565809Y-87045195D01*
X148323904Y-86996814D01*
X148178761Y-86948433D01*
X148082000Y-86900052D01*
X147936857Y-86803290D01*
X147888476Y-86754909D01*
X146509619Y-80417004D02*
X145493619Y-80417004D01*
X145493619Y-80658909D01*
X145542000Y-80804052D01*
X145638761Y-80900814D01*
X145735523Y-80949195D01*
X145929047Y-80997576D01*
X146074190Y-80997576D01*
X146267714Y-80949195D01*
X146364476Y-80900814D01*
X146461238Y-80804052D01*
X146509619Y-80658909D01*
X146509619Y-80417004D01*
X146509619Y-81965195D02*
X146509619Y-81384623D01*
X146509619Y-81674909D02*
X145493619Y-81674909D01*
X145638761Y-81578147D01*
X145735523Y-81481385D01*
X145783904Y-81384623D01*
X145493619Y-82594147D02*
X145493619Y-82690909D01*
X145542000Y-82787671D01*
X145590380Y-82836052D01*
X145687142Y-82884433D01*
X145880666Y-82932814D01*
X146122571Y-82932814D01*
X146316095Y-82884433D01*
X146412857Y-82836052D01*
X146461238Y-82787671D01*
X146509619Y-82690909D01*
X146509619Y-82594147D01*
X146461238Y-82497385D01*
X146412857Y-82449004D01*
X146316095Y-82400623D01*
X146122571Y-82352242D01*
X145880666Y-82352242D01*
X145687142Y-82400623D01*
X145590380Y-82449004D01*
X145542000Y-82497385D01*
X145493619Y-82594147D01*
X146896666Y-84432623D02*
X146848285Y-84384242D01*
X146703142Y-84287480D01*
X146606380Y-84239100D01*
X146461238Y-84190719D01*
X146219333Y-84142338D01*
X146025809Y-84142338D01*
X145783904Y-84190719D01*
X145638761Y-84239100D01*
X145542000Y-84287480D01*
X145396857Y-84384242D01*
X145348476Y-84432623D01*
X146509619Y-84819671D02*
X145493619Y-84819671D01*
X145493619Y-85206719D01*
X145542000Y-85303480D01*
X145590380Y-85351861D01*
X145687142Y-85400242D01*
X145832285Y-85400242D01*
X145929047Y-85351861D01*
X145977428Y-85303480D01*
X146025809Y-85206719D01*
X146025809Y-84819671D01*
X145977428Y-86174338D02*
X146025809Y-86319480D01*
X146074190Y-86367861D01*
X146170952Y-86416242D01*
X146316095Y-86416242D01*
X146412857Y-86367861D01*
X146461238Y-86319480D01*
X146509619Y-86222719D01*
X146509619Y-85835671D01*
X145493619Y-85835671D01*
X145493619Y-86174338D01*
X145542000Y-86271100D01*
X145590380Y-86319480D01*
X145687142Y-86367861D01*
X145783904Y-86367861D01*
X145880666Y-86319480D01*
X145929047Y-86271100D01*
X145977428Y-86174338D01*
X145977428Y-85835671D01*
X145929047Y-86996814D02*
X145880666Y-86900052D01*
X145832285Y-86851671D01*
X145735523Y-86803290D01*
X145687142Y-86803290D01*
X145590380Y-86851671D01*
X145542000Y-86900052D01*
X145493619Y-86996814D01*
X145493619Y-87190338D01*
X145542000Y-87287100D01*
X145590380Y-87335480D01*
X145687142Y-87383861D01*
X145735523Y-87383861D01*
X145832285Y-87335480D01*
X145880666Y-87287100D01*
X145929047Y-87190338D01*
X145929047Y-86996814D01*
X145977428Y-86900052D01*
X146025809Y-86851671D01*
X146122571Y-86803290D01*
X146316095Y-86803290D01*
X146412857Y-86851671D01*
X146461238Y-86900052D01*
X146509619Y-86996814D01*
X146509619Y-87190338D01*
X146461238Y-87287100D01*
X146412857Y-87335480D01*
X146316095Y-87383861D01*
X146122571Y-87383861D01*
X146025809Y-87335480D01*
X145977428Y-87287100D01*
X145929047Y-87190338D01*
X146896666Y-87722528D02*
X146848285Y-87770909D01*
X146703142Y-87867671D01*
X146606380Y-87916052D01*
X146461238Y-87964433D01*
X146219333Y-88012814D01*
X146025809Y-88012814D01*
X145783904Y-87964433D01*
X145638761Y-87916052D01*
X145542000Y-87867671D01*
X145396857Y-87770909D01*
X145348476Y-87722528D01*
X143969619Y-80417004D02*
X142953619Y-80417004D01*
X143969619Y-80997576D01*
X142953619Y-80997576D01*
X143872857Y-82061957D02*
X143921238Y-82013576D01*
X143969619Y-81868433D01*
X143969619Y-81771671D01*
X143921238Y-81626528D01*
X143824476Y-81529766D01*
X143727714Y-81481385D01*
X143534190Y-81433004D01*
X143389047Y-81433004D01*
X143195523Y-81481385D01*
X143098761Y-81529766D01*
X143002000Y-81626528D01*
X142953619Y-81771671D01*
X142953619Y-81868433D01*
X143002000Y-82013576D01*
X143050380Y-82061957D01*
X141429619Y-80417004D02*
X140413619Y-80417004D01*
X141429619Y-80997576D01*
X140413619Y-80997576D01*
X141332857Y-82061957D02*
X141381238Y-82013576D01*
X141429619Y-81868433D01*
X141429619Y-81771671D01*
X141381238Y-81626528D01*
X141284476Y-81529766D01*
X141187714Y-81481385D01*
X140994190Y-81433004D01*
X140849047Y-81433004D01*
X140655523Y-81481385D01*
X140558761Y-81529766D01*
X140462000Y-81626528D01*
X140413619Y-81771671D01*
X140413619Y-81868433D01*
X140462000Y-82013576D01*
X140510380Y-82061957D01*
X138889619Y-80417004D02*
X137873619Y-80417004D01*
X138889619Y-80997576D01*
X137873619Y-80997576D01*
X138792857Y-82061957D02*
X138841238Y-82013576D01*
X138889619Y-81868433D01*
X138889619Y-81771671D01*
X138841238Y-81626528D01*
X138744476Y-81529766D01*
X138647714Y-81481385D01*
X138454190Y-81433004D01*
X138309047Y-81433004D01*
X138115523Y-81481385D01*
X138018761Y-81529766D01*
X137922000Y-81626528D01*
X137873619Y-81771671D01*
X137873619Y-81868433D01*
X137922000Y-82013576D01*
X137970380Y-82061957D01*
X133809619Y-80417004D02*
X132793619Y-80417004D01*
X133809619Y-80997576D01*
X132793619Y-80997576D01*
X133712857Y-82061957D02*
X133761238Y-82013576D01*
X133809619Y-81868433D01*
X133809619Y-81771671D01*
X133761238Y-81626528D01*
X133664476Y-81529766D01*
X133567714Y-81481385D01*
X133374190Y-81433004D01*
X133229047Y-81433004D01*
X133035523Y-81481385D01*
X132938761Y-81529766D01*
X132842000Y-81626528D01*
X132793619Y-81771671D01*
X132793619Y-81868433D01*
X132842000Y-82013576D01*
X132890380Y-82061957D01*
X135333619Y-80271861D02*
X136349619Y-80610528D01*
X135333619Y-80949195D01*
X135333619Y-81287861D02*
X136156095Y-81287861D01*
X136252857Y-81336242D01*
X136301238Y-81384623D01*
X136349619Y-81481385D01*
X136349619Y-81674909D01*
X136301238Y-81771671D01*
X136252857Y-81820052D01*
X136156095Y-81868433D01*
X135333619Y-81868433D01*
X136301238Y-82303861D02*
X136349619Y-82449004D01*
X136349619Y-82690909D01*
X136301238Y-82787671D01*
X136252857Y-82836052D01*
X136156095Y-82884433D01*
X136059333Y-82884433D01*
X135962571Y-82836052D01*
X135914190Y-82787671D01*
X135865809Y-82690909D01*
X135817428Y-82497385D01*
X135769047Y-82400623D01*
X135720666Y-82352242D01*
X135623904Y-82303861D01*
X135527142Y-82303861D01*
X135430380Y-82352242D01*
X135382000Y-82400623D01*
X135333619Y-82497385D01*
X135333619Y-82739290D01*
X135382000Y-82884433D01*
X135817428Y-83658528D02*
X135865809Y-83803671D01*
X135914190Y-83852052D01*
X136010952Y-83900433D01*
X136156095Y-83900433D01*
X136252857Y-83852052D01*
X136301238Y-83803671D01*
X136349619Y-83706909D01*
X136349619Y-83319861D01*
X135333619Y-83319861D01*
X135333619Y-83658528D01*
X135382000Y-83755290D01*
X135430380Y-83803671D01*
X135527142Y-83852052D01*
X135623904Y-83852052D01*
X135720666Y-83803671D01*
X135769047Y-83755290D01*
X135817428Y-83658528D01*
X135817428Y-83319861D01*
X130737428Y-80755671D02*
X130785809Y-80900814D01*
X130834190Y-80949195D01*
X130930952Y-80997576D01*
X131076095Y-80997576D01*
X131172857Y-80949195D01*
X131221238Y-80900814D01*
X131269619Y-80804052D01*
X131269619Y-80417004D01*
X130253619Y-80417004D01*
X130253619Y-80755671D01*
X130302000Y-80852433D01*
X130350380Y-80900814D01*
X130447142Y-80949195D01*
X130543904Y-80949195D01*
X130640666Y-80900814D01*
X130689047Y-80852433D01*
X130737428Y-80755671D01*
X130737428Y-80417004D01*
X130979333Y-81384623D02*
X130979333Y-81868433D01*
X131269619Y-81287861D02*
X130253619Y-81626528D01*
X131269619Y-81965195D01*
X130253619Y-82158719D02*
X130253619Y-82739290D01*
X131269619Y-82449004D02*
X130253619Y-82449004D01*
D13*
X172188000Y-96154000D02*
X172188000Y-82154000D01*
X172188000Y-96154000D02*
X156488000Y-96154000D01*
X172188000Y-82154000D02*
X156488000Y-82154000D01*
X156488000Y-96154000D02*
X156488000Y-82154000D01*
X171538000Y-96154000D02*
X171538000Y-97854000D01*
X169738000Y-96154000D02*
X169738000Y-97854000D01*
X169738000Y-97854000D02*
X171538000Y-97854000D01*
D12*
X171729304Y-98588580D02*
X171729304Y-99398104D01*
X171681685Y-99493342D01*
X171634066Y-99540961D01*
X171538828Y-99588580D01*
X171348352Y-99588580D01*
X171253114Y-99540961D01*
X171205495Y-99493342D01*
X171157876Y-99398104D01*
X171157876Y-98588580D01*
X170776923Y-98588580D02*
X170110257Y-98588580D01*
X170538828Y-99588580D01*
M02*
