G04 #@! TF.GenerationSoftware,KiCad,Pcbnew,(5.1.4)-1*
G04 #@! TF.CreationDate,2020-01-01T11:40:28-06:00*
G04 #@! TF.ProjectId,loRaWan1262_jlc,6c6f5261-5761-46e3-9132-36325f6a6c63,rev?*
G04 #@! TF.SameCoordinates,Original*
G04 #@! TF.FileFunction,Soldermask,Bot*
G04 #@! TF.FilePolarity,Negative*
%FSLAX46Y46*%
G04 Gerber Fmt 4.6, Leading zero omitted, Abs format (unit mm)*
G04 Created by KiCad (PCBNEW (5.1.4)-1) date 2020-01-01 11:40:28*
%MOMM*%
%LPD*%
G04 APERTURE LIST*
%ADD10C,0.100000*%
G04 APERTURE END LIST*
D10*
G36*
X117488279Y-95906909D02*
G01*
X117488281Y-95906910D01*
X117488282Y-95906910D01*
X117892750Y-96074446D01*
X118133785Y-96235501D01*
X118256761Y-96317671D01*
X118566329Y-96627239D01*
X118566332Y-96627244D01*
X118809554Y-96991250D01*
X118977090Y-97395718D01*
X118977091Y-97395721D01*
X119062500Y-97825103D01*
X119062500Y-98262897D01*
X119020052Y-98476300D01*
X118977090Y-98692282D01*
X118809554Y-99096750D01*
X118713600Y-99240354D01*
X118566329Y-99460761D01*
X118256761Y-99770329D01*
X118133785Y-99852499D01*
X117892750Y-100013554D01*
X117488282Y-100181090D01*
X117488281Y-100181090D01*
X117488279Y-100181091D01*
X117058897Y-100266500D01*
X116621103Y-100266500D01*
X116191721Y-100181091D01*
X116191719Y-100181090D01*
X116191718Y-100181090D01*
X115787250Y-100013554D01*
X115546215Y-99852499D01*
X115423239Y-99770329D01*
X115113671Y-99460761D01*
X114966400Y-99240354D01*
X114870446Y-99096750D01*
X114702910Y-98692282D01*
X114659949Y-98476300D01*
X114617500Y-98262897D01*
X114617500Y-97825103D01*
X114702909Y-97395721D01*
X114702910Y-97395718D01*
X114870446Y-96991250D01*
X115113668Y-96627244D01*
X115113671Y-96627239D01*
X115423239Y-96317671D01*
X115546215Y-96235501D01*
X115787250Y-96074446D01*
X116191718Y-95906910D01*
X116191719Y-95906910D01*
X116191721Y-95906909D01*
X116621103Y-95821500D01*
X117058897Y-95821500D01*
X117488279Y-95906909D01*
X117488279Y-95906909D01*
G37*
G36*
X153836626Y-98476299D02*
G01*
X153996857Y-98524903D01*
X154144521Y-98603832D01*
X154273950Y-98710050D01*
X154380168Y-98839479D01*
X154459097Y-98987143D01*
X154507701Y-99147374D01*
X154524113Y-99314000D01*
X154507701Y-99480626D01*
X154459097Y-99640857D01*
X154380168Y-99788521D01*
X154273950Y-99917950D01*
X154144521Y-100024168D01*
X153996857Y-100103097D01*
X153836626Y-100151701D01*
X153711759Y-100164000D01*
X153628241Y-100164000D01*
X153503374Y-100151701D01*
X153343143Y-100103097D01*
X153195479Y-100024168D01*
X153066050Y-99917950D01*
X152959832Y-99788521D01*
X152880903Y-99640857D01*
X152832299Y-99480626D01*
X152815887Y-99314000D01*
X152832299Y-99147374D01*
X152880903Y-98987143D01*
X152959832Y-98839479D01*
X153066050Y-98710050D01*
X153195479Y-98603832D01*
X153343143Y-98524903D01*
X153503374Y-98476299D01*
X153628241Y-98464000D01*
X153711759Y-98464000D01*
X153836626Y-98476299D01*
X153836626Y-98476299D01*
G37*
G36*
X156376626Y-98476299D02*
G01*
X156536857Y-98524903D01*
X156684521Y-98603832D01*
X156813950Y-98710050D01*
X156920168Y-98839479D01*
X156999097Y-98987143D01*
X157047701Y-99147374D01*
X157064113Y-99314000D01*
X157047701Y-99480626D01*
X156999097Y-99640857D01*
X156920168Y-99788521D01*
X156813950Y-99917950D01*
X156684521Y-100024168D01*
X156536857Y-100103097D01*
X156376626Y-100151701D01*
X156251759Y-100164000D01*
X156168241Y-100164000D01*
X156043374Y-100151701D01*
X155883143Y-100103097D01*
X155735479Y-100024168D01*
X155606050Y-99917950D01*
X155499832Y-99788521D01*
X155420903Y-99640857D01*
X155372299Y-99480626D01*
X155355887Y-99314000D01*
X155372299Y-99147374D01*
X155420903Y-98987143D01*
X155499832Y-98839479D01*
X155606050Y-98710050D01*
X155735479Y-98603832D01*
X155883143Y-98524903D01*
X156043374Y-98476299D01*
X156168241Y-98464000D01*
X156251759Y-98464000D01*
X156376626Y-98476299D01*
X156376626Y-98476299D01*
G37*
G36*
X151296626Y-98476299D02*
G01*
X151456857Y-98524903D01*
X151604521Y-98603832D01*
X151733950Y-98710050D01*
X151840168Y-98839479D01*
X151919097Y-98987143D01*
X151967701Y-99147374D01*
X151984113Y-99314000D01*
X151967701Y-99480626D01*
X151919097Y-99640857D01*
X151840168Y-99788521D01*
X151733950Y-99917950D01*
X151604521Y-100024168D01*
X151456857Y-100103097D01*
X151296626Y-100151701D01*
X151171759Y-100164000D01*
X151088241Y-100164000D01*
X150963374Y-100151701D01*
X150803143Y-100103097D01*
X150655479Y-100024168D01*
X150526050Y-99917950D01*
X150419832Y-99788521D01*
X150340903Y-99640857D01*
X150292299Y-99480626D01*
X150275887Y-99314000D01*
X150292299Y-99147374D01*
X150340903Y-98987143D01*
X150419832Y-98839479D01*
X150526050Y-98710050D01*
X150655479Y-98603832D01*
X150803143Y-98524903D01*
X150963374Y-98476299D01*
X151088241Y-98464000D01*
X151171759Y-98464000D01*
X151296626Y-98476299D01*
X151296626Y-98476299D01*
G37*
G36*
X148756626Y-98476299D02*
G01*
X148916857Y-98524903D01*
X149064521Y-98603832D01*
X149193950Y-98710050D01*
X149300168Y-98839479D01*
X149379097Y-98987143D01*
X149427701Y-99147374D01*
X149444113Y-99314000D01*
X149427701Y-99480626D01*
X149379097Y-99640857D01*
X149300168Y-99788521D01*
X149193950Y-99917950D01*
X149064521Y-100024168D01*
X148916857Y-100103097D01*
X148756626Y-100151701D01*
X148631759Y-100164000D01*
X148548241Y-100164000D01*
X148423374Y-100151701D01*
X148263143Y-100103097D01*
X148115479Y-100024168D01*
X147986050Y-99917950D01*
X147879832Y-99788521D01*
X147800903Y-99640857D01*
X147752299Y-99480626D01*
X147735887Y-99314000D01*
X147752299Y-99147374D01*
X147800903Y-98987143D01*
X147879832Y-98839479D01*
X147986050Y-98710050D01*
X148115479Y-98603832D01*
X148263143Y-98524903D01*
X148423374Y-98476299D01*
X148548241Y-98464000D01*
X148631759Y-98464000D01*
X148756626Y-98476299D01*
X148756626Y-98476299D01*
G37*
G36*
X146216626Y-98476299D02*
G01*
X146376857Y-98524903D01*
X146524521Y-98603832D01*
X146653950Y-98710050D01*
X146760168Y-98839479D01*
X146839097Y-98987143D01*
X146887701Y-99147374D01*
X146904113Y-99314000D01*
X146887701Y-99480626D01*
X146839097Y-99640857D01*
X146760168Y-99788521D01*
X146653950Y-99917950D01*
X146524521Y-100024168D01*
X146376857Y-100103097D01*
X146216626Y-100151701D01*
X146091759Y-100164000D01*
X146008241Y-100164000D01*
X145883374Y-100151701D01*
X145723143Y-100103097D01*
X145575479Y-100024168D01*
X145446050Y-99917950D01*
X145339832Y-99788521D01*
X145260903Y-99640857D01*
X145212299Y-99480626D01*
X145195887Y-99314000D01*
X145212299Y-99147374D01*
X145260903Y-98987143D01*
X145339832Y-98839479D01*
X145446050Y-98710050D01*
X145575479Y-98603832D01*
X145723143Y-98524903D01*
X145883374Y-98476299D01*
X146008241Y-98464000D01*
X146091759Y-98464000D01*
X146216626Y-98476299D01*
X146216626Y-98476299D01*
G37*
G36*
X143676626Y-98476299D02*
G01*
X143836857Y-98524903D01*
X143984521Y-98603832D01*
X144113950Y-98710050D01*
X144220168Y-98839479D01*
X144299097Y-98987143D01*
X144347701Y-99147374D01*
X144364113Y-99314000D01*
X144347701Y-99480626D01*
X144299097Y-99640857D01*
X144220168Y-99788521D01*
X144113950Y-99917950D01*
X143984521Y-100024168D01*
X143836857Y-100103097D01*
X143676626Y-100151701D01*
X143551759Y-100164000D01*
X143468241Y-100164000D01*
X143343374Y-100151701D01*
X143183143Y-100103097D01*
X143035479Y-100024168D01*
X142906050Y-99917950D01*
X142799832Y-99788521D01*
X142720903Y-99640857D01*
X142672299Y-99480626D01*
X142655887Y-99314000D01*
X142672299Y-99147374D01*
X142720903Y-98987143D01*
X142799832Y-98839479D01*
X142906050Y-98710050D01*
X143035479Y-98603832D01*
X143183143Y-98524903D01*
X143343374Y-98476299D01*
X143468241Y-98464000D01*
X143551759Y-98464000D01*
X143676626Y-98476299D01*
X143676626Y-98476299D01*
G37*
G36*
X141136626Y-98476299D02*
G01*
X141296857Y-98524903D01*
X141444521Y-98603832D01*
X141573950Y-98710050D01*
X141680168Y-98839479D01*
X141759097Y-98987143D01*
X141807701Y-99147374D01*
X141824113Y-99314000D01*
X141807701Y-99480626D01*
X141759097Y-99640857D01*
X141680168Y-99788521D01*
X141573950Y-99917950D01*
X141444521Y-100024168D01*
X141296857Y-100103097D01*
X141136626Y-100151701D01*
X141011759Y-100164000D01*
X140928241Y-100164000D01*
X140803374Y-100151701D01*
X140643143Y-100103097D01*
X140495479Y-100024168D01*
X140366050Y-99917950D01*
X140259832Y-99788521D01*
X140180903Y-99640857D01*
X140132299Y-99480626D01*
X140115887Y-99314000D01*
X140132299Y-99147374D01*
X140180903Y-98987143D01*
X140259832Y-98839479D01*
X140366050Y-98710050D01*
X140495479Y-98603832D01*
X140643143Y-98524903D01*
X140803374Y-98476299D01*
X140928241Y-98464000D01*
X141011759Y-98464000D01*
X141136626Y-98476299D01*
X141136626Y-98476299D01*
G37*
G36*
X138596626Y-98476299D02*
G01*
X138756857Y-98524903D01*
X138904521Y-98603832D01*
X139033950Y-98710050D01*
X139140168Y-98839479D01*
X139219097Y-98987143D01*
X139267701Y-99147374D01*
X139284113Y-99314000D01*
X139267701Y-99480626D01*
X139219097Y-99640857D01*
X139140168Y-99788521D01*
X139033950Y-99917950D01*
X138904521Y-100024168D01*
X138756857Y-100103097D01*
X138596626Y-100151701D01*
X138471759Y-100164000D01*
X138388241Y-100164000D01*
X138263374Y-100151701D01*
X138103143Y-100103097D01*
X137955479Y-100024168D01*
X137826050Y-99917950D01*
X137719832Y-99788521D01*
X137640903Y-99640857D01*
X137592299Y-99480626D01*
X137575887Y-99314000D01*
X137592299Y-99147374D01*
X137640903Y-98987143D01*
X137719832Y-98839479D01*
X137826050Y-98710050D01*
X137955479Y-98603832D01*
X138103143Y-98524903D01*
X138263374Y-98476299D01*
X138388241Y-98464000D01*
X138471759Y-98464000D01*
X138596626Y-98476299D01*
X138596626Y-98476299D01*
G37*
G36*
X133516626Y-98476299D02*
G01*
X133676857Y-98524903D01*
X133824521Y-98603832D01*
X133953950Y-98710050D01*
X134060168Y-98839479D01*
X134139097Y-98987143D01*
X134187701Y-99147374D01*
X134204113Y-99314000D01*
X134187701Y-99480626D01*
X134139097Y-99640857D01*
X134060168Y-99788521D01*
X133953950Y-99917950D01*
X133824521Y-100024168D01*
X133676857Y-100103097D01*
X133516626Y-100151701D01*
X133391759Y-100164000D01*
X133308241Y-100164000D01*
X133183374Y-100151701D01*
X133023143Y-100103097D01*
X132875479Y-100024168D01*
X132746050Y-99917950D01*
X132639832Y-99788521D01*
X132560903Y-99640857D01*
X132512299Y-99480626D01*
X132495887Y-99314000D01*
X132512299Y-99147374D01*
X132560903Y-98987143D01*
X132639832Y-98839479D01*
X132746050Y-98710050D01*
X132875479Y-98603832D01*
X133023143Y-98524903D01*
X133183374Y-98476299D01*
X133308241Y-98464000D01*
X133391759Y-98464000D01*
X133516626Y-98476299D01*
X133516626Y-98476299D01*
G37*
G36*
X121500000Y-100164000D02*
G01*
X119800000Y-100164000D01*
X119800000Y-98464000D01*
X121500000Y-98464000D01*
X121500000Y-100164000D01*
X121500000Y-100164000D01*
G37*
G36*
X158916626Y-98476299D02*
G01*
X159076857Y-98524903D01*
X159224521Y-98603832D01*
X159353950Y-98710050D01*
X159460168Y-98839479D01*
X159539097Y-98987143D01*
X159587701Y-99147374D01*
X159604113Y-99314000D01*
X159587701Y-99480626D01*
X159539097Y-99640857D01*
X159460168Y-99788521D01*
X159353950Y-99917950D01*
X159224521Y-100024168D01*
X159076857Y-100103097D01*
X158916626Y-100151701D01*
X158791759Y-100164000D01*
X158708241Y-100164000D01*
X158583374Y-100151701D01*
X158423143Y-100103097D01*
X158275479Y-100024168D01*
X158146050Y-99917950D01*
X158039832Y-99788521D01*
X157960903Y-99640857D01*
X157912299Y-99480626D01*
X157895887Y-99314000D01*
X157912299Y-99147374D01*
X157960903Y-98987143D01*
X158039832Y-98839479D01*
X158146050Y-98710050D01*
X158275479Y-98603832D01*
X158423143Y-98524903D01*
X158583374Y-98476299D01*
X158708241Y-98464000D01*
X158791759Y-98464000D01*
X158916626Y-98476299D01*
X158916626Y-98476299D01*
G37*
G36*
X123356626Y-98476299D02*
G01*
X123516857Y-98524903D01*
X123664521Y-98603832D01*
X123793950Y-98710050D01*
X123900168Y-98839479D01*
X123979097Y-98987143D01*
X124027701Y-99147374D01*
X124044113Y-99314000D01*
X124027701Y-99480626D01*
X123979097Y-99640857D01*
X123900168Y-99788521D01*
X123793950Y-99917950D01*
X123664521Y-100024168D01*
X123516857Y-100103097D01*
X123356626Y-100151701D01*
X123231759Y-100164000D01*
X123148241Y-100164000D01*
X123023374Y-100151701D01*
X122863143Y-100103097D01*
X122715479Y-100024168D01*
X122586050Y-99917950D01*
X122479832Y-99788521D01*
X122400903Y-99640857D01*
X122352299Y-99480626D01*
X122335887Y-99314000D01*
X122352299Y-99147374D01*
X122400903Y-98987143D01*
X122479832Y-98839479D01*
X122586050Y-98710050D01*
X122715479Y-98603832D01*
X122863143Y-98524903D01*
X123023374Y-98476299D01*
X123148241Y-98464000D01*
X123231759Y-98464000D01*
X123356626Y-98476299D01*
X123356626Y-98476299D01*
G37*
G36*
X128436626Y-98476299D02*
G01*
X128596857Y-98524903D01*
X128744521Y-98603832D01*
X128873950Y-98710050D01*
X128980168Y-98839479D01*
X129059097Y-98987143D01*
X129107701Y-99147374D01*
X129124113Y-99314000D01*
X129107701Y-99480626D01*
X129059097Y-99640857D01*
X128980168Y-99788521D01*
X128873950Y-99917950D01*
X128744521Y-100024168D01*
X128596857Y-100103097D01*
X128436626Y-100151701D01*
X128311759Y-100164000D01*
X128228241Y-100164000D01*
X128103374Y-100151701D01*
X127943143Y-100103097D01*
X127795479Y-100024168D01*
X127666050Y-99917950D01*
X127559832Y-99788521D01*
X127480903Y-99640857D01*
X127432299Y-99480626D01*
X127415887Y-99314000D01*
X127432299Y-99147374D01*
X127480903Y-98987143D01*
X127559832Y-98839479D01*
X127666050Y-98710050D01*
X127795479Y-98603832D01*
X127943143Y-98524903D01*
X128103374Y-98476299D01*
X128228241Y-98464000D01*
X128311759Y-98464000D01*
X128436626Y-98476299D01*
X128436626Y-98476299D01*
G37*
G36*
X136056626Y-98476299D02*
G01*
X136216857Y-98524903D01*
X136364521Y-98603832D01*
X136493950Y-98710050D01*
X136600168Y-98839479D01*
X136679097Y-98987143D01*
X136727701Y-99147374D01*
X136744113Y-99314000D01*
X136727701Y-99480626D01*
X136679097Y-99640857D01*
X136600168Y-99788521D01*
X136493950Y-99917950D01*
X136364521Y-100024168D01*
X136216857Y-100103097D01*
X136056626Y-100151701D01*
X135931759Y-100164000D01*
X135848241Y-100164000D01*
X135723374Y-100151701D01*
X135563143Y-100103097D01*
X135415479Y-100024168D01*
X135286050Y-99917950D01*
X135179832Y-99788521D01*
X135100903Y-99640857D01*
X135052299Y-99480626D01*
X135035887Y-99314000D01*
X135052299Y-99147374D01*
X135100903Y-98987143D01*
X135179832Y-98839479D01*
X135286050Y-98710050D01*
X135415479Y-98603832D01*
X135563143Y-98524903D01*
X135723374Y-98476299D01*
X135848241Y-98464000D01*
X135931759Y-98464000D01*
X136056626Y-98476299D01*
X136056626Y-98476299D01*
G37*
G36*
X130976626Y-98476299D02*
G01*
X131136857Y-98524903D01*
X131284521Y-98603832D01*
X131413950Y-98710050D01*
X131520168Y-98839479D01*
X131599097Y-98987143D01*
X131647701Y-99147374D01*
X131664113Y-99314000D01*
X131647701Y-99480626D01*
X131599097Y-99640857D01*
X131520168Y-99788521D01*
X131413950Y-99917950D01*
X131284521Y-100024168D01*
X131136857Y-100103097D01*
X130976626Y-100151701D01*
X130851759Y-100164000D01*
X130768241Y-100164000D01*
X130643374Y-100151701D01*
X130483143Y-100103097D01*
X130335479Y-100024168D01*
X130206050Y-99917950D01*
X130099832Y-99788521D01*
X130020903Y-99640857D01*
X129972299Y-99480626D01*
X129955887Y-99314000D01*
X129972299Y-99147374D01*
X130020903Y-98987143D01*
X130099832Y-98839479D01*
X130206050Y-98710050D01*
X130335479Y-98603832D01*
X130483143Y-98524903D01*
X130643374Y-98476299D01*
X130768241Y-98464000D01*
X130851759Y-98464000D01*
X130976626Y-98476299D01*
X130976626Y-98476299D01*
G37*
G36*
X125896626Y-98476299D02*
G01*
X126056857Y-98524903D01*
X126204521Y-98603832D01*
X126333950Y-98710050D01*
X126440168Y-98839479D01*
X126519097Y-98987143D01*
X126567701Y-99147374D01*
X126584113Y-99314000D01*
X126567701Y-99480626D01*
X126519097Y-99640857D01*
X126440168Y-99788521D01*
X126333950Y-99917950D01*
X126204521Y-100024168D01*
X126056857Y-100103097D01*
X125896626Y-100151701D01*
X125771759Y-100164000D01*
X125688241Y-100164000D01*
X125563374Y-100151701D01*
X125403143Y-100103097D01*
X125255479Y-100024168D01*
X125126050Y-99917950D01*
X125019832Y-99788521D01*
X124940903Y-99640857D01*
X124892299Y-99480626D01*
X124875887Y-99314000D01*
X124892299Y-99147374D01*
X124940903Y-98987143D01*
X125019832Y-98839479D01*
X125126050Y-98710050D01*
X125255479Y-98603832D01*
X125403143Y-98524903D01*
X125563374Y-98476299D01*
X125688241Y-98464000D01*
X125771759Y-98464000D01*
X125896626Y-98476299D01*
X125896626Y-98476299D01*
G37*
G36*
X175458167Y-96706970D02*
G01*
X175653783Y-96745880D01*
X175899466Y-96847646D01*
X176120570Y-96995383D01*
X176120572Y-96995385D01*
X176120575Y-96995387D01*
X176308613Y-97183425D01*
X176308615Y-97183428D01*
X176308617Y-97183430D01*
X176456354Y-97404534D01*
X176558120Y-97650217D01*
X176610000Y-97911038D01*
X176610000Y-98176962D01*
X176558120Y-98437783D01*
X176456354Y-98683466D01*
X176308617Y-98904570D01*
X176308615Y-98904572D01*
X176308613Y-98904575D01*
X176120575Y-99092613D01*
X176120572Y-99092615D01*
X176120570Y-99092617D01*
X175899466Y-99240354D01*
X175653783Y-99342120D01*
X175458167Y-99381030D01*
X175392963Y-99394000D01*
X175127037Y-99394000D01*
X175061833Y-99381030D01*
X174866217Y-99342120D01*
X174620534Y-99240354D01*
X174399430Y-99092617D01*
X174399428Y-99092615D01*
X174399425Y-99092613D01*
X174211387Y-98904575D01*
X174211385Y-98904572D01*
X174211383Y-98904570D01*
X174063646Y-98683466D01*
X173961880Y-98437783D01*
X173910000Y-98176962D01*
X173910000Y-97911038D01*
X173961880Y-97650217D01*
X174063646Y-97404534D01*
X174211383Y-97183430D01*
X174211385Y-97183428D01*
X174211387Y-97183425D01*
X174399425Y-96995387D01*
X174399428Y-96995385D01*
X174399430Y-96995383D01*
X174620534Y-96847646D01*
X174866217Y-96745880D01*
X175061833Y-96706970D01*
X175127037Y-96694000D01*
X175392963Y-96694000D01*
X175458167Y-96706970D01*
X175458167Y-96706970D01*
G37*
G36*
X171338000Y-97654000D02*
G01*
X169938000Y-97654000D01*
X169938000Y-94654000D01*
X171338000Y-94654000D01*
X171338000Y-97654000D01*
X171338000Y-97654000D01*
G37*
G36*
X169538000Y-97654000D02*
G01*
X168138000Y-97654000D01*
X168138000Y-94654000D01*
X169538000Y-94654000D01*
X169538000Y-97654000D01*
X169538000Y-97654000D01*
G37*
G36*
X167738000Y-97654000D02*
G01*
X166338000Y-97654000D01*
X166338000Y-94654000D01*
X167738000Y-94654000D01*
X167738000Y-97654000D01*
X167738000Y-97654000D01*
G37*
G36*
X165938000Y-97654000D02*
G01*
X164538000Y-97654000D01*
X164538000Y-94654000D01*
X165938000Y-94654000D01*
X165938000Y-97654000D01*
X165938000Y-97654000D01*
G37*
G36*
X164138000Y-97654000D02*
G01*
X162738000Y-97654000D01*
X162738000Y-94654000D01*
X164138000Y-94654000D01*
X164138000Y-97654000D01*
X164138000Y-97654000D01*
G37*
G36*
X162338000Y-97654000D02*
G01*
X160938000Y-97654000D01*
X160938000Y-94654000D01*
X162338000Y-94654000D01*
X162338000Y-97654000D01*
X162338000Y-97654000D01*
G37*
G36*
X160538000Y-97654000D02*
G01*
X159138000Y-97654000D01*
X159138000Y-94654000D01*
X160538000Y-94654000D01*
X160538000Y-97654000D01*
X160538000Y-97654000D01*
G37*
G36*
X158738000Y-97654000D02*
G01*
X157338000Y-97654000D01*
X157338000Y-94654000D01*
X158738000Y-94654000D01*
X158738000Y-97654000D01*
X158738000Y-97654000D01*
G37*
G36*
X177772600Y-95883000D02*
G01*
X173712600Y-95883000D01*
X173712600Y-94363000D01*
X177772600Y-94363000D01*
X177772600Y-95883000D01*
X177772600Y-95883000D01*
G37*
G36*
X175171042Y-91716406D02*
G01*
X175297831Y-91741626D01*
X175457065Y-91807583D01*
X175457068Y-91807585D01*
X175600380Y-91903343D01*
X175722257Y-92025220D01*
X175761355Y-92083734D01*
X175818017Y-92168535D01*
X175883974Y-92327769D01*
X175890972Y-92362953D01*
X175917600Y-92496820D01*
X175917600Y-92669180D01*
X175915254Y-92680972D01*
X175883974Y-92838231D01*
X175818017Y-92997465D01*
X175818015Y-92997468D01*
X175722257Y-93140780D01*
X175600380Y-93262657D01*
X175457068Y-93358415D01*
X175457065Y-93358417D01*
X175297831Y-93424374D01*
X175171042Y-93449594D01*
X175128780Y-93458000D01*
X174956420Y-93458000D01*
X174914158Y-93449594D01*
X174787369Y-93424374D01*
X174628135Y-93358417D01*
X174628132Y-93358415D01*
X174484820Y-93262657D01*
X174362943Y-93140780D01*
X174267185Y-92997468D01*
X174267183Y-92997465D01*
X174201226Y-92838231D01*
X174169946Y-92680972D01*
X174167600Y-92669180D01*
X174167600Y-92496820D01*
X174194228Y-92362953D01*
X174201226Y-92327769D01*
X174267183Y-92168535D01*
X174323845Y-92083734D01*
X174362943Y-92025220D01*
X174484820Y-91903343D01*
X174628132Y-91807585D01*
X174628135Y-91807583D01*
X174787369Y-91741626D01*
X174914158Y-91716407D01*
X174956420Y-91708000D01*
X175128780Y-91708000D01*
X175171042Y-91716406D01*
X175171042Y-91716406D01*
G37*
G36*
X129322007Y-92604028D02*
G01*
X129322009Y-92604029D01*
X129322010Y-92604029D01*
X129373906Y-92625526D01*
X129376603Y-92626643D01*
X129425739Y-92659474D01*
X129467526Y-92701261D01*
X129467529Y-92701266D01*
X129500357Y-92750397D01*
X129522971Y-92804990D01*
X129534500Y-92862953D01*
X129534500Y-92922047D01*
X129522971Y-92980010D01*
X129515739Y-92997468D01*
X129500357Y-93034603D01*
X129467526Y-93083739D01*
X129425739Y-93125526D01*
X129402912Y-93140778D01*
X129376603Y-93158357D01*
X129322010Y-93180971D01*
X129322009Y-93180971D01*
X129322007Y-93180972D01*
X129264047Y-93192500D01*
X129204953Y-93192500D01*
X129146993Y-93180972D01*
X129146991Y-93180971D01*
X129146990Y-93180971D01*
X129092397Y-93158357D01*
X129066088Y-93140778D01*
X129043261Y-93125526D01*
X129001474Y-93083739D01*
X128968643Y-93034603D01*
X128953261Y-92997468D01*
X128946029Y-92980010D01*
X128934500Y-92922047D01*
X128934500Y-92862953D01*
X128946029Y-92804990D01*
X128968643Y-92750397D01*
X129001471Y-92701266D01*
X129001474Y-92701261D01*
X129043261Y-92659474D01*
X129092397Y-92626643D01*
X129095094Y-92625526D01*
X129146990Y-92604029D01*
X129146991Y-92604029D01*
X129146993Y-92604028D01*
X129204953Y-92592500D01*
X129264047Y-92592500D01*
X129322007Y-92604028D01*
X129322007Y-92604028D01*
G37*
G36*
X130822007Y-92604028D02*
G01*
X130822009Y-92604029D01*
X130822010Y-92604029D01*
X130873906Y-92625526D01*
X130876603Y-92626643D01*
X130925739Y-92659474D01*
X130967526Y-92701261D01*
X130967529Y-92701266D01*
X131000357Y-92750397D01*
X131022971Y-92804990D01*
X131034500Y-92862953D01*
X131034500Y-92922047D01*
X131022971Y-92980010D01*
X131015739Y-92997468D01*
X131000357Y-93034603D01*
X130967526Y-93083739D01*
X130925739Y-93125526D01*
X130902912Y-93140778D01*
X130876603Y-93158357D01*
X130822010Y-93180971D01*
X130822009Y-93180971D01*
X130822007Y-93180972D01*
X130764047Y-93192500D01*
X130704953Y-93192500D01*
X130646993Y-93180972D01*
X130646991Y-93180971D01*
X130646990Y-93180971D01*
X130592397Y-93158357D01*
X130566088Y-93140778D01*
X130543261Y-93125526D01*
X130501474Y-93083739D01*
X130468643Y-93034603D01*
X130453261Y-92997468D01*
X130446029Y-92980010D01*
X130434500Y-92922047D01*
X130434500Y-92862953D01*
X130446029Y-92804990D01*
X130468643Y-92750397D01*
X130501471Y-92701266D01*
X130501474Y-92701261D01*
X130543261Y-92659474D01*
X130592397Y-92626643D01*
X130595094Y-92625526D01*
X130646990Y-92604029D01*
X130646991Y-92604029D01*
X130646993Y-92604028D01*
X130704953Y-92592500D01*
X130764047Y-92592500D01*
X130822007Y-92604028D01*
X130822007Y-92604028D01*
G37*
G36*
X130072007Y-92104028D02*
G01*
X130072009Y-92104029D01*
X130072010Y-92104029D01*
X130107092Y-92118561D01*
X130126603Y-92126643D01*
X130175739Y-92159474D01*
X130217526Y-92201261D01*
X130250357Y-92250397D01*
X130272972Y-92304993D01*
X130279657Y-92338606D01*
X130284500Y-92362953D01*
X130284500Y-92422047D01*
X130272971Y-92480010D01*
X130266008Y-92496820D01*
X130250357Y-92534603D01*
X130217526Y-92583739D01*
X130175739Y-92625526D01*
X130174067Y-92626643D01*
X130126603Y-92658357D01*
X130072010Y-92680971D01*
X130072009Y-92680971D01*
X130072007Y-92680972D01*
X130014047Y-92692500D01*
X129954953Y-92692500D01*
X129896993Y-92680972D01*
X129896991Y-92680971D01*
X129896990Y-92680971D01*
X129842397Y-92658357D01*
X129794933Y-92626643D01*
X129793261Y-92625526D01*
X129751474Y-92583739D01*
X129718643Y-92534603D01*
X129702992Y-92496820D01*
X129696029Y-92480010D01*
X129684500Y-92422047D01*
X129684500Y-92362953D01*
X129689343Y-92338606D01*
X129696028Y-92304993D01*
X129718643Y-92250397D01*
X129751474Y-92201261D01*
X129793261Y-92159474D01*
X129842397Y-92126643D01*
X129861908Y-92118561D01*
X129896990Y-92104029D01*
X129896991Y-92104029D01*
X129896993Y-92104028D01*
X129954953Y-92092500D01*
X130014047Y-92092500D01*
X130072007Y-92104028D01*
X130072007Y-92104028D01*
G37*
G36*
X116211950Y-91186442D02*
G01*
X116286323Y-91193767D01*
X116413561Y-91232364D01*
X116413564Y-91232365D01*
X116530826Y-91295043D01*
X116633607Y-91379393D01*
X116717957Y-91482174D01*
X116780635Y-91599436D01*
X116780636Y-91599439D01*
X116819233Y-91726677D01*
X116832266Y-91859000D01*
X116819233Y-91991323D01*
X116785044Y-92104029D01*
X116780635Y-92118564D01*
X116717957Y-92235826D01*
X116633607Y-92338607D01*
X116530826Y-92422957D01*
X116413564Y-92485635D01*
X116413561Y-92485636D01*
X116286323Y-92524233D01*
X116211950Y-92531558D01*
X116187160Y-92534000D01*
X115770840Y-92534000D01*
X115746050Y-92531558D01*
X115671677Y-92524233D01*
X115544439Y-92485636D01*
X115544436Y-92485635D01*
X115427174Y-92422957D01*
X115324393Y-92338607D01*
X115240043Y-92235826D01*
X115177365Y-92118564D01*
X115172956Y-92104029D01*
X115138767Y-91991323D01*
X115125734Y-91859000D01*
X115138767Y-91726677D01*
X115177364Y-91599439D01*
X115177365Y-91599436D01*
X115240043Y-91482174D01*
X115324393Y-91379393D01*
X115427174Y-91295043D01*
X115544436Y-91232365D01*
X115544439Y-91232364D01*
X115671677Y-91193767D01*
X115746050Y-91186442D01*
X115770840Y-91184000D01*
X116187160Y-91184000D01*
X116211950Y-91186442D01*
X116211950Y-91186442D01*
G37*
G36*
X130822007Y-91604028D02*
G01*
X130822009Y-91604029D01*
X130822010Y-91604029D01*
X130876603Y-91626643D01*
X130925739Y-91659474D01*
X130967526Y-91701261D01*
X131000357Y-91750397D01*
X131022972Y-91804993D01*
X131033125Y-91856041D01*
X131034500Y-91862953D01*
X131034500Y-91922047D01*
X131022971Y-91980010D01*
X131004244Y-92025220D01*
X131000357Y-92034603D01*
X130967526Y-92083739D01*
X130925739Y-92125526D01*
X130924067Y-92126643D01*
X130876603Y-92158357D01*
X130822010Y-92180971D01*
X130822009Y-92180971D01*
X130822007Y-92180972D01*
X130764047Y-92192500D01*
X130704953Y-92192500D01*
X130646993Y-92180972D01*
X130646991Y-92180971D01*
X130646990Y-92180971D01*
X130592397Y-92158357D01*
X130544933Y-92126643D01*
X130543261Y-92125526D01*
X130501474Y-92083739D01*
X130468643Y-92034603D01*
X130464756Y-92025220D01*
X130446029Y-91980010D01*
X130434500Y-91922047D01*
X130434500Y-91862953D01*
X130435875Y-91856041D01*
X130446028Y-91804993D01*
X130468643Y-91750397D01*
X130501474Y-91701261D01*
X130543261Y-91659474D01*
X130592397Y-91626643D01*
X130646990Y-91604029D01*
X130646991Y-91604029D01*
X130646993Y-91604028D01*
X130704953Y-91592500D01*
X130764047Y-91592500D01*
X130822007Y-91604028D01*
X130822007Y-91604028D01*
G37*
G36*
X129322007Y-91604028D02*
G01*
X129322009Y-91604029D01*
X129322010Y-91604029D01*
X129376603Y-91626643D01*
X129425739Y-91659474D01*
X129467526Y-91701261D01*
X129500357Y-91750397D01*
X129522972Y-91804993D01*
X129533125Y-91856041D01*
X129534500Y-91862953D01*
X129534500Y-91922047D01*
X129522971Y-91980010D01*
X129504244Y-92025220D01*
X129500357Y-92034603D01*
X129467526Y-92083739D01*
X129425739Y-92125526D01*
X129424067Y-92126643D01*
X129376603Y-92158357D01*
X129322010Y-92180971D01*
X129322009Y-92180971D01*
X129322007Y-92180972D01*
X129264047Y-92192500D01*
X129204953Y-92192500D01*
X129146993Y-92180972D01*
X129146991Y-92180971D01*
X129146990Y-92180971D01*
X129092397Y-92158357D01*
X129044933Y-92126643D01*
X129043261Y-92125526D01*
X129001474Y-92083739D01*
X128968643Y-92034603D01*
X128964756Y-92025220D01*
X128946029Y-91980010D01*
X128934500Y-91922047D01*
X128934500Y-91862953D01*
X128935875Y-91856041D01*
X128946028Y-91804993D01*
X128968643Y-91750397D01*
X129001474Y-91701261D01*
X129043261Y-91659474D01*
X129092397Y-91626643D01*
X129146990Y-91604029D01*
X129146991Y-91604029D01*
X129146993Y-91604028D01*
X129204953Y-91592500D01*
X129264047Y-91592500D01*
X129322007Y-91604028D01*
X129322007Y-91604028D01*
G37*
G36*
X119286819Y-91006958D02*
G01*
X119390494Y-91038408D01*
X119390497Y-91038409D01*
X119486041Y-91089478D01*
X119569790Y-91158210D01*
X119638522Y-91241959D01*
X119689591Y-91337503D01*
X119689592Y-91337506D01*
X119721042Y-91441181D01*
X119731661Y-91549000D01*
X119721042Y-91656819D01*
X119692655Y-91750397D01*
X119689591Y-91760497D01*
X119638522Y-91856041D01*
X119569790Y-91939790D01*
X119486041Y-92008522D01*
X119390497Y-92059591D01*
X119390494Y-92059592D01*
X119286819Y-92091042D01*
X119206018Y-92099000D01*
X118751982Y-92099000D01*
X118671181Y-92091042D01*
X118567506Y-92059592D01*
X118567503Y-92059591D01*
X118471959Y-92008522D01*
X118388210Y-91939790D01*
X118319478Y-91856041D01*
X118268409Y-91760497D01*
X118265345Y-91750397D01*
X118236958Y-91656819D01*
X118226339Y-91549000D01*
X118236958Y-91441181D01*
X118268408Y-91337506D01*
X118268409Y-91337503D01*
X118319478Y-91241959D01*
X118388210Y-91158210D01*
X118471959Y-91089478D01*
X118567503Y-91038409D01*
X118567506Y-91038408D01*
X118671181Y-91006958D01*
X118751982Y-90999000D01*
X119206018Y-90999000D01*
X119286819Y-91006958D01*
X119286819Y-91006958D01*
G37*
G36*
X177772600Y-90803000D02*
G01*
X173712600Y-90803000D01*
X173712600Y-89283000D01*
X177772600Y-89283000D01*
X177772600Y-90803000D01*
X177772600Y-90803000D01*
G37*
G36*
X119286819Y-86166958D02*
G01*
X119390494Y-86198408D01*
X119390497Y-86198409D01*
X119486041Y-86249478D01*
X119569790Y-86318210D01*
X119638522Y-86401959D01*
X119689591Y-86497503D01*
X119689592Y-86497506D01*
X119721042Y-86601181D01*
X119731661Y-86709000D01*
X119721042Y-86816819D01*
X119702298Y-86878607D01*
X119689591Y-86920497D01*
X119638522Y-87016041D01*
X119569790Y-87099790D01*
X119486041Y-87168522D01*
X119390497Y-87219591D01*
X119390494Y-87219592D01*
X119286819Y-87251042D01*
X119206018Y-87259000D01*
X118751982Y-87259000D01*
X118671181Y-87251042D01*
X118567506Y-87219592D01*
X118567503Y-87219591D01*
X118471959Y-87168522D01*
X118388210Y-87099790D01*
X118319478Y-87016041D01*
X118268409Y-86920497D01*
X118255702Y-86878607D01*
X118236958Y-86816819D01*
X118226339Y-86709000D01*
X118236958Y-86601181D01*
X118268408Y-86497506D01*
X118268409Y-86497503D01*
X118319478Y-86401959D01*
X118388210Y-86318210D01*
X118471959Y-86249478D01*
X118567503Y-86198409D01*
X118567506Y-86198408D01*
X118671181Y-86166958D01*
X118751982Y-86159000D01*
X119206018Y-86159000D01*
X119286819Y-86166958D01*
X119286819Y-86166958D01*
G37*
G36*
X116211950Y-85726442D02*
G01*
X116286323Y-85733767D01*
X116413561Y-85772364D01*
X116413564Y-85772365D01*
X116530826Y-85835043D01*
X116633607Y-85919393D01*
X116717957Y-86022174D01*
X116780635Y-86139436D01*
X116780636Y-86139439D01*
X116819233Y-86266677D01*
X116832266Y-86399000D01*
X116819233Y-86531323D01*
X116798041Y-86601184D01*
X116780635Y-86658564D01*
X116717957Y-86775826D01*
X116633607Y-86878607D01*
X116530826Y-86962957D01*
X116413564Y-87025635D01*
X116413561Y-87025636D01*
X116286323Y-87064233D01*
X116211950Y-87071558D01*
X116187160Y-87074000D01*
X115770840Y-87074000D01*
X115746050Y-87071558D01*
X115671677Y-87064233D01*
X115544439Y-87025636D01*
X115544436Y-87025635D01*
X115427174Y-86962957D01*
X115324393Y-86878607D01*
X115240043Y-86775826D01*
X115177365Y-86658564D01*
X115159959Y-86601184D01*
X115138767Y-86531323D01*
X115125734Y-86399000D01*
X115138767Y-86266677D01*
X115177364Y-86139439D01*
X115177365Y-86139436D01*
X115240043Y-86022174D01*
X115324393Y-85919393D01*
X115427174Y-85835043D01*
X115544436Y-85772365D01*
X115544439Y-85772364D01*
X115671677Y-85733767D01*
X115746050Y-85726442D01*
X115770840Y-85724000D01*
X116187160Y-85724000D01*
X116211950Y-85726442D01*
X116211950Y-85726442D01*
G37*
G36*
X171338000Y-83654000D02*
G01*
X169938000Y-83654000D01*
X169938000Y-80654000D01*
X171338000Y-80654000D01*
X171338000Y-83654000D01*
X171338000Y-83654000D01*
G37*
G36*
X169538000Y-83654000D02*
G01*
X168138000Y-83654000D01*
X168138000Y-80654000D01*
X169538000Y-80654000D01*
X169538000Y-83654000D01*
X169538000Y-83654000D01*
G37*
G36*
X167738000Y-83654000D02*
G01*
X166338000Y-83654000D01*
X166338000Y-80654000D01*
X167738000Y-80654000D01*
X167738000Y-83654000D01*
X167738000Y-83654000D01*
G37*
G36*
X165938000Y-83654000D02*
G01*
X164538000Y-83654000D01*
X164538000Y-80654000D01*
X165938000Y-80654000D01*
X165938000Y-83654000D01*
X165938000Y-83654000D01*
G37*
G36*
X158738000Y-83654000D02*
G01*
X157338000Y-83654000D01*
X157338000Y-80654000D01*
X158738000Y-80654000D01*
X158738000Y-83654000D01*
X158738000Y-83654000D01*
G37*
G36*
X162338000Y-83654000D02*
G01*
X160938000Y-83654000D01*
X160938000Y-80654000D01*
X162338000Y-80654000D01*
X162338000Y-83654000D01*
X162338000Y-83654000D01*
G37*
G36*
X164138000Y-83654000D02*
G01*
X162738000Y-83654000D01*
X162738000Y-80654000D01*
X164138000Y-80654000D01*
X164138000Y-83654000D01*
X164138000Y-83654000D01*
G37*
G36*
X160538000Y-83654000D02*
G01*
X159138000Y-83654000D01*
X159138000Y-80654000D01*
X160538000Y-80654000D01*
X160538000Y-83654000D01*
X160538000Y-83654000D01*
G37*
G36*
X117488279Y-78126909D02*
G01*
X117488281Y-78126910D01*
X117488282Y-78126910D01*
X117892750Y-78294446D01*
X118035831Y-78390050D01*
X118256761Y-78537671D01*
X118566329Y-78847239D01*
X118566332Y-78847244D01*
X118809554Y-79211250D01*
X118916118Y-79468519D01*
X118977091Y-79615721D01*
X119062500Y-80045103D01*
X119062500Y-80482897D01*
X119027714Y-80657780D01*
X118977090Y-80912282D01*
X118809554Y-81316750D01*
X118713600Y-81460354D01*
X118566329Y-81680761D01*
X118256761Y-81990329D01*
X118133785Y-82072499D01*
X117892750Y-82233554D01*
X117488282Y-82401090D01*
X117488281Y-82401090D01*
X117488279Y-82401091D01*
X117058897Y-82486500D01*
X116621103Y-82486500D01*
X116191721Y-82401091D01*
X116191719Y-82401090D01*
X116191718Y-82401090D01*
X115787250Y-82233554D01*
X115546215Y-82072499D01*
X115423239Y-81990329D01*
X115113671Y-81680761D01*
X114966400Y-81460354D01*
X114870446Y-81316750D01*
X114702910Y-80912282D01*
X114652287Y-80657780D01*
X114617500Y-80482897D01*
X114617500Y-80045103D01*
X114702909Y-79615721D01*
X114763882Y-79468519D01*
X114870446Y-79211250D01*
X115113668Y-78847244D01*
X115113671Y-78847239D01*
X115423239Y-78537671D01*
X115644169Y-78390050D01*
X115787250Y-78294446D01*
X116191718Y-78126910D01*
X116191719Y-78126910D01*
X116191721Y-78126909D01*
X116621103Y-78041500D01*
X117058897Y-78041500D01*
X117488279Y-78126909D01*
X117488279Y-78126909D01*
G37*
G36*
X175458167Y-78926970D02*
G01*
X175653783Y-78965880D01*
X175899466Y-79067646D01*
X176120570Y-79215383D01*
X176120572Y-79215385D01*
X176120575Y-79215387D01*
X176308613Y-79403425D01*
X176308615Y-79403428D01*
X176308617Y-79403430D01*
X176456354Y-79624534D01*
X176558120Y-79870217D01*
X176610000Y-80131038D01*
X176610000Y-80396962D01*
X176558120Y-80657783D01*
X176456354Y-80903466D01*
X176308617Y-81124570D01*
X176308615Y-81124572D01*
X176308613Y-81124575D01*
X176120575Y-81312613D01*
X176120572Y-81312615D01*
X176120570Y-81312617D01*
X175899466Y-81460354D01*
X175653783Y-81562120D01*
X175458167Y-81601030D01*
X175392963Y-81614000D01*
X175127037Y-81614000D01*
X175061833Y-81601030D01*
X174866217Y-81562120D01*
X174620534Y-81460354D01*
X174399430Y-81312617D01*
X174399428Y-81312615D01*
X174399425Y-81312613D01*
X174211387Y-81124575D01*
X174211385Y-81124572D01*
X174211383Y-81124570D01*
X174063646Y-80903466D01*
X173961880Y-80657783D01*
X173910000Y-80396962D01*
X173910000Y-80131038D01*
X173961880Y-79870217D01*
X174063646Y-79624534D01*
X174211383Y-79403430D01*
X174211385Y-79403428D01*
X174211387Y-79403425D01*
X174399425Y-79215387D01*
X174399428Y-79215385D01*
X174399430Y-79215383D01*
X174620534Y-79067646D01*
X174866217Y-78965880D01*
X175061833Y-78926970D01*
X175127037Y-78914000D01*
X175392963Y-78914000D01*
X175458167Y-78926970D01*
X175458167Y-78926970D01*
G37*
G36*
X141136626Y-78156299D02*
G01*
X141296857Y-78204903D01*
X141444521Y-78283832D01*
X141573950Y-78390050D01*
X141680168Y-78519479D01*
X141759097Y-78667143D01*
X141807701Y-78827374D01*
X141824113Y-78994000D01*
X141807701Y-79160626D01*
X141759097Y-79320857D01*
X141680168Y-79468521D01*
X141573950Y-79597950D01*
X141444521Y-79704168D01*
X141296857Y-79783097D01*
X141136626Y-79831701D01*
X141011759Y-79844000D01*
X140928241Y-79844000D01*
X140803374Y-79831701D01*
X140643143Y-79783097D01*
X140495479Y-79704168D01*
X140366050Y-79597950D01*
X140259832Y-79468521D01*
X140180903Y-79320857D01*
X140132299Y-79160626D01*
X140115887Y-78994000D01*
X140132299Y-78827374D01*
X140180903Y-78667143D01*
X140259832Y-78519479D01*
X140366050Y-78390050D01*
X140495479Y-78283832D01*
X140643143Y-78204903D01*
X140803374Y-78156299D01*
X140928241Y-78144000D01*
X141011759Y-78144000D01*
X141136626Y-78156299D01*
X141136626Y-78156299D01*
G37*
G36*
X143676626Y-78156299D02*
G01*
X143836857Y-78204903D01*
X143984521Y-78283832D01*
X144113950Y-78390050D01*
X144220168Y-78519479D01*
X144299097Y-78667143D01*
X144347701Y-78827374D01*
X144364113Y-78994000D01*
X144347701Y-79160626D01*
X144299097Y-79320857D01*
X144220168Y-79468521D01*
X144113950Y-79597950D01*
X143984521Y-79704168D01*
X143836857Y-79783097D01*
X143676626Y-79831701D01*
X143551759Y-79844000D01*
X143468241Y-79844000D01*
X143343374Y-79831701D01*
X143183143Y-79783097D01*
X143035479Y-79704168D01*
X142906050Y-79597950D01*
X142799832Y-79468521D01*
X142720903Y-79320857D01*
X142672299Y-79160626D01*
X142655887Y-78994000D01*
X142672299Y-78827374D01*
X142720903Y-78667143D01*
X142799832Y-78519479D01*
X142906050Y-78390050D01*
X143035479Y-78283832D01*
X143183143Y-78204903D01*
X143343374Y-78156299D01*
X143468241Y-78144000D01*
X143551759Y-78144000D01*
X143676626Y-78156299D01*
X143676626Y-78156299D01*
G37*
G36*
X146216626Y-78156299D02*
G01*
X146376857Y-78204903D01*
X146524521Y-78283832D01*
X146653950Y-78390050D01*
X146760168Y-78519479D01*
X146839097Y-78667143D01*
X146887701Y-78827374D01*
X146904113Y-78994000D01*
X146887701Y-79160626D01*
X146839097Y-79320857D01*
X146760168Y-79468521D01*
X146653950Y-79597950D01*
X146524521Y-79704168D01*
X146376857Y-79783097D01*
X146216626Y-79831701D01*
X146091759Y-79844000D01*
X146008241Y-79844000D01*
X145883374Y-79831701D01*
X145723143Y-79783097D01*
X145575479Y-79704168D01*
X145446050Y-79597950D01*
X145339832Y-79468521D01*
X145260903Y-79320857D01*
X145212299Y-79160626D01*
X145195887Y-78994000D01*
X145212299Y-78827374D01*
X145260903Y-78667143D01*
X145339832Y-78519479D01*
X145446050Y-78390050D01*
X145575479Y-78283832D01*
X145723143Y-78204903D01*
X145883374Y-78156299D01*
X146008241Y-78144000D01*
X146091759Y-78144000D01*
X146216626Y-78156299D01*
X146216626Y-78156299D01*
G37*
G36*
X148756626Y-78156299D02*
G01*
X148916857Y-78204903D01*
X149064521Y-78283832D01*
X149193950Y-78390050D01*
X149300168Y-78519479D01*
X149379097Y-78667143D01*
X149427701Y-78827374D01*
X149444113Y-78994000D01*
X149427701Y-79160626D01*
X149379097Y-79320857D01*
X149300168Y-79468521D01*
X149193950Y-79597950D01*
X149064521Y-79704168D01*
X148916857Y-79783097D01*
X148756626Y-79831701D01*
X148631759Y-79844000D01*
X148548241Y-79844000D01*
X148423374Y-79831701D01*
X148263143Y-79783097D01*
X148115479Y-79704168D01*
X147986050Y-79597950D01*
X147879832Y-79468521D01*
X147800903Y-79320857D01*
X147752299Y-79160626D01*
X147735887Y-78994000D01*
X147752299Y-78827374D01*
X147800903Y-78667143D01*
X147879832Y-78519479D01*
X147986050Y-78390050D01*
X148115479Y-78283832D01*
X148263143Y-78204903D01*
X148423374Y-78156299D01*
X148548241Y-78144000D01*
X148631759Y-78144000D01*
X148756626Y-78156299D01*
X148756626Y-78156299D01*
G37*
G36*
X151296626Y-78156299D02*
G01*
X151456857Y-78204903D01*
X151604521Y-78283832D01*
X151733950Y-78390050D01*
X151840168Y-78519479D01*
X151919097Y-78667143D01*
X151967701Y-78827374D01*
X151984113Y-78994000D01*
X151967701Y-79160626D01*
X151919097Y-79320857D01*
X151840168Y-79468521D01*
X151733950Y-79597950D01*
X151604521Y-79704168D01*
X151456857Y-79783097D01*
X151296626Y-79831701D01*
X151171759Y-79844000D01*
X151088241Y-79844000D01*
X150963374Y-79831701D01*
X150803143Y-79783097D01*
X150655479Y-79704168D01*
X150526050Y-79597950D01*
X150419832Y-79468521D01*
X150340903Y-79320857D01*
X150292299Y-79160626D01*
X150275887Y-78994000D01*
X150292299Y-78827374D01*
X150340903Y-78667143D01*
X150419832Y-78519479D01*
X150526050Y-78390050D01*
X150655479Y-78283832D01*
X150803143Y-78204903D01*
X150963374Y-78156299D01*
X151088241Y-78144000D01*
X151171759Y-78144000D01*
X151296626Y-78156299D01*
X151296626Y-78156299D01*
G37*
G36*
X153836626Y-78156299D02*
G01*
X153996857Y-78204903D01*
X154144521Y-78283832D01*
X154273950Y-78390050D01*
X154380168Y-78519479D01*
X154459097Y-78667143D01*
X154507701Y-78827374D01*
X154524113Y-78994000D01*
X154507701Y-79160626D01*
X154459097Y-79320857D01*
X154380168Y-79468521D01*
X154273950Y-79597950D01*
X154144521Y-79704168D01*
X153996857Y-79783097D01*
X153836626Y-79831701D01*
X153711759Y-79844000D01*
X153628241Y-79844000D01*
X153503374Y-79831701D01*
X153343143Y-79783097D01*
X153195479Y-79704168D01*
X153066050Y-79597950D01*
X152959832Y-79468521D01*
X152880903Y-79320857D01*
X152832299Y-79160626D01*
X152815887Y-78994000D01*
X152832299Y-78827374D01*
X152880903Y-78667143D01*
X152959832Y-78519479D01*
X153066050Y-78390050D01*
X153195479Y-78283832D01*
X153343143Y-78204903D01*
X153503374Y-78156299D01*
X153628241Y-78144000D01*
X153711759Y-78144000D01*
X153836626Y-78156299D01*
X153836626Y-78156299D01*
G37*
G36*
X156376626Y-78156299D02*
G01*
X156536857Y-78204903D01*
X156684521Y-78283832D01*
X156813950Y-78390050D01*
X156920168Y-78519479D01*
X156999097Y-78667143D01*
X157047701Y-78827374D01*
X157064113Y-78994000D01*
X157047701Y-79160626D01*
X156999097Y-79320857D01*
X156920168Y-79468521D01*
X156813950Y-79597950D01*
X156684521Y-79704168D01*
X156536857Y-79783097D01*
X156376626Y-79831701D01*
X156251759Y-79844000D01*
X156168241Y-79844000D01*
X156043374Y-79831701D01*
X155883143Y-79783097D01*
X155735479Y-79704168D01*
X155606050Y-79597950D01*
X155499832Y-79468521D01*
X155420903Y-79320857D01*
X155372299Y-79160626D01*
X155355887Y-78994000D01*
X155372299Y-78827374D01*
X155420903Y-78667143D01*
X155499832Y-78519479D01*
X155606050Y-78390050D01*
X155735479Y-78283832D01*
X155883143Y-78204903D01*
X156043374Y-78156299D01*
X156168241Y-78144000D01*
X156251759Y-78144000D01*
X156376626Y-78156299D01*
X156376626Y-78156299D01*
G37*
G36*
X136056626Y-78156299D02*
G01*
X136216857Y-78204903D01*
X136364521Y-78283832D01*
X136493950Y-78390050D01*
X136600168Y-78519479D01*
X136679097Y-78667143D01*
X136727701Y-78827374D01*
X136744113Y-78994000D01*
X136727701Y-79160626D01*
X136679097Y-79320857D01*
X136600168Y-79468521D01*
X136493950Y-79597950D01*
X136364521Y-79704168D01*
X136216857Y-79783097D01*
X136056626Y-79831701D01*
X135931759Y-79844000D01*
X135848241Y-79844000D01*
X135723374Y-79831701D01*
X135563143Y-79783097D01*
X135415479Y-79704168D01*
X135286050Y-79597950D01*
X135179832Y-79468521D01*
X135100903Y-79320857D01*
X135052299Y-79160626D01*
X135035887Y-78994000D01*
X135052299Y-78827374D01*
X135100903Y-78667143D01*
X135179832Y-78519479D01*
X135286050Y-78390050D01*
X135415479Y-78283832D01*
X135563143Y-78204903D01*
X135723374Y-78156299D01*
X135848241Y-78144000D01*
X135931759Y-78144000D01*
X136056626Y-78156299D01*
X136056626Y-78156299D01*
G37*
G36*
X158916626Y-78156299D02*
G01*
X159076857Y-78204903D01*
X159224521Y-78283832D01*
X159353950Y-78390050D01*
X159460168Y-78519479D01*
X159539097Y-78667143D01*
X159587701Y-78827374D01*
X159604113Y-78994000D01*
X159587701Y-79160626D01*
X159539097Y-79320857D01*
X159460168Y-79468521D01*
X159353950Y-79597950D01*
X159224521Y-79704168D01*
X159076857Y-79783097D01*
X158916626Y-79831701D01*
X158791759Y-79844000D01*
X158708241Y-79844000D01*
X158583374Y-79831701D01*
X158423143Y-79783097D01*
X158275479Y-79704168D01*
X158146050Y-79597950D01*
X158039832Y-79468521D01*
X157960903Y-79320857D01*
X157912299Y-79160626D01*
X157895887Y-78994000D01*
X157912299Y-78827374D01*
X157960903Y-78667143D01*
X158039832Y-78519479D01*
X158146050Y-78390050D01*
X158275479Y-78283832D01*
X158423143Y-78204903D01*
X158583374Y-78156299D01*
X158708241Y-78144000D01*
X158791759Y-78144000D01*
X158916626Y-78156299D01*
X158916626Y-78156299D01*
G37*
G36*
X133516626Y-78156299D02*
G01*
X133676857Y-78204903D01*
X133824521Y-78283832D01*
X133953950Y-78390050D01*
X134060168Y-78519479D01*
X134139097Y-78667143D01*
X134187701Y-78827374D01*
X134204113Y-78994000D01*
X134187701Y-79160626D01*
X134139097Y-79320857D01*
X134060168Y-79468521D01*
X133953950Y-79597950D01*
X133824521Y-79704168D01*
X133676857Y-79783097D01*
X133516626Y-79831701D01*
X133391759Y-79844000D01*
X133308241Y-79844000D01*
X133183374Y-79831701D01*
X133023143Y-79783097D01*
X132875479Y-79704168D01*
X132746050Y-79597950D01*
X132639832Y-79468521D01*
X132560903Y-79320857D01*
X132512299Y-79160626D01*
X132495887Y-78994000D01*
X132512299Y-78827374D01*
X132560903Y-78667143D01*
X132639832Y-78519479D01*
X132746050Y-78390050D01*
X132875479Y-78283832D01*
X133023143Y-78204903D01*
X133183374Y-78156299D01*
X133308241Y-78144000D01*
X133391759Y-78144000D01*
X133516626Y-78156299D01*
X133516626Y-78156299D01*
G37*
G36*
X131660000Y-79844000D02*
G01*
X129960000Y-79844000D01*
X129960000Y-78144000D01*
X131660000Y-78144000D01*
X131660000Y-79844000D01*
X131660000Y-79844000D01*
G37*
G36*
X138596626Y-78156299D02*
G01*
X138756857Y-78204903D01*
X138904521Y-78283832D01*
X139033950Y-78390050D01*
X139140168Y-78519479D01*
X139219097Y-78667143D01*
X139267701Y-78827374D01*
X139284113Y-78994000D01*
X139267701Y-79160626D01*
X139219097Y-79320857D01*
X139140168Y-79468521D01*
X139033950Y-79597950D01*
X138904521Y-79704168D01*
X138756857Y-79783097D01*
X138596626Y-79831701D01*
X138471759Y-79844000D01*
X138388241Y-79844000D01*
X138263374Y-79831701D01*
X138103143Y-79783097D01*
X137955479Y-79704168D01*
X137826050Y-79597950D01*
X137719832Y-79468521D01*
X137640903Y-79320857D01*
X137592299Y-79160626D01*
X137575887Y-78994000D01*
X137592299Y-78827374D01*
X137640903Y-78667143D01*
X137719832Y-78519479D01*
X137826050Y-78390050D01*
X137955479Y-78283832D01*
X138103143Y-78204903D01*
X138263374Y-78156299D01*
X138388241Y-78144000D01*
X138471759Y-78144000D01*
X138596626Y-78156299D01*
X138596626Y-78156299D01*
G37*
M02*
