M48
; DRILL file {KiCad (5.1.4)-1} date 1/1/2020 11:40:31 AM
; FORMAT={-:-/ absolute / inch / decimal}
; #@! TF.CreationDate,2020-01-01T11:40:31-06:00
; #@! TF.GenerationSoftware,Kicad,Pcbnew,(5.1.4)-1
FMAT,2
INCH
T1C0.0079
T2C0.0118
T3C0.0160
T4C0.0256
T5C0.0276
T6C0.0394
T7C0.0472
T8C0.1000
T9C0.1063
%
G90
G05
T1
X4.54Y-3.68
X4.625Y-3.56
X4.63Y-3.6925
X4.6825Y-3.7675
X4.696Y-3.927
X4.7214Y-3.7984
X4.735Y-3.505
X4.7425Y-3.5775
X4.763Y-3.27
X4.7975Y-3.8744
X4.835Y-3.78
X4.855Y-3.4409
X4.8693Y-3.6598
X4.8825Y-3.8375
X4.91Y-3.735
X4.945Y-3.62
X4.985Y-3.735
X4.995Y-3.505
X5.0121Y-3.5848
X5.015Y-3.409
X5.035Y-3.585
X5.0975Y-3.88
X5.114Y-3.2456
X5.129Y-3.423
X5.2509Y-3.5739
X5.255Y-3.775
X5.2575Y-3.225
X5.275Y-3.6625
X5.275Y-3.6825
X5.3025Y-3.1575
X5.32Y-3.6625
X5.32Y-3.6825
X5.3225Y-3.7725
X5.3312Y-3.5311
X5.3317Y-3.4753
X5.369Y-3.311
X5.37Y-3.337
X5.375Y-3.605
X5.3825Y-3.225
X5.4314Y-3.3925
X5.4525Y-3.755
X5.455Y-3.5875
X5.465Y-3.2175
X5.4675Y-3.3225
X5.4875Y-3.41
X5.5125Y-3.3925
X5.5225Y-3.5325
X5.5425Y-3.82
X5.5525Y-3.39
X5.555Y-3.545
X5.5624Y-3.6824
X5.5624Y-3.831
X5.565Y-3.6575
X5.58Y-3.165
X5.58Y-3.6
X5.5849Y-3.8338
X5.59Y-3.635
X5.5925Y-3.3925
X5.5975Y-3.5425
X5.605Y-3.7125
X5.61Y-3.82
X5.6225Y-3.5373
X5.6225Y-3.56
X5.6525Y-3.31
X5.6575Y-3.2825
X5.67Y-3.75
X5.68Y-3.535
X5.6813Y-3.3135
X5.6885Y-3.599
X5.71Y-3.8175
X5.7151Y-3.5989
X5.7225Y-3.3775
X5.7425Y-3.6075
X5.7659Y-3.7068
X5.7725Y-3.7475
X5.7817Y-3.4372
X5.7875Y-3.4875
X5.795Y-3.83
X5.8075Y-3.44
X5.83Y-3.4
X5.8775Y-3.7825
X5.89Y-3.375
X5.9007Y-3.7199
X5.9025Y-3.245
X5.9075Y-3.7825
X5.9083Y-3.6786
X5.91Y-3.595
X5.92Y-3.355
X5.925Y-3.62
X5.93Y-3.165
X5.9325Y-3.48
X5.9375Y-3.455
X5.95Y-3.4075
X5.955Y-3.31
X5.9575Y-3.5475
X5.96Y-3.3575
X5.97Y-3.235
X5.975Y-3.385
X5.9875Y-3.3575
X5.9886Y-3.5514
X5.995Y-3.83
X6.005Y-3.375
X6.02Y-3.25
X6.0213Y-3.4765
X6.025Y-3.695
X6.0375Y-3.6725
X6.0387Y-3.5219
X6.04Y-3.815
X6.0462Y-3.477
X6.0497Y-3.2503
X6.0701Y-3.4899
X6.0925Y-3.265
X6.095Y-3.4625
X6.0975Y-3.7075
X6.1175Y-3.215
X6.125Y-3.18
X6.1325Y-3.3475
X6.1375Y-3.445
X6.14Y-3.6625
X6.1425Y-3.5625
X6.145Y-3.3825
X6.16Y-3.6175
X6.1725Y-3.205
X6.175Y-3.575
X6.195Y-3.4975
X6.2Y-3.89
X6.2127Y-3.4814
X6.215Y-3.6175
X6.27Y-3.455
X6.28Y-3.5375
X6.3075Y-3.875
X6.3325Y-3.705
X6.3525Y-3.69
X6.3525Y-3.9425
X6.3877Y-3.5864
X6.3925Y-3.4325
X6.395Y-3.945
X6.425Y-3.1475
X6.44Y-3.715
X6.5175Y-3.695
X6.53Y-3.42
X6.585Y-3.42
X6.6075Y-3.495
X6.61Y-3.7
X6.6275Y-3.5625
X6.635Y-3.645
X6.64Y-3.705
X6.6425Y-3.4925
X6.6575Y-3.4139
X6.66Y-3.1475
X6.706Y-3.589
X6.7114Y-3.4961
X6.7125Y-3.3875
X6.7279Y-3.4562
X6.812Y-3.59
X6.825Y-3.545
X6.825Y-3.744
X6.865Y-3.264
X6.881Y-3.362
X6.883Y-3.411
X6.887Y-3.286
T2
X5.088Y-3.6178
X5.088Y-3.6572
X5.1175Y-3.6375
X5.147Y-3.6178
X5.147Y-3.6572
T3
X6.7175Y-3.6925
T6
X4.75Y-3.91
X4.85Y-3.91
X4.95Y-3.91
X5.05Y-3.91
X5.15Y-3.91
X5.25Y-3.91
X5.35Y-3.91
X5.45Y-3.91
X5.55Y-3.91
X5.65Y-3.91
X5.75Y-3.91
X5.85Y-3.91
X5.95Y-3.91
X6.05Y-3.91
X6.15Y-3.91
X6.25Y-3.91
X5.15Y-3.11
X5.25Y-3.11
X5.35Y-3.11
X5.45Y-3.11
X5.55Y-3.11
X5.65Y-3.11
X5.75Y-3.11
X5.85Y-3.11
X5.95Y-3.11
X6.05Y-3.11
X6.15Y-3.11
X6.25Y-3.11
T7
X6.8914Y-3.645
T8
X4.6Y-3.16
X4.6Y-3.86
T9
X6.9Y-3.86
X6.9Y-3.16
T4
G00X4.6763Y-3.4137
M15
G01X4.6921Y-3.4137
M16
G05
G00X4.6763Y-3.6043
M15
G01X4.6921Y-3.6043
M16
G05
T5
G00X4.5563Y-3.4015
M15
G01X4.5759Y-3.4015
M16
G05
G00X4.5563Y-3.6165
M15
G01X4.5759Y-3.6165
M16
G05
T0
M30
